<svg width="40" height="40" viewBox="0 0 40 40" fill="none" xmlns="http://www.w3.org/2000/svg">
<path d="M19.9997 11.5C19.316 11.5001 18.7183 11.7496 18.2334 12.2344C17.7485 12.7194 17.4992 13.3171 17.5 14.0006L17.5006 14.5H18H22H22.5V14C22.5 13.3162 22.2505 12.7184 21.7656 12.2334C21.2807 11.7486 20.6831 11.4992 19.9997 11.5ZM19.9997 11.5C19.9998 11.5 19.9999 11.5 20 11.5V12L19.9994 11.5C19.9995 11.5 19.9996 11.5 19.9997 11.5ZM24 14C24 12.9 23.6083 11.9583 22.825 11.175C22.0417 10.3917 21.1 10 20 10C18.9 10 17.9583 10.3917 17.175 11.175C16.3917 11.9583 16 12.9 16 14H15.5H14C13.4507 13.9993 12.98 14.195 12.588 14.587C12.196 14.979 12 15.45 12 16L24 14ZM24 14H24.5M24 14H24.5M24.5 14H26C26.55 14 27.021 14.196 27.413 14.588C27.805 14.98 28.0007 15.4507 28 16V28C28 28.55 27.804 29.021 27.412 29.413C27.02 29.805 26.5493 30.0007 26 30L24.5 14ZM12.5 28.0006V28V16C12.5 15.5838 12.6425 15.2396 12.9416 14.9406C13.2406 14.6415 13.5842 14.4995 13.9994 14.5H14H16H16.5V14C16.5 13.0337 16.8382 12.2189 17.5286 11.5286C18.2189 10.8382 19.0337 10.5 20 10.5C20.9663 10.5 21.7811 10.8382 22.4714 11.5286C23.1618 12.2189 23.5 13.0337 23.5 14V14.5H24H26C26.4162 14.5 26.7604 14.6425 27.0594 14.9416C27.3585 15.2406 27.5005 15.5842 27.5 15.9994V16V28C27.5 28.4162 27.3575 28.7604 27.0584 29.0594C26.7594 29.3585 26.4158 29.5005 26.0006 29.5H26H14C13.5838 29.5 13.2396 29.3575 12.9406 29.0584C12.6415 28.7594 12.4995 28.4158 12.5 28.0006ZM13.5 28V28.5H14H26H26.5V28V16V15.5H26H24H23.5V16V18C23.5 18.1572 23.4522 18.2657 23.3584 18.3594C23.2647 18.4532 23.1569 18.5004 23.0012 18.5H23C22.8428 18.5 22.7343 18.4522 22.6406 18.3584C22.5468 18.2647 22.4996 18.1569 22.5 18.0012V18V16V15.5H22H18H17.5V16V18C17.5 18.1572 17.4522 18.2657 17.3584 18.3594C17.2647 18.4532 17.1569 18.5004 17.0012 18.5H17C16.8429 18.5 16.7343 18.4522 16.6406 18.3584C16.5468 18.2647 16.4996 18.1569 16.5 18.0012V18V16V15.5H16H14H13.5V16V28ZM18.0589 13.5H18V13.9944C18.0002 13.8218 18.0198 13.657 18.0589 13.5ZM22 14C22 13.8254 21.9802 13.6587 21.9407 13.5H22V14Z" fill="#191919" stroke="#525256"/>
</svg>
