<svg width="24" height="24" viewBox="0 0 24 24" fill="none" xmlns="http://www.w3.org/2000/svg">
<path d="M21.5 15.7348V21.5H20.5V20.5V20H20H12H11.5V20.5V21.5H10.5V15.7349L11.9799 11.5H20.0201L21.5 15.7348ZM11.5281 14.3348L11.2953 15H12H20H20.7047L20.4719 14.3348L19.7719 12.3348L19.6547 12H19.3H12.7H12.3453L12.2281 12.3348L11.5281 14.3348ZM12.6409 17.1422L12.6422 17.1409C12.7351 17.0477 12.8429 17 13 17C13.1572 17 13.2657 17.0478 13.3594 17.1416C13.4522 17.2343 13.5 17.3423 13.5 17.5C13.5 17.6577 13.4522 17.7657 13.3594 17.8584C13.2657 17.9522 13.1572 18 13 18C12.8429 18 12.7351 17.9523 12.6422 17.8591L12.6409 17.8578C12.5477 17.7649 12.5 17.6571 12.5 17.5C12.5 17.3429 12.5477 17.2351 12.6409 17.1422ZM19.3591 17.8578L19.3578 17.8591C19.2649 17.9523 19.1571 18 19 18C18.8429 18 18.7351 17.9523 18.6422 17.8591L18.6409 17.8578C18.5477 17.7649 18.5 17.6571 18.5 17.5C18.5 17.3429 18.5477 17.2351 18.6409 17.1422L18.6422 17.1409C18.7351 17.0477 18.8429 17 19 17C19.1571 17 19.2649 17.0477 19.3578 17.1409L19.3591 17.1422C19.4523 17.2351 19.5 17.3429 19.5 17.5C19.5 17.6571 19.4523 17.7649 19.3591 17.8578ZM3.5 10V21.5H2.5V8.5H7H7.5V8V2.5H16.5V8.5H15.5V4V3.5H15H9H8.5V4V9.5H4H3.5V10ZM11 19V19.5H11.5H20.5H21V19V16V15.5H20.5H11.5H11V16V19ZM19 16.5C18.7167 16.5 18.4793 16.596 18.288 16.788L19 18.5C19.2833 18.5 19.5207 18.404 19.712 18.212C19.904 18.0207 20 17.7833 20 17.5C20 17.2167 19.904 16.9793 19.712 16.788C19.5207 16.596 19.2833 16.5 19 16.5ZM6.5 13.5V12.5H7.5V13.5H6.5ZM11.5 7.5V6.5H12.5V7.5H11.5ZM6.5 17.5V16.5H7.5V17.5H6.5ZM6.5 21.5V20.5H7.5V21.5H6.5Z" fill="#191919" stroke="#525256"/>
</svg>
