<svg width="40" height="40" viewBox="0 0 40 40" fill="none" xmlns="http://www.w3.org/2000/svg">
<rect width="40" height="40" rx="8" fill="#D2D2D2" fill-opacity="0.25"/>
<path d="M20 12.7778L26.75 17.7778V27.7778H13.25V17.7778L20 12.7778ZM20 10L11 16.6667V30H29V16.6667L20 10ZM19.4375 17.2222V20.5556H18.875V17.2222H17.75V20.5556H17.1875V17.2222H16.0625V20.5556C16.0625 21.4778 16.8162 22.2222 17.75 22.2222V26.6667H18.875V22.2222C19.8088 22.2222 20.5625 21.4778 20.5625 20.5556V17.2222H19.4375ZM21.125 19.4444V22.7778H22.25V26.6667H23.375V17.2222C22.1375 17.2222 21.125 18.2222 21.125 19.4444Z" fill="#666666"/>
</svg>
