<svg width="40" height="56" viewBox="0 0 40 56" fill="none" xmlns="http://www.w3.org/2000/svg">
<rect width="40" height="56" rx="8" fill="#D2D2D2" fill-opacity="0.25"/>
<path d="M22.75 23.46L20 19.93L21.97 19.54L24.71 23.07L22.75 23.46ZM29.62 22.1L28.84 18.18L24.91 18.96L27.65 22.5L29.62 22.1ZM19.81 24.05L17.07 20.5L15.1 20.91L17.85 24.44L19.81 24.05ZM12.16 21.5L11.18 21.69C10.9224 21.7408 10.6774 21.8419 10.4589 21.9876C10.2405 22.1333 10.053 22.3207 9.90713 22.539C9.76127 22.7574 9.65994 23.0023 9.60896 23.2599C9.55797 23.5175 9.55833 23.7826 9.61001 24.04L10 26L14.9 25.03L12.16 21.5ZM12 36V28H28V29.09C28.72 29.21 29.39 29.46 30 29.81V26H10V36C10 36.5304 10.2107 37.0391 10.5858 37.4142C10.9609 37.7893 11.4696 38 12 38H21.81C21.46 37.39 21.22 36.72 21.09 36H12ZM29.34 31.84L25.75 35.43L24.16 33.84L23 35L25.75 38L30.5 33.25L29.34 31.84Z" fill="#878787"/>
</svg>
