<svg width="40" height="56" viewBox="0 0 40 56" fill="none" xmlns="http://www.w3.org/2000/svg">
<rect width="40" height="56" rx="8" fill="#D2D2D2" fill-opacity="0.25"/>
<path d="M20 20.7778L26.75 25.7778V35.7778H13.25V25.7778L20 20.7778ZM20 18L11 24.6667V38H29V24.6667L20 18ZM19.4375 25.2222V28.5556H18.875V25.2222H17.75V28.5556H17.1875V25.2222H16.0625V28.5556C16.0625 29.4778 16.8162 30.2222 17.75 30.2222V34.6667H18.875V30.2222C19.8088 30.2222 20.5625 29.4778 20.5625 28.5556V25.2222H19.4375ZM21.125 27.4444V30.7778H22.25V34.6667H23.375V25.2222C22.1375 25.2222 21.125 26.2222 21.125 27.4444Z" fill="#878787"/>
</svg>
