<svg width="680" height="184" viewBox="0 0 680 184" fill="none" xmlns="http://www.w3.org/2000/svg">
<path d="M9.76971 16.2727V3.54545H10.585V16.2727H9.76971ZM12.514 7.36364C12.4544 6.85985 12.2124 6.46875 11.7882 6.19034C11.3639 5.91193 10.8436 5.77273 10.2271 5.77273C9.77634 5.77273 9.38192 5.84564 9.04386 5.99148C8.7091 6.13731 8.44727 6.33783 8.25835 6.59304C8.07274 6.84825 7.97994 7.13826 7.97994 7.46307C7.97994 7.73485 8.04457 7.96851 8.17383 8.16406C8.3064 8.3563 8.47544 8.51705 8.68093 8.64631C8.88642 8.77225 9.10186 8.87666 9.32724 8.95952C9.55262 9.03906 9.75977 9.10369 9.94869 9.15341L10.9828 9.43182C11.2479 9.50142 11.5429 9.59754 11.8677 9.72017C12.1958 9.8428 12.5091 10.0102 12.8074 10.2223C13.109 10.4311 13.3575 10.6996 13.5531 11.0277C13.7486 11.3558 13.8464 11.7585 13.8464 12.2358C13.8464 12.786 13.7022 13.2831 13.4139 13.7273C13.1288 14.1714 12.7112 14.5244 12.161 14.7862C11.6142 15.0481 10.9496 15.179 10.1674 15.179C9.43827 15.179 8.80688 15.0613 8.27326 14.826C7.74296 14.5907 7.32534 14.2625 7.02042 13.8416C6.71881 13.4207 6.54812 12.9318 6.50835 12.375H7.78107C7.81422 12.7595 7.94348 13.0777 8.16886 13.3295C8.39755 13.5781 8.6859 13.7637 9.03391 13.8864C9.38524 14.0057 9.76308 14.0653 10.1674 14.0653C10.6381 14.0653 11.0607 13.9891 11.4352 13.8366C11.8097 13.6809 12.1064 13.4654 12.3251 13.1903C12.5439 12.9119 12.6532 12.5871 12.6532 12.2159C12.6532 11.8778 12.5588 11.6027 12.3699 11.3906C12.1809 11.1785 11.9324 11.0062 11.6241 10.8736C11.3159 10.741 10.9828 10.625 10.6248 10.5256L9.37198 10.1676C8.57653 9.93892 7.94679 9.61245 7.48278 9.18821C7.01876 8.76397 6.78675 8.20881 6.78675 7.52273C6.78675 6.95265 6.94087 6.45549 7.24911 6.03125C7.56067 5.60369 7.97828 5.27225 8.50195 5.03693C9.02894 4.7983 9.61725 4.67898 10.2669 4.67898C10.9231 4.67898 11.5065 4.79664 12.0169 5.03196C12.5273 5.26397 12.9316 5.58215 13.2299 5.98651C13.5315 6.39086 13.6906 6.8499 13.7072 7.36364H12.514ZM15.6946 15V14.1051L19.0554 10.4261C19.4498 9.99526 19.7746 9.62074 20.0298 9.30256C20.285 8.98106 20.474 8.67945 20.5966 8.39773C20.7225 8.11269 20.7855 7.81439 20.7855 7.50284C20.7855 7.14489 20.6993 6.83499 20.527 6.57315C20.358 6.31132 20.1259 6.10914 19.831 5.96662C19.536 5.8241 19.2045 5.75284 18.8366 5.75284C18.4455 5.75284 18.1042 5.83404 17.8125 5.99645C17.5241 6.15554 17.3004 6.37926 17.1413 6.66761C16.9856 6.95597 16.9077 7.29403 16.9077 7.68182H15.7344C15.7344 7.08523 15.8719 6.56155 16.147 6.1108C16.4221 5.66004 16.7966 5.30871 17.2706 5.05682C17.7479 4.80492 18.2831 4.67898 18.8764 4.67898C19.473 4.67898 20.0017 4.80492 20.4624 5.05682C20.9231 5.30871 21.2843 5.64844 21.5462 6.07599C21.808 6.50355 21.9389 6.97917 21.9389 7.50284C21.9389 7.87737 21.871 8.24361 21.7351 8.60156C21.6025 8.9562 21.3705 9.35227 21.0391 9.78977C20.7109 10.224 20.2552 10.7543 19.6719 11.3807L17.3849 13.8267V13.9062H22.1179V15H15.6946ZM27.353 15.1392C26.7696 15.1392 26.2443 15.0232 25.777 14.7912C25.3097 14.5592 24.9351 14.241 24.6534 13.8366C24.3717 13.4323 24.2176 12.9716 24.1911 12.4545H25.3842C25.4306 12.9152 25.6394 13.2964 26.0107 13.598C26.3852 13.8963 26.8326 14.0455 27.353 14.0455C27.7706 14.0455 28.1418 13.9477 28.4666 13.7521C28.7947 13.5566 29.0516 13.2881 29.2372 12.9467C29.4261 12.602 29.5206 12.2126 29.5206 11.7784C29.5206 11.3343 29.4228 10.9382 29.2273 10.5902C29.035 10.2389 28.7699 9.96212 28.4318 9.75994C28.0938 9.55776 27.7076 9.45502 27.2734 9.4517C26.9619 9.44839 26.642 9.49645 26.3139 9.59588C25.9858 9.692 25.7157 9.81629 25.5036 9.96875L24.3501 9.82955L24.9666 4.81818H30.2564V5.91193H26.0007L25.6428 8.91477H25.7024C25.9112 8.74905 26.1731 8.61151 26.4879 8.50213C26.8028 8.39276 27.1309 8.33807 27.4723 8.33807C28.0954 8.33807 28.6506 8.48722 29.1378 8.78551C29.6283 9.08049 30.0128 9.48485 30.2912 9.99858C30.5729 10.5123 30.7138 11.099 30.7138 11.7585C30.7138 12.4081 30.5679 12.9882 30.2763 13.4986C29.9879 14.0057 29.5902 14.4067 29.0831 14.7017C28.576 14.9934 27.9993 15.1392 27.353 15.1392ZM36.0098 15.1392C35.2607 15.1392 34.6227 14.9354 34.0957 14.5277C33.5687 14.1167 33.166 13.5218 32.8876 12.7429C32.6092 11.9607 32.47 11.0161 32.47 9.90909C32.47 8.80871 32.6092 7.86908 32.8876 7.0902C33.1693 6.308 33.5737 5.71141 34.1007 5.30043C34.631 4.88613 35.2673 4.67898 36.0098 4.67898C36.7522 4.67898 37.3869 4.88613 37.9139 5.30043C38.4442 5.71141 38.8485 6.308 39.127 7.0902C39.4087 7.86908 39.5495 8.80871 39.5495 9.90909C39.5495 11.0161 39.4103 11.9607 39.1319 12.7429C38.8535 13.5218 38.4508 14.1167 37.9238 14.5277C37.3968 14.9354 36.7588 15.1392 36.0098 15.1392ZM36.0098 14.0455C36.7522 14.0455 37.3289 13.6875 37.7399 12.9716C38.1509 12.2557 38.3564 11.2348 38.3564 9.90909C38.3564 9.02746 38.2619 8.27675 38.073 7.65696C37.8874 7.03717 37.6189 6.56487 37.2676 6.24006C36.9196 5.91525 36.5003 5.75284 36.0098 5.75284C35.274 5.75284 34.6989 6.11577 34.2846 6.84162C33.8703 7.56416 33.6632 8.58665 33.6632 9.90909C33.6632 10.7907 33.756 11.5398 33.9416 12.1562C34.1272 12.7727 34.394 13.2417 34.742 13.5632C35.0933 13.8847 35.5159 14.0455 36.0098 14.0455ZM42.5524 12.2159L42.5325 10.7642H42.7711L46.112 7.36364H47.5637L44.0041 10.9631H43.9047L42.5524 12.2159ZM41.4586 15V4.81818H42.6319V15H41.4586ZM46.3109 15L43.3279 11.2216L44.1632 10.4062L47.8024 15H46.3109Z" fill="#9F9F9F"/>
<line x1="64" y1="9.5" x2="680" y2="9.5" stroke="#F3F3F3"/>
<path d="M18.2463 52.2727V39.5455H19.0616V52.2727H18.2463ZM20.9906 43.3636C20.9309 42.8598 20.689 42.4688 20.2647 42.1903C19.8405 41.9119 19.3201 41.7727 18.7037 41.7727C18.2529 41.7727 17.8585 41.8456 17.5204 41.9915C17.1857 42.1373 16.9238 42.3378 16.7349 42.593C16.5493 42.8482 16.4565 43.1383 16.4565 43.4631C16.4565 43.7348 16.5211 43.9685 16.6504 44.1641C16.783 44.3563 16.952 44.517 17.1575 44.6463C17.363 44.7723 17.5784 44.8767 17.8038 44.9595C18.0292 45.0391 18.2363 45.1037 18.4252 45.1534L19.4593 45.4318C19.7245 45.5014 20.0195 45.5975 20.3443 45.7202C20.6724 45.8428 20.9856 46.0102 21.2839 46.2223C21.5855 46.4311 21.8341 46.6996 22.0297 47.0277C22.2252 47.3558 22.323 47.7585 22.323 48.2358C22.323 48.786 22.1788 49.2831 21.8904 49.7273C21.6054 50.1714 21.1878 50.5244 20.6376 50.7862C20.0907 51.0481 19.4262 51.179 18.644 51.179C17.9148 51.179 17.2834 51.0613 16.7498 50.826C16.2195 50.5907 15.8019 50.2625 15.497 49.8416C15.1954 49.4207 15.0247 48.9318 14.9849 48.375H16.2576C16.2908 48.7595 16.42 49.0777 16.6454 49.3295C16.8741 49.5781 17.1625 49.7637 17.5105 49.8864C17.8618 50.0057 18.2396 50.0653 18.644 50.0653C19.1146 50.0653 19.5372 49.9891 19.9118 49.8366C20.2863 49.6809 20.5829 49.4654 20.8017 49.1903C21.0204 48.9119 21.1298 48.5871 21.1298 48.2159C21.1298 47.8778 21.0353 47.6027 20.8464 47.3906C20.6575 47.1785 20.4089 47.0062 20.1007 46.8736C19.7924 46.741 19.4593 46.625 19.1014 46.5256L17.8485 46.1676C17.0531 45.9389 16.4234 45.6125 15.9593 45.1882C15.4953 44.764 15.2633 44.2088 15.2633 43.5227C15.2633 42.9527 15.4174 42.4555 15.7257 42.0312C16.0372 41.6037 16.4548 41.2723 16.9785 41.0369C17.5055 40.7983 18.0938 40.679 18.7434 40.679C19.3997 40.679 19.983 40.7966 20.4934 41.032C21.0038 41.264 21.4082 41.5821 21.7065 41.9865C22.0081 42.3909 22.1672 42.8499 22.1838 43.3636H20.9906ZM27.353 51.1392C26.7696 51.1392 26.2443 51.0232 25.777 50.7912C25.3097 50.5592 24.9351 50.241 24.6534 49.8366C24.3717 49.4323 24.2176 48.9716 24.1911 48.4545H25.3842C25.4306 48.9152 25.6394 49.2964 26.0107 49.598C26.3852 49.8963 26.8326 50.0455 27.353 50.0455C27.7706 50.0455 28.1418 49.9477 28.4666 49.7521C28.7947 49.5566 29.0516 49.2881 29.2372 48.9467C29.4261 48.602 29.5206 48.2126 29.5206 47.7784C29.5206 47.3343 29.4228 46.9382 29.2273 46.5902C29.035 46.2389 28.7699 45.9621 28.4318 45.7599C28.0938 45.5578 27.7076 45.455 27.2734 45.4517C26.9619 45.4484 26.642 45.4964 26.3139 45.5959C25.9858 45.692 25.7157 45.8163 25.5036 45.9688L24.3501 45.8295L24.9666 40.8182H30.2564V41.9119H26.0007L25.6428 44.9148H25.7024C25.9112 44.7491 26.1731 44.6115 26.4879 44.5021C26.8028 44.3928 27.1309 44.3381 27.4723 44.3381C28.0954 44.3381 28.6506 44.4872 29.1378 44.7855C29.6283 45.0805 30.0128 45.4848 30.2912 45.9986C30.5729 46.5123 30.7138 47.099 30.7138 47.7585C30.7138 48.4081 30.5679 48.9882 30.2763 49.4986C29.9879 50.0057 29.5902 50.4067 29.0831 50.7017C28.576 50.9934 27.9993 51.1392 27.353 51.1392ZM36.0098 51.1392C35.2607 51.1392 34.6227 50.9354 34.0957 50.5277C33.5687 50.1167 33.166 49.5218 32.8876 48.7429C32.6092 47.9607 32.47 47.0161 32.47 45.9091C32.47 44.8087 32.6092 43.8691 32.8876 43.0902C33.1693 42.308 33.5737 41.7114 34.1007 41.3004C34.631 40.8861 35.2673 40.679 36.0098 40.679C36.7522 40.679 37.3869 40.8861 37.9139 41.3004C38.4442 41.7114 38.8485 42.308 39.127 43.0902C39.4087 43.8691 39.5495 44.8087 39.5495 45.9091C39.5495 47.0161 39.4103 47.9607 39.1319 48.7429C38.8535 49.5218 38.4508 50.1167 37.9238 50.5277C37.3968 50.9354 36.7588 51.1392 36.0098 51.1392ZM36.0098 50.0455C36.7522 50.0455 37.3289 49.6875 37.7399 48.9716C38.1509 48.2557 38.3564 47.2348 38.3564 45.9091C38.3564 45.0275 38.2619 44.2768 38.073 43.657C37.8874 43.0372 37.6189 42.5649 37.2676 42.2401C36.9196 41.9152 36.5003 41.7528 36.0098 41.7528C35.274 41.7528 34.6989 42.1158 34.2846 42.8416C33.8703 43.5642 33.6632 44.5866 33.6632 45.9091C33.6632 46.7907 33.756 47.5398 33.9416 48.1562C34.1272 48.7727 34.394 49.2417 34.742 49.5632C35.0933 49.8847 35.5159 50.0455 36.0098 50.0455ZM42.5524 48.2159L42.5325 46.7642H42.7711L46.112 43.3636H47.5637L44.0041 46.9631H43.9047L42.5524 48.2159ZM41.4586 51V40.8182H42.6319V51H41.4586ZM46.3109 51L43.3279 47.2216L44.1632 46.4062L47.8024 51H46.3109Z" fill="#9F9F9F"/>
<line x1="64" y1="45.5" x2="680" y2="45.5" stroke="#F3F3F3"/>
<path d="M20.256 88.2727V75.5455H21.0714V88.2727H20.256ZM23.0004 79.3636C22.9407 78.8598 22.6987 78.4688 22.2745 78.1903C21.8503 77.9119 21.3299 77.7727 20.7134 77.7727C20.2627 77.7727 19.8683 77.8456 19.5302 77.9915C19.1954 78.1373 18.9336 78.3378 18.7447 78.593C18.5591 78.8482 18.4663 79.1383 18.4663 79.4631C18.4663 79.7348 18.5309 79.9685 18.6602 80.1641C18.7927 80.3563 18.9618 80.517 19.1673 80.6463C19.3728 80.7723 19.5882 80.8767 19.8136 80.9595C20.0389 81.0391 20.2461 81.1037 20.435 81.1534L21.4691 81.4318C21.7343 81.5014 22.0292 81.5975 22.354 81.7202C22.6822 81.8428 22.9954 82.0102 23.2937 82.2223C23.5953 82.4311 23.8439 82.6996 24.0394 83.0277C24.235 83.3558 24.3327 83.7585 24.3327 84.2358C24.3327 84.786 24.1886 85.2831 23.9002 85.7273C23.6152 86.1714 23.1976 86.5244 22.6474 86.7862C22.1005 87.0481 21.436 87.179 20.6538 87.179C19.9246 87.179 19.2932 87.0613 18.7596 86.826C18.2293 86.5907 17.8117 86.2625 17.5067 85.8416C17.2051 85.4207 17.0344 84.9318 16.9947 84.375H18.2674C18.3005 84.7595 18.4298 85.0777 18.6552 85.3295C18.8839 85.5781 19.1722 85.7637 19.5202 85.8864C19.8716 86.0057 20.2494 86.0653 20.6538 86.0653C21.1244 86.0653 21.547 85.9891 21.9215 85.8366C22.296 85.6809 22.5927 85.4654 22.8114 85.1903C23.0302 84.9119 23.1396 84.5871 23.1396 84.2159C23.1396 83.8778 23.0451 83.6027 22.8562 83.3906C22.6673 83.1785 22.4187 83.0062 22.1104 82.8736C21.8022 82.741 21.4691 82.625 21.1112 82.5256L19.8583 82.1676C19.0629 81.9389 18.4331 81.6125 17.9691 81.1882C17.5051 80.764 17.2731 80.2088 17.2731 79.5227C17.2731 78.9527 17.4272 78.4555 17.7354 78.0312C18.047 77.6037 18.4646 77.2723 18.9883 77.0369C19.5153 76.7983 20.1036 76.679 20.7532 76.679C21.4094 76.679 21.9928 76.7966 22.5032 77.032C23.0136 77.264 23.418 77.5821 23.7163 77.9865C24.0179 78.3909 24.177 78.8499 24.1935 79.3636H23.0004ZM29.7605 76.8182V87H28.5275V78.1108H28.4679L25.9821 79.7614V78.5085L28.5275 76.8182H29.7605ZM36.0098 87.1392C35.2607 87.1392 34.6227 86.9354 34.0957 86.5277C33.5687 86.1167 33.166 85.5218 32.8876 84.7429C32.6092 83.9607 32.47 83.0161 32.47 81.9091C32.47 80.8087 32.6092 79.8691 32.8876 79.0902C33.1693 78.308 33.5737 77.7114 34.1007 77.3004C34.631 76.8861 35.2673 76.679 36.0098 76.679C36.7522 76.679 37.3869 76.8861 37.9139 77.3004C38.4442 77.7114 38.8485 78.308 39.127 79.0902C39.4087 79.8691 39.5495 80.8087 39.5495 81.9091C39.5495 83.0161 39.4103 83.9607 39.1319 84.7429C38.8535 85.5218 38.4508 86.1167 37.9238 86.5277C37.3968 86.9354 36.7588 87.1392 36.0098 87.1392ZM36.0098 86.0455C36.7522 86.0455 37.3289 85.6875 37.7399 84.9716C38.1509 84.2557 38.3564 83.2348 38.3564 81.9091C38.3564 81.0275 38.2619 80.2768 38.073 79.657C37.8874 79.0372 37.6189 78.5649 37.2676 78.2401C36.9196 77.9152 36.5003 77.7528 36.0098 77.7528C35.274 77.7528 34.6989 78.1158 34.2846 78.8416C33.8703 79.5642 33.6632 80.5866 33.6632 81.9091C33.6632 82.7907 33.756 83.5398 33.9416 84.1562C34.1272 84.7727 34.394 85.2417 34.742 85.5632C35.0933 85.8847 35.5159 86.0455 36.0098 86.0455ZM42.5524 84.2159L42.5325 82.7642H42.7711L46.112 79.3636H47.5637L44.0041 82.9631H43.9047L42.5524 84.2159ZM41.4586 87V76.8182H42.6319V87H41.4586ZM46.3109 87L43.3279 83.2216L44.1632 82.4062L47.8024 87H46.3109Z" fill="#9F9F9F"/>
<line x1="64" y1="81.5" x2="680" y2="81.5" stroke="#F3F3F3"/>
<path d="M27.0373 124.273V111.545H27.8526V124.273H27.0373ZM29.7816 115.364C29.7219 114.86 29.48 114.469 29.0558 114.19C28.6315 113.912 28.1112 113.773 27.4947 113.773C27.0439 113.773 26.6495 113.846 26.3114 113.991C25.9767 114.137 25.7148 114.338 25.5259 114.593C25.3403 114.848 25.2475 115.138 25.2475 115.463C25.2475 115.735 25.3121 115.969 25.4414 116.164C25.574 116.356 25.743 116.517 25.9485 116.646C26.154 116.772 26.3694 116.877 26.5948 116.96C26.8202 117.039 27.0273 117.104 27.2163 117.153L28.2504 117.432C28.5155 117.501 28.8105 117.598 29.1353 117.72C29.4634 117.843 29.7766 118.01 30.0749 118.222C30.3765 118.431 30.6251 118.7 30.8207 119.028C31.0162 119.356 31.114 119.759 31.114 120.236C31.114 120.786 30.9698 121.283 30.6815 121.727C30.3964 122.171 29.9788 122.524 29.4286 122.786C28.8817 123.048 28.2172 123.179 27.435 123.179C26.7058 123.179 26.0745 123.061 25.5408 122.826C25.0105 122.591 24.5929 122.263 24.288 121.842C23.9864 121.421 23.8157 120.932 23.7759 120.375H25.0487C25.0818 120.759 25.2111 121.078 25.4364 121.33C25.6651 121.578 25.9535 121.764 26.3015 121.886C26.6528 122.006 27.0307 122.065 27.435 122.065C27.9057 122.065 28.3282 121.989 28.7028 121.837C29.0773 121.681 29.3739 121.465 29.5927 121.19C29.8114 120.912 29.9208 120.587 29.9208 120.216C29.9208 119.878 29.8263 119.603 29.6374 119.391C29.4485 119.179 29.1999 119.006 28.8917 118.874C28.5835 118.741 28.2504 118.625 27.8924 118.526L26.6396 118.168C25.8441 117.939 25.2144 117.612 24.7504 117.188C24.2863 116.764 24.0543 116.209 24.0543 115.523C24.0543 114.953 24.2085 114.455 24.5167 114.031C24.8282 113.604 25.2459 113.272 25.7695 113.037C26.2965 112.798 26.8848 112.679 27.5344 112.679C28.1907 112.679 28.774 112.797 29.2844 113.032C29.7949 113.264 30.1992 113.582 30.4975 113.987C30.7991 114.391 30.9582 114.85 30.9748 115.364H29.7816ZM32.9622 123V122.105L36.323 118.426C36.7174 117.995 37.0422 117.621 37.2974 117.303C37.5526 116.981 37.7415 116.679 37.8642 116.398C37.9901 116.113 38.0531 115.814 38.0531 115.503C38.0531 115.145 37.9669 114.835 37.7946 114.573C37.6255 114.311 37.3935 114.109 37.0985 113.967C36.8036 113.824 36.4721 113.753 36.1042 113.753C35.7131 113.753 35.3717 113.834 35.0801 113.996C34.7917 114.156 34.568 114.379 34.4089 114.668C34.2531 114.956 34.1752 115.294 34.1752 115.682H33.002C33.002 115.085 33.1395 114.562 33.4146 114.111C33.6897 113.66 34.0642 113.309 34.5382 113.057C35.0154 112.805 35.5507 112.679 36.144 112.679C36.7406 112.679 37.2692 112.805 37.7299 113.057C38.1906 113.309 38.5519 113.648 38.8137 114.076C39.0756 114.504 39.2065 114.979 39.2065 115.503C39.2065 115.877 39.1386 116.244 39.0027 116.602C38.8701 116.956 38.6381 117.352 38.3066 117.79C37.9785 118.224 37.5228 118.754 36.9395 119.381L34.6525 121.827V121.906H39.3855V123H32.9622ZM42.5524 120.216L42.5325 118.764H42.7711L46.112 115.364H47.5637L44.0041 118.963H43.9047L42.5524 120.216ZM41.4586 123V112.818H42.6319V123H41.4586ZM46.3109 123L43.3279 119.222L44.1632 118.406L47.8024 123H46.3109Z" fill="#9F9F9F"/>
<line x1="64" y1="117.5" x2="680" y2="117.5" stroke="#F3F3F3"/>
<path d="M34.3791 160.273V147.545H35.1944V160.273H34.3791ZM37.1234 151.364C37.0637 150.86 36.8218 150.469 36.3975 150.19C35.9733 149.912 35.4529 149.773 34.8365 149.773C34.3857 149.773 33.9913 149.846 33.6532 149.991C33.3185 150.137 33.0566 150.338 32.8677 150.593C32.6821 150.848 32.5893 151.138 32.5893 151.463C32.5893 151.735 32.6539 151.969 32.7832 152.164C32.9158 152.356 33.0848 152.517 33.2903 152.646C33.4958 152.772 33.7112 152.877 33.9366 152.96C34.162 153.039 34.3691 153.104 34.5581 153.153L35.5922 153.432C35.8573 153.501 36.1523 153.598 36.4771 153.72C36.8052 153.843 37.1184 154.01 37.4167 154.222C37.7183 154.431 37.9669 154.7 38.1625 155.028C38.358 155.356 38.4558 155.759 38.4558 156.236C38.4558 156.786 38.3116 157.283 38.0233 157.727C37.7382 158.171 37.3206 158.524 36.7704 158.786C36.2235 159.048 35.559 159.179 34.7768 159.179C34.0476 159.179 33.4163 159.061 32.8826 158.826C32.3523 158.591 31.9347 158.263 31.6298 157.842C31.3282 157.421 31.1575 156.932 31.1177 156.375H32.3904C32.4236 156.759 32.5529 157.078 32.7782 157.33C33.0069 157.578 33.2953 157.764 33.6433 157.886C33.9946 158.006 34.3725 158.065 34.7768 158.065C35.2475 158.065 35.67 157.989 36.0446 157.837C36.4191 157.681 36.7157 157.465 36.9345 157.19C37.1532 156.912 37.2626 156.587 37.2626 156.216C37.2626 155.878 37.1681 155.603 36.9792 155.391C36.7903 155.179 36.5417 155.006 36.2335 154.874C35.9252 154.741 35.5922 154.625 35.2342 154.526L33.9814 154.168C33.1859 153.939 32.5562 153.612 32.0922 153.188C31.6281 152.764 31.3961 152.209 31.3961 151.523C31.3961 150.953 31.5502 150.455 31.8585 150.031C32.17 149.604 32.5877 149.272 33.1113 149.037C33.6383 148.798 34.2266 148.679 34.8762 148.679C35.5325 148.679 36.1158 148.797 36.6262 149.032C37.1367 149.264 37.541 149.582 37.8393 149.987C38.1409 150.391 38.3 150.85 38.3166 151.364H37.1234ZM43.625 159.139C42.8759 159.139 42.2379 158.935 41.7109 158.528C41.1839 158.117 40.7813 157.522 40.5028 156.743C40.2244 155.961 40.0852 155.016 40.0852 153.909C40.0852 152.809 40.2244 151.869 40.5028 151.09C40.7846 150.308 41.1889 149.711 41.7159 149.3C42.2462 148.886 42.8826 148.679 43.625 148.679C44.3674 148.679 45.0021 148.886 45.5291 149.3C46.0594 149.711 46.4638 150.308 46.7422 151.09C47.0239 151.869 47.1648 152.809 47.1648 153.909C47.1648 155.016 47.0256 155.961 46.7472 156.743C46.4688 157.522 46.0661 158.117 45.5391 158.528C45.0121 158.935 44.3741 159.139 43.625 159.139ZM43.625 158.045C44.3674 158.045 44.9441 157.687 45.3551 156.972C45.7661 156.256 45.9716 155.235 45.9716 153.909C45.9716 153.027 45.8771 152.277 45.6882 151.657C45.5026 151.037 45.2341 150.565 44.8828 150.24C44.5348 149.915 44.1155 149.753 43.625 149.753C42.8892 149.753 42.3142 150.116 41.8999 150.842C41.4856 151.564 41.2784 152.587 41.2784 153.909C41.2784 154.791 41.3712 155.54 41.5568 156.156C41.7424 156.773 42.0092 157.242 42.3572 157.563C42.7086 157.885 43.1312 158.045 43.625 158.045Z" fill="#9F9F9F"/>
<line x1="64" y1="153.5" x2="680" y2="153.5" stroke="#F3F3F3"/>
<path d="M86 51C86 48.7909 87.7909 47 90 47H98C100.209 47 102 48.7909 102 51V154H86V51Z" fill="#E8E8E8"/>
<path d="M110 21C110 18.7909 111.791 17 114 17H122C124.209 17 126 18.7909 126 21V154H110V21Z" fill="#299D91"/>
<path d="M88.7859 168.818V179H87.5529V170.111H87.4933L85.0075 171.761V170.509L87.5529 168.818H88.7859ZM92.0323 179L96.5863 169.991V169.912H91.3363V168.818H97.859V169.972L93.3249 179H92.0323ZM109.397 171.364C109.337 170.86 109.095 170.469 108.671 170.19C108.247 169.912 107.726 169.773 107.11 169.773C106.659 169.773 106.265 169.846 105.927 169.991C105.592 170.137 105.33 170.338 105.141 170.593C104.956 170.848 104.863 171.138 104.863 171.463C104.863 171.735 104.927 171.969 105.057 172.164C105.189 172.356 105.358 172.517 105.564 172.646C105.769 172.772 105.985 172.877 106.21 172.96C106.435 173.039 106.643 173.104 106.831 173.153L107.866 173.432C108.131 173.501 108.426 173.598 108.751 173.72C109.079 173.843 109.392 174.01 109.69 174.222C109.992 174.431 110.24 174.7 110.436 175.028C110.631 175.356 110.729 175.759 110.729 176.236C110.729 176.786 110.585 177.283 110.297 177.727C110.012 178.171 109.594 178.524 109.044 178.786C108.497 179.048 107.832 179.179 107.05 179.179C106.321 179.179 105.69 179.061 105.156 178.826C104.626 178.591 104.208 178.263 103.903 177.842C103.602 177.421 103.431 176.932 103.391 176.375H104.664C104.697 176.759 104.826 177.078 105.052 177.33C105.28 177.578 105.569 177.764 105.917 177.886C106.268 178.006 106.646 178.065 107.05 178.065C107.521 178.065 107.943 177.989 108.318 177.837C108.693 177.681 108.989 177.465 109.208 177.19C109.427 176.912 109.536 176.587 109.536 176.216C109.536 175.878 109.442 175.603 109.253 175.391C109.064 175.179 108.815 175.006 108.507 174.874C108.199 174.741 107.866 174.625 107.508 174.526L106.255 174.168C105.459 173.939 104.83 173.612 104.366 173.188C103.902 172.764 103.67 172.209 103.67 171.523C103.67 170.953 103.824 170.455 104.132 170.031C104.443 169.604 104.861 169.272 105.385 169.037C105.912 168.798 106.5 168.679 107.15 168.679C107.806 168.679 108.389 168.797 108.9 169.032C109.41 169.264 109.814 169.582 110.113 169.987C110.414 170.391 110.573 170.85 110.59 171.364H109.397ZM117.41 175.878V171.364H118.583V179H117.41V177.707H117.33C117.151 178.095 116.873 178.425 116.495 178.697C116.117 178.965 115.64 179.099 115.063 179.099C114.586 179.099 114.162 178.995 113.79 178.786C113.419 178.574 113.128 178.256 112.915 177.832C112.703 177.404 112.597 176.866 112.597 176.216V171.364H113.771V176.136C113.771 176.693 113.926 177.137 114.238 177.469C114.553 177.8 114.954 177.966 115.441 177.966C115.733 177.966 116.029 177.891 116.331 177.742C116.636 177.593 116.891 177.364 117.097 177.056C117.305 176.748 117.41 176.355 117.41 175.878ZM121.905 174.406V179H120.732V171.364H121.866V172.557H121.965C122.144 172.169 122.416 171.857 122.78 171.622C123.145 171.384 123.616 171.264 124.192 171.264C124.709 171.264 125.162 171.37 125.55 171.582C125.937 171.791 126.239 172.109 126.454 172.537C126.67 172.961 126.778 173.498 126.778 174.148V179H125.604V174.227C125.604 173.627 125.448 173.16 125.137 172.825C124.825 172.487 124.398 172.318 123.854 172.318C123.48 172.318 123.145 172.399 122.85 172.562C122.558 172.724 122.328 172.961 122.159 173.273C121.99 173.584 121.905 173.962 121.905 174.406Z" fill="#9F9F9F"/>
<path d="M170 77C170 74.7909 171.791 73 174 73H182C184.209 73 186 74.7909 186 77V154H170V77Z" fill="#E8E8E8"/>
<path d="M194 66C194 63.7909 195.791 62 198 62H206C208.209 62 210 63.7909 210 66V154H194V66Z" fill="#299D91"/>
<path d="M170.598 168.818V179H169.365V170.111H169.306L166.82 171.761V170.509L169.365 168.818H170.598ZM176.788 179.139C176.105 179.139 175.502 179.018 174.978 178.776C174.458 178.531 174.052 178.195 173.76 177.767C173.469 177.336 173.324 176.846 173.328 176.295C173.324 175.865 173.409 175.467 173.581 175.102C173.754 174.734 173.989 174.428 174.287 174.183C174.589 173.934 174.925 173.777 175.297 173.71V173.651C174.809 173.525 174.422 173.251 174.133 172.83C173.845 172.406 173.702 171.924 173.706 171.384C173.702 170.866 173.833 170.404 174.098 169.996C174.364 169.589 174.728 169.267 175.192 169.032C175.659 168.797 176.191 168.679 176.788 168.679C177.378 168.679 177.905 168.797 178.369 169.032C178.833 169.267 179.198 169.589 179.463 169.996C179.731 170.404 179.867 170.866 179.87 171.384C179.867 171.924 179.72 172.406 179.428 172.83C179.14 173.251 178.757 173.525 178.279 173.651V173.71C178.647 173.777 178.979 173.934 179.274 174.183C179.569 174.428 179.804 174.734 179.98 175.102C180.155 175.467 180.245 175.865 180.248 176.295C180.245 176.846 180.096 177.336 179.801 177.767C179.509 178.195 179.103 178.531 178.583 178.776C178.066 179.018 177.467 179.139 176.788 179.139ZM176.788 178.045C177.249 178.045 177.646 177.971 177.981 177.822C178.316 177.673 178.574 177.462 178.757 177.19C178.939 176.919 179.032 176.6 179.035 176.236C179.032 175.851 178.932 175.512 178.737 175.217C178.541 174.922 178.275 174.69 177.936 174.521C177.602 174.352 177.219 174.267 176.788 174.267C176.354 174.267 175.966 174.352 175.625 174.521C175.287 174.69 175.02 174.922 174.824 175.217C174.632 175.512 174.538 175.851 174.541 176.236C174.538 176.6 174.625 176.919 174.804 177.19C174.987 177.462 175.247 177.673 175.585 177.822C175.923 177.971 176.324 178.045 176.788 178.045ZM176.788 173.213C177.153 173.213 177.476 173.14 177.757 172.994C178.042 172.848 178.266 172.645 178.429 172.383C178.591 172.121 178.674 171.814 178.677 171.463C178.674 171.118 178.593 170.818 178.434 170.563C178.275 170.305 178.054 170.106 177.772 169.967C177.491 169.824 177.163 169.753 176.788 169.753C176.407 169.753 176.074 169.824 175.789 169.967C175.504 170.106 175.283 170.305 175.127 170.563C174.972 170.818 174.895 171.118 174.899 171.463C174.895 171.814 174.973 172.121 175.132 172.383C175.295 172.645 175.519 172.848 175.804 172.994C176.089 173.14 176.417 173.213 176.788 173.213ZM186.27 168.818H187.742L191.202 177.27H191.321L194.781 168.818H196.253V179H195.1V171.264H195L191.818 179H190.705L187.523 171.264H187.423V179H186.27V168.818ZM201.668 179.159C200.979 179.159 200.374 178.995 199.854 178.667C199.337 178.339 198.932 177.88 198.641 177.29C198.352 176.7 198.208 176.01 198.208 175.222C198.208 174.426 198.352 173.732 198.641 173.138C198.932 172.545 199.337 172.085 199.854 171.756C200.374 171.428 200.979 171.264 201.668 171.264C202.358 171.264 202.961 171.428 203.478 171.756C203.998 172.085 204.403 172.545 204.691 173.138C204.983 173.732 205.129 174.426 205.129 175.222C205.129 176.01 204.983 176.7 204.691 177.29C204.403 177.88 203.998 178.339 203.478 178.667C202.961 178.995 202.358 179.159 201.668 179.159ZM201.668 178.105C202.192 178.105 202.623 177.971 202.961 177.702C203.299 177.434 203.549 177.081 203.712 176.643C203.874 176.206 203.955 175.732 203.955 175.222C203.955 174.711 203.874 174.236 203.712 173.795C203.549 173.354 203.299 172.998 202.961 172.726C202.623 172.454 202.192 172.318 201.668 172.318C201.145 172.318 200.714 172.454 200.376 172.726C200.038 172.998 199.787 173.354 199.625 173.795C199.463 174.236 199.381 174.711 199.381 175.222C199.381 175.732 199.463 176.206 199.625 176.643C199.787 177.081 200.038 177.434 200.376 177.702C200.714 177.971 201.145 178.105 201.668 178.105ZM208.093 174.406V179H206.92V171.364H208.053V172.557H208.153C208.331 172.169 208.603 171.857 208.968 171.622C209.332 171.384 209.803 171.264 210.38 171.264C210.897 171.264 211.349 171.37 211.737 171.582C212.125 171.791 212.426 172.109 212.642 172.537C212.857 172.961 212.965 173.498 212.965 174.148V179H211.792V174.227C211.792 173.627 211.636 173.16 211.324 172.825C211.013 172.487 210.585 172.318 210.042 172.318C209.667 172.318 209.332 172.399 209.037 172.562C208.746 172.724 208.515 172.961 208.346 173.273C208.177 173.584 208.093 173.962 208.093 174.406Z" fill="#9F9F9F"/>
<path d="M254 51C254 48.7909 255.791 47 258 47H266C268.209 47 270 48.7909 270 51V154H254V51Z" fill="#E8E8E8"/>
<path d="M278 94C278 91.7909 279.791 90 282 90H290C292.209 90 294 91.7909 294 94V154H278V94Z" fill="#299D91"/>
<path d="M256.929 168.818V179H255.696V170.111H255.637L253.151 171.761V170.509L255.696 168.818H256.929ZM263.099 168.679C263.517 168.682 263.934 168.762 264.352 168.918C264.77 169.073 265.151 169.332 265.495 169.693C265.84 170.051 266.117 170.54 266.326 171.16C266.535 171.78 266.639 172.557 266.639 173.491C266.639 174.396 266.553 175.2 266.38 175.903C266.211 176.602 265.966 177.192 265.645 177.673C265.326 178.153 264.939 178.518 264.481 178.766C264.027 179.015 263.513 179.139 262.94 179.139C262.37 179.139 261.861 179.027 261.414 178.801C260.97 178.572 260.605 178.256 260.32 177.852C260.038 177.444 259.858 176.972 259.778 176.435H260.991C261.101 176.902 261.318 177.288 261.642 177.593C261.971 177.895 262.403 178.045 262.94 178.045C263.726 178.045 264.345 177.702 264.799 177.016C265.257 176.33 265.486 175.361 265.486 174.108H265.406C265.22 174.386 265 174.627 264.745 174.829C264.49 175.031 264.206 175.187 263.895 175.296C263.583 175.406 263.252 175.46 262.9 175.46C262.317 175.46 261.782 175.316 261.294 175.028C260.811 174.736 260.423 174.337 260.131 173.83C259.843 173.319 259.699 172.736 259.699 172.08C259.699 171.456 259.838 170.886 260.116 170.369C260.398 169.849 260.792 169.435 261.299 169.126C261.81 168.818 262.41 168.669 263.099 168.679ZM263.099 169.773C262.682 169.773 262.305 169.877 261.971 170.086C261.639 170.291 261.376 170.57 261.18 170.921C260.988 171.269 260.892 171.655 260.892 172.08C260.892 172.504 260.985 172.89 261.17 173.238C261.359 173.583 261.616 173.858 261.941 174.063C262.269 174.265 262.642 174.366 263.059 174.366C263.374 174.366 263.668 174.305 263.939 174.183C264.211 174.057 264.448 173.886 264.65 173.67C264.856 173.452 265.017 173.205 265.133 172.93C265.249 172.651 265.307 172.361 265.307 172.06C265.307 171.662 265.21 171.289 265.018 170.941C264.829 170.593 264.567 170.311 264.233 170.096C263.901 169.88 263.523 169.773 263.099 169.773ZM272.154 169.912V168.818H279.79V169.912H276.588V179H275.355V169.912H272.154ZM285.307 175.878V171.364H286.481V179H285.307V177.707H285.228C285.049 178.095 284.77 178.425 284.392 178.697C284.015 178.965 283.537 179.099 282.961 179.099C282.483 179.099 282.059 178.995 281.688 178.786C281.317 178.574 281.025 178.256 280.813 177.832C280.601 177.404 280.495 176.866 280.495 176.216V171.364H281.668V176.136C281.668 176.693 281.824 177.137 282.135 177.469C282.45 177.8 282.851 177.966 283.339 177.966C283.63 177.966 283.927 177.891 284.228 177.742C284.533 177.593 284.789 177.364 284.994 177.056C285.203 176.748 285.307 176.355 285.307 175.878ZM291.831 179.159C291.095 179.159 290.461 178.997 289.927 178.672C289.397 178.344 288.987 177.886 288.699 177.3C288.414 176.71 288.272 176.024 288.272 175.241C288.272 174.459 288.414 173.77 288.699 173.173C288.987 172.573 289.389 172.106 289.902 171.771C290.419 171.433 291.023 171.264 291.712 171.264C292.11 171.264 292.502 171.33 292.89 171.463C293.278 171.596 293.631 171.811 293.949 172.109C294.267 172.404 294.521 172.795 294.71 173.283C294.899 173.77 294.993 174.37 294.993 175.082V175.58H289.107V174.565H293.8C293.8 174.134 293.714 173.75 293.541 173.412C293.372 173.074 293.13 172.807 292.816 172.612C292.504 172.416 292.136 172.318 291.712 172.318C291.245 172.318 290.84 172.434 290.499 172.666C290.161 172.895 289.901 173.193 289.718 173.561C289.536 173.929 289.445 174.323 289.445 174.744V175.42C289.445 175.997 289.544 176.486 289.743 176.887C289.945 177.285 290.225 177.588 290.583 177.797C290.941 178.002 291.357 178.105 291.831 178.105C292.139 178.105 292.418 178.062 292.666 177.976C292.918 177.886 293.135 177.754 293.318 177.578C293.5 177.399 293.641 177.177 293.74 176.912L294.874 177.23C294.755 177.615 294.554 177.953 294.272 178.244C293.991 178.533 293.643 178.758 293.228 178.92C292.814 179.08 292.348 179.159 291.831 179.159Z" fill="#9F9F9F"/>
<path d="M338 51C338 48.7909 339.791 47 342 47H350C352.209 47 354 48.7909 354 51V154H338V51Z" fill="#E8E8E8"/>
<path d="M362 44C362 41.7909 363.791 40 366 40H374C376.209 40 378 41.7909 378 44V154H362V44Z" fill="#299D91"/>
<path d="M333.761 179V178.105L337.122 174.426C337.516 173.995 337.841 173.621 338.096 173.303C338.351 172.981 338.54 172.679 338.663 172.398C338.789 172.113 338.852 171.814 338.852 171.503C338.852 171.145 338.766 170.835 338.593 170.573C338.424 170.311 338.192 170.109 337.897 169.967C337.602 169.824 337.271 169.753 336.903 169.753C336.512 169.753 336.171 169.834 335.879 169.996C335.591 170.156 335.367 170.379 335.208 170.668C335.052 170.956 334.974 171.294 334.974 171.682H333.801C333.801 171.085 333.938 170.562 334.213 170.111C334.489 169.66 334.863 169.309 335.337 169.057C335.814 168.805 336.35 168.679 336.943 168.679C337.539 168.679 338.068 168.805 338.529 169.057C338.989 169.309 339.351 169.648 339.613 170.076C339.874 170.504 340.005 170.979 340.005 171.503C340.005 171.877 339.937 172.244 339.801 172.602C339.669 172.956 339.437 173.352 339.105 173.79C338.777 174.224 338.322 174.754 337.738 175.381L335.451 177.827V177.906H340.184V179H333.761ZM345.559 179.139C344.81 179.139 344.172 178.935 343.645 178.528C343.118 178.117 342.715 177.522 342.436 176.743C342.158 175.961 342.019 175.016 342.019 173.909C342.019 172.809 342.158 171.869 342.436 171.09C342.718 170.308 343.123 169.711 343.65 169.3C344.18 168.886 344.816 168.679 345.559 168.679C346.301 168.679 346.936 168.886 347.463 169.3C347.993 169.711 348.397 170.308 348.676 171.09C348.958 171.869 349.098 172.809 349.098 173.909C349.098 175.016 348.959 175.961 348.681 176.743C348.402 177.522 348 178.117 347.473 178.528C346.946 178.935 346.308 179.139 345.559 179.139ZM345.559 178.045C346.301 178.045 346.878 177.687 347.289 176.972C347.7 176.256 347.905 175.235 347.905 173.909C347.905 173.027 347.811 172.277 347.622 171.657C347.436 171.037 347.168 170.565 346.816 170.24C346.468 169.915 346.049 169.753 345.559 169.753C344.823 169.753 344.248 170.116 343.833 170.842C343.419 171.564 343.212 172.587 343.212 173.909C343.212 174.791 343.305 175.54 343.49 176.156C343.676 176.773 343.943 177.242 344.291 177.563C344.642 177.885 345.065 178.045 345.559 178.045ZM356.953 179L354.169 168.818H355.422L357.55 177.111H357.65L359.817 168.818H361.209L363.377 177.111H363.476L365.604 168.818H366.857L364.073 179H362.8L360.553 170.886H360.473L358.226 179H356.953ZM370.725 179.159C369.989 179.159 369.354 178.997 368.821 178.672C368.29 178.344 367.881 177.886 367.593 177.3C367.308 176.71 367.165 176.024 367.165 175.241C367.165 174.459 367.308 173.77 367.593 173.173C367.881 172.573 368.282 172.106 368.796 171.771C369.313 171.433 369.916 171.264 370.605 171.264C371.003 171.264 371.396 171.33 371.784 171.463C372.172 171.596 372.525 171.811 372.843 172.109C373.161 172.404 373.414 172.795 373.603 173.283C373.792 173.77 373.887 174.37 373.887 175.082V175.58H368V174.565H372.694C372.694 174.134 372.607 173.75 372.435 173.412C372.266 173.074 372.024 172.807 371.709 172.612C371.398 172.416 371.03 172.318 370.605 172.318C370.138 172.318 369.734 172.434 369.392 172.666C369.054 172.895 368.794 173.193 368.612 173.561C368.43 173.929 368.338 174.323 368.338 174.744V175.42C368.338 175.997 368.438 176.486 368.637 176.887C368.839 177.285 369.119 177.588 369.477 177.797C369.835 178.002 370.251 178.105 370.725 178.105C371.033 178.105 371.311 178.062 371.56 177.976C371.812 177.886 372.029 177.754 372.211 177.578C372.394 177.399 372.534 177.177 372.634 176.912L373.767 177.23C373.648 177.615 373.448 177.953 373.166 178.244C372.884 178.533 372.536 178.758 372.122 178.92C371.708 179.08 371.242 179.159 370.725 179.159ZM378.555 179.159C377.919 179.159 377.357 178.998 376.87 178.677C376.382 178.352 376.001 177.895 375.726 177.305C375.451 176.711 375.314 176.01 375.314 175.202C375.314 174.4 375.451 173.704 375.726 173.114C376.001 172.524 376.384 172.068 376.875 171.746C377.365 171.425 377.932 171.264 378.575 171.264C379.072 171.264 379.465 171.347 379.753 171.513C380.045 171.675 380.267 171.861 380.419 172.07C380.575 172.275 380.696 172.444 380.782 172.577H380.882V168.818H382.055V179H380.922V177.827H380.782C380.696 177.966 380.574 178.142 380.414 178.354C380.255 178.562 380.028 178.75 379.733 178.915C379.438 179.078 379.046 179.159 378.555 179.159ZM378.714 178.105C379.185 178.105 379.583 177.982 379.907 177.737C380.232 177.489 380.479 177.146 380.648 176.708C380.817 176.267 380.902 175.759 380.902 175.182C380.902 174.612 380.819 174.113 380.653 173.685C380.487 173.254 380.242 172.92 379.917 172.681C379.592 172.439 379.191 172.318 378.714 172.318C378.217 172.318 377.803 172.446 377.471 172.701C377.143 172.953 376.896 173.296 376.73 173.73C376.568 174.161 376.487 174.645 376.487 175.182C376.487 175.725 376.57 176.219 376.735 176.663C376.904 177.104 377.153 177.455 377.481 177.717C377.813 177.976 378.224 178.105 378.714 178.105Z" fill="#9F9F9F"/>
<path d="M422 68C422 65.7909 423.791 64 426 64H434C436.209 64 438 65.7909 438 68V154H422V68Z" fill="#E8E8E8"/>
<path d="M446 45C446 42.7909 447.791 41 450 41H458C460.209 41 462 42.7909 462 45V154H446V45Z" fill="#299D91"/>
<path d="M420.899 179V178.105L424.259 174.426C424.654 173.995 424.979 173.621 425.234 173.303C425.489 172.981 425.678 172.679 425.801 172.398C425.927 172.113 425.99 171.814 425.99 171.503C425.99 171.145 425.903 170.835 425.731 170.573C425.562 170.311 425.33 170.109 425.035 169.967C424.74 169.824 424.409 169.753 424.041 169.753C423.65 169.753 423.308 169.834 423.017 169.996C422.728 170.156 422.505 170.379 422.345 170.668C422.19 170.956 422.112 171.294 422.112 171.682H420.938C420.938 171.085 421.076 170.562 421.351 170.111C421.626 169.66 422.001 169.309 422.475 169.057C422.952 168.805 423.487 168.679 424.081 168.679C424.677 168.679 425.206 168.805 425.666 169.057C426.127 169.309 426.488 169.648 426.75 170.076C427.012 170.504 427.143 170.979 427.143 171.503C427.143 171.877 427.075 172.244 426.939 172.602C426.807 172.956 426.575 173.352 426.243 173.79C425.915 174.224 425.459 174.754 424.876 175.381L422.589 177.827V177.906H427.322V179H420.899ZM432.955 168.818V179H431.722V170.111H431.662L429.176 171.761V170.509L431.722 168.818H432.955ZM439.443 169.912V168.818H447.079V169.912H443.877V179H442.644V169.912H439.443ZM449.996 174.406V179H448.823V168.818H449.996V172.557H450.096C450.275 172.162 450.543 171.849 450.901 171.617C451.262 171.382 451.743 171.264 452.343 171.264C452.863 171.264 453.319 171.369 453.71 171.577C454.101 171.783 454.404 172.099 454.62 172.527C454.839 172.951 454.948 173.491 454.948 174.148V179H453.775V174.227C453.775 173.621 453.617 173.152 453.302 172.82C452.991 172.486 452.558 172.318 452.005 172.318C451.62 172.318 451.276 172.399 450.971 172.562C450.669 172.724 450.43 172.961 450.255 173.273C450.082 173.584 449.996 173.962 449.996 174.406ZM461.907 175.878V171.364H463.08V179H461.907V177.707H461.827C461.648 178.095 461.37 178.425 460.992 178.697C460.614 178.965 460.137 179.099 459.56 179.099C459.083 179.099 458.659 178.995 458.288 178.786C457.916 178.574 457.625 178.256 457.413 177.832C457.2 177.404 457.094 176.866 457.094 176.216V171.364H458.268V176.136C458.268 176.693 458.423 177.137 458.735 177.469C459.05 177.8 459.451 177.966 459.938 177.966C460.23 177.966 460.526 177.891 460.828 177.742C461.133 177.593 461.388 177.364 461.594 177.056C461.802 176.748 461.907 176.355 461.907 175.878Z" fill="#9F9F9F"/>
<path d="M506 105C506 102.791 507.791 101 510 101H518C520.209 101 522 102.791 522 105V154H506V105Z" fill="#E8E8E8"/>
<path d="M530 27C530 24.7909 531.791 23 534 23H542C544.209 23 546 24.7909 546 27V154H530V27Z" fill="#299D91"/>
<path d="M508.276 179V178.105L511.636 174.426C512.031 173.995 512.356 173.621 512.611 173.303C512.866 172.981 513.055 172.679 513.178 172.398C513.304 172.113 513.367 171.814 513.367 171.503C513.367 171.145 513.28 170.835 513.108 170.573C512.939 170.311 512.707 170.109 512.412 169.967C512.117 169.824 511.786 169.753 511.418 169.753C511.027 169.753 510.685 169.834 510.394 169.996C510.105 170.156 509.881 170.379 509.722 170.668C509.567 170.956 509.489 171.294 509.489 171.682H508.315C508.315 171.085 508.453 170.562 508.728 170.111C509.003 169.66 509.378 169.309 509.852 169.057C510.329 168.805 510.864 168.679 511.457 168.679C512.054 168.679 512.583 168.805 513.043 169.057C513.504 169.309 513.865 169.648 514.127 170.076C514.389 170.504 514.52 170.979 514.52 171.503C514.52 171.877 514.452 172.244 514.316 172.602C514.184 172.956 513.952 173.352 513.62 173.79C513.292 174.224 512.836 174.754 512.253 175.381L509.966 177.827V177.906H514.699V179H508.276ZM516.752 179V178.105L520.113 174.426C520.507 173.995 520.832 173.621 521.087 173.303C521.343 172.981 521.532 172.679 521.654 172.398C521.78 172.113 521.843 171.814 521.843 171.503C521.843 171.145 521.757 170.835 521.585 170.573C521.416 170.311 521.184 170.109 520.889 169.967C520.594 169.824 520.262 169.753 519.894 169.753C519.503 169.753 519.162 169.834 518.87 169.996C518.582 170.156 518.358 170.379 518.199 170.668C518.043 170.956 517.965 171.294 517.965 171.682H516.792C516.792 171.085 516.93 170.562 517.205 170.111C517.48 169.66 517.854 169.309 518.328 169.057C518.805 168.805 519.341 168.679 519.934 168.679C520.531 168.679 521.059 168.805 521.52 169.057C521.981 169.309 522.342 169.648 522.604 170.076C522.866 170.504 522.997 170.979 522.997 171.503C522.997 171.877 522.929 172.244 522.793 172.602C522.66 172.956 522.428 173.352 522.097 173.79C521.769 174.224 521.313 174.754 520.729 175.381L518.443 177.827V177.906H523.176V179H516.752ZM529.345 179V168.818H535.45V169.912H530.578V173.352H534.993V174.446H530.578V179H529.345ZM537.321 179V171.364H538.454V172.517H538.534C538.673 172.139 538.925 171.833 539.29 171.597C539.654 171.362 540.065 171.244 540.523 171.244C540.609 171.244 540.717 171.246 540.846 171.249C540.975 171.253 541.073 171.258 541.139 171.264V172.457C541.099 172.447 541.008 172.433 540.866 172.413C540.726 172.389 540.579 172.378 540.423 172.378C540.052 172.378 539.721 172.456 539.429 172.612C539.141 172.764 538.912 172.976 538.743 173.248C538.577 173.516 538.494 173.823 538.494 174.168V179H537.321ZM542.53 179V171.364H543.703V179H542.53ZM543.127 170.091C542.898 170.091 542.701 170.013 542.535 169.857C542.372 169.701 542.291 169.514 542.291 169.295C542.291 169.077 542.372 168.889 542.535 168.734C542.701 168.578 542.898 168.5 543.127 168.5C543.355 168.5 543.551 168.578 543.713 168.734C543.879 168.889 543.962 169.077 543.962 169.295C543.962 169.514 543.879 169.701 543.713 169.857C543.551 170.013 543.355 170.091 543.127 170.091Z" fill="#9F9F9F"/>
<path d="M590 71C590 68.7909 591.791 67 594 67H602C604.209 67 606 68.7909 606 71V154H590V71Z" fill="#E8E8E8"/>
<path d="M614 48C614 45.7909 615.791 44 618 44H626C628.209 44 630 45.7909 630 48V154H614V48Z" fill="#299D91"/>
<path d="M589.439 179V178.105L592.8 174.426C593.194 173.995 593.519 173.621 593.774 173.303C594.029 172.981 594.218 172.679 594.341 172.398C594.467 172.113 594.53 171.814 594.53 171.503C594.53 171.145 594.443 170.835 594.271 170.573C594.102 170.311 593.87 170.109 593.575 169.967C593.28 169.824 592.949 169.753 592.581 169.753C592.19 169.753 591.848 169.834 591.557 169.996C591.268 170.156 591.045 170.379 590.885 170.668C590.73 170.956 590.652 171.294 590.652 171.682H589.479C589.479 171.085 589.616 170.562 589.891 170.111C590.166 169.66 590.541 169.309 591.015 169.057C591.492 168.805 592.027 168.679 592.621 168.679C593.217 168.679 593.746 168.805 594.206 169.057C594.667 169.309 595.028 169.648 595.29 170.076C595.552 170.504 595.683 170.979 595.683 171.503C595.683 171.877 595.615 172.244 595.479 172.602C595.347 172.956 595.115 173.352 594.783 173.79C594.455 174.224 593.999 174.754 593.416 175.381L591.129 177.827V177.906H595.862V179H589.439ZM601.356 179.139C600.699 179.139 600.114 179.027 599.601 178.801C599.09 178.576 598.684 178.263 598.383 177.862C598.084 177.457 597.922 176.988 597.895 176.455H599.148C599.175 176.783 599.287 177.066 599.486 177.305C599.685 177.54 599.945 177.722 600.267 177.852C600.588 177.981 600.945 178.045 601.336 178.045C601.773 178.045 602.161 177.969 602.499 177.817C602.837 177.664 603.102 177.452 603.295 177.18C603.487 176.909 603.583 176.594 603.583 176.236C603.583 175.861 603.49 175.531 603.305 175.246C603.119 174.958 602.847 174.733 602.489 174.57C602.131 174.408 601.694 174.327 601.177 174.327H600.361V173.233H601.177C601.581 173.233 601.936 173.16 602.241 173.014C602.549 172.868 602.789 172.663 602.961 172.398C603.137 172.133 603.225 171.821 603.225 171.463C603.225 171.118 603.149 170.818 602.996 170.563C602.844 170.308 602.628 170.109 602.35 169.967C602.075 169.824 601.75 169.753 601.376 169.753C601.024 169.753 600.693 169.817 600.381 169.947C600.073 170.073 599.821 170.257 599.626 170.499C599.43 170.737 599.324 171.026 599.307 171.364H598.114C598.134 170.83 598.295 170.363 598.596 169.962C598.898 169.557 599.292 169.242 599.78 169.017C600.27 168.792 600.809 168.679 601.395 168.679C602.025 168.679 602.565 168.807 603.016 169.062C603.467 169.314 603.813 169.647 604.055 170.061C604.297 170.475 604.418 170.923 604.418 171.403C604.418 171.977 604.267 172.466 603.966 172.87C603.667 173.274 603.261 173.554 602.748 173.71V173.79C603.391 173.896 603.893 174.169 604.254 174.61C604.615 175.048 604.796 175.589 604.796 176.236C604.796 176.789 604.645 177.286 604.344 177.727C604.045 178.165 603.638 178.509 603.121 178.761C602.604 179.013 602.015 179.139 601.356 179.139ZM616.514 171.364C616.454 170.86 616.212 170.469 615.788 170.19C615.364 169.912 614.844 169.773 614.227 169.773C613.776 169.773 613.382 169.846 613.044 169.991C612.709 170.137 612.447 170.338 612.258 170.593C612.073 170.848 611.98 171.138 611.98 171.463C611.98 171.735 612.045 171.969 612.174 172.164C612.306 172.356 612.475 172.517 612.681 172.646C612.886 172.772 613.102 172.877 613.327 172.96C613.553 173.039 613.76 173.104 613.949 173.153L614.983 173.432C615.248 173.501 615.543 173.598 615.868 173.72C616.196 173.843 616.509 174.01 616.807 174.222C617.109 174.431 617.358 174.7 617.553 175.028C617.749 175.356 617.846 175.759 617.846 176.236C617.846 176.786 617.702 177.283 617.414 177.727C617.129 178.171 616.711 178.524 616.161 178.786C615.614 179.048 614.95 179.179 614.167 179.179C613.438 179.179 612.807 179.061 612.273 178.826C611.743 178.591 611.325 178.263 611.02 177.842C610.719 177.421 610.548 176.932 610.508 176.375H611.781C611.814 176.759 611.943 177.078 612.169 177.33C612.398 177.578 612.686 177.764 613.034 177.886C613.385 178.006 613.763 178.065 614.167 178.065C614.638 178.065 615.061 177.989 615.435 177.837C615.81 177.681 616.106 177.465 616.325 177.19C616.544 176.912 616.653 176.587 616.653 176.216C616.653 175.878 616.559 175.603 616.37 175.391C616.181 175.179 615.932 175.006 615.624 174.874C615.316 174.741 614.983 174.625 614.625 174.526L613.372 174.168C612.577 173.939 611.947 173.612 611.483 173.188C611.019 172.764 610.787 172.209 610.787 171.523C610.787 170.953 610.941 170.455 611.249 170.031C611.561 169.604 611.978 169.272 612.502 169.037C613.029 168.798 613.617 168.679 614.267 168.679C614.923 168.679 615.506 168.797 616.017 169.032C616.527 169.264 616.932 169.582 617.23 169.987C617.532 170.391 617.691 170.85 617.707 171.364H616.514ZM621.962 179.179C621.478 179.179 621.039 179.088 620.644 178.906C620.25 178.72 619.937 178.453 619.705 178.105C619.473 177.754 619.357 177.33 619.357 176.832C619.357 176.395 619.443 176.04 619.615 175.768C619.787 175.493 620.018 175.278 620.306 175.122C620.594 174.966 620.913 174.85 621.261 174.774C621.612 174.695 621.965 174.632 622.32 174.585C622.784 174.526 623.16 174.481 623.448 174.451C623.74 174.418 623.952 174.363 624.085 174.287C624.22 174.211 624.288 174.078 624.288 173.889V173.849C624.288 173.359 624.154 172.978 623.886 172.706C623.621 172.434 623.218 172.298 622.678 172.298C622.117 172.298 621.678 172.421 621.36 172.666C621.042 172.911 620.818 173.173 620.689 173.452L619.575 173.054C619.774 172.59 620.039 172.229 620.371 171.97C620.705 171.708 621.07 171.526 621.464 171.423C621.862 171.317 622.253 171.264 622.638 171.264C622.883 171.264 623.165 171.294 623.483 171.354C623.804 171.41 624.114 171.528 624.413 171.707C624.714 171.886 624.964 172.156 625.163 172.517C625.362 172.878 625.462 173.362 625.462 173.969V179H624.288V177.966H624.229C624.149 178.132 624.017 178.309 623.831 178.498C623.645 178.687 623.398 178.848 623.09 178.98C622.782 179.113 622.406 179.179 621.962 179.179ZM622.141 178.125C622.605 178.125 622.996 178.034 623.314 177.852C623.635 177.669 623.877 177.434 624.04 177.146C624.205 176.857 624.288 176.554 624.288 176.236V175.162C624.239 175.222 624.129 175.276 623.96 175.326C623.795 175.372 623.602 175.414 623.384 175.45C623.168 175.483 622.958 175.513 622.752 175.54C622.55 175.563 622.386 175.583 622.26 175.599C621.955 175.639 621.67 175.704 621.405 175.793C621.143 175.879 620.931 176.01 620.768 176.186C620.609 176.358 620.53 176.594 620.53 176.892C620.53 177.3 620.681 177.608 620.982 177.817C621.287 178.022 621.673 178.125 622.141 178.125ZM630.924 171.364V172.358H626.967V171.364H630.924ZM628.12 169.534H629.294V176.812C629.294 177.144 629.342 177.393 629.438 177.558C629.537 177.721 629.663 177.83 629.816 177.886C629.971 177.939 630.135 177.966 630.308 177.966C630.437 177.966 630.543 177.959 630.626 177.946C630.709 177.929 630.775 177.916 630.825 177.906L631.063 178.96C630.984 178.99 630.873 179.02 630.73 179.05C630.588 179.083 630.407 179.099 630.188 179.099C629.857 179.099 629.532 179.028 629.214 178.886C628.899 178.743 628.637 178.526 628.428 178.234C628.223 177.943 628.12 177.575 628.12 177.131V169.534Z" fill="#9F9F9F"/>
</svg>
