<svg width="40" height="40" viewBox="0 0 40 40" fill="none" xmlns="http://www.w3.org/2000/svg">
<rect width="40" height="40" rx="8" fill="#D2D2D2" fill-opacity="0.25"/>
<path d="M14 30C13.45 30 12.979 29.804 12.587 29.412C12.195 29.02 11.9993 28.5493 12 28V16C12 15.45 12.196 14.979 12.588 14.587C12.98 14.195 13.4507 13.9993 14 14H16C16 12.9 16.3917 11.9583 17.175 11.175C17.9583 10.3917 18.9 10 20 10C21.1 10 22.0417 10.3917 22.825 11.175C23.6083 11.9583 24 12.9 24 14H26C26.55 14 27.021 14.196 27.413 14.588C27.805 14.98 28.0007 15.4507 28 16V28C28 28.55 27.804 29.021 27.412 29.413C27.02 29.805 26.5493 30.0007 26 30H14ZM14 28H26V16H24V18C24 18.2833 23.904 18.521 23.712 18.713C23.52 18.905 23.2827 19.0007 23 19C22.7167 19 22.479 18.904 22.287 18.712C22.095 18.52 21.9993 18.2827 22 18V16H18V18C18 18.2833 17.904 18.521 17.712 18.713C17.52 18.905 17.2827 19.0007 17 19C16.7167 19 16.479 18.904 16.287 18.712C16.095 18.52 15.9993 18.2827 16 18V16H14V28ZM18 14H22C22 13.45 21.804 12.979 21.412 12.587C21.02 12.195 20.5493 11.9993 20 12C19.45 12 18.979 12.196 18.587 12.588C18.195 12.98 17.9993 13.4507 18 14Z" fill="#666666"/>
</svg>
