<svg width="40" height="56" viewBox="0 0 40 56" fill="none" xmlns="http://www.w3.org/2000/svg">
<rect width="40" height="56" rx="8" fill="#D2D2D2" fill-opacity="0.25"/>
<path d="M14 38C13.45 38 12.979 37.804 12.587 37.412C12.195 37.02 11.9993 36.5493 12 36V24C12 23.45 12.196 22.979 12.588 22.587C12.98 22.195 13.4507 21.9993 14 22H16C16 20.9 16.3917 19.9583 17.175 19.175C17.9583 18.3917 18.9 18 20 18C21.1 18 22.0417 18.3917 22.825 19.175C23.6083 19.9583 24 20.9 24 22H26C26.55 22 27.021 22.196 27.413 22.588C27.805 22.98 28.0007 23.4507 28 24V36C28 36.55 27.804 37.021 27.412 37.413C27.02 37.805 26.5493 38.0007 26 38H14ZM14 36H26V24H24V26C24 26.2833 23.904 26.521 23.712 26.713C23.52 26.905 23.2827 27.0007 23 27C22.7167 27 22.479 26.904 22.287 26.712C22.095 26.52 21.9993 26.2827 22 26V24H18V26C18 26.2833 17.904 26.521 17.712 26.713C17.52 26.905 17.2827 27.0007 17 27C16.7167 27 16.479 26.904 16.287 26.712C16.095 26.52 15.9993 26.2827 16 26V24H14V36ZM18 22H22C22 21.45 21.804 20.979 21.412 20.587C21.02 20.195 20.5493 19.9993 20 20C19.45 20 18.979 20.196 18.587 20.588C18.195 20.98 17.9993 21.4507 18 22Z" fill="#878787"/>
</svg>
