<svg width="40" height="40" viewBox="0 0 40 40" fill="none" xmlns="http://www.w3.org/2000/svg">
<rect width="40" height="40" rx="8" fill="#D2D2D2" fill-opacity="0.25"/>
<path d="M18 30V23.65L19.625 19H28.375L30 23.65V30H28V28.5H20V30H18ZM20 22.5H28L27.3 20.5H20.7L20 22.5ZM21 26.5C21.2833 26.5 21.521 26.404 21.713 26.212C21.9043 26.0207 22 25.7833 22 25.5C22 25.2167 21.9043 24.9793 21.713 24.788C21.521 24.596 21.2833 24.5 21 24.5C20.7167 24.5 20.4793 24.596 20.288 24.788C20.096 24.9793 20 25.2167 20 25.5C20 25.7833 20.096 26.0207 20.288 26.212C20.4793 26.404 20.7167 26.5 21 26.5ZM27 26.5C27.2833 26.5 27.5207 26.404 27.712 26.212C27.904 26.0207 28 25.7833 28 25.5C28 25.2167 27.904 24.9793 27.712 24.788C27.5207 24.596 27.2833 24.5 27 24.5C26.7167 24.5 26.4793 24.596 26.288 24.788C26.096 24.9793 26 25.2167 26 25.5C26 25.7833 26.096 26.0207 26.288 26.212C26.4793 26.404 26.7167 26.5 27 26.5ZM14 22V20H16V22H14ZM19 16V14H21V16H19ZM14 26V24H16V26H14ZM14 30V28H16V30H14ZM10 30V16H15V10H25V17H23V12H17V18H12V30H10ZM19.5 27H28.5V24H19.5V27Z" fill="#666666"/>
</svg>
