<svg width="40" height="56" viewBox="0 0 40 56" fill="none" xmlns="http://www.w3.org/2000/svg">
<rect width="40" height="56" rx="8" fill="#D2D2D2" fill-opacity="0.25"/>
<path d="M18 38V31.65L19.625 27H28.375L30 31.65V38H28V36.5H20V38H18ZM20 30.5H28L27.3 28.5H20.7L20 30.5ZM21 34.5C21.2833 34.5 21.521 34.404 21.713 34.212C21.9043 34.0207 22 33.7833 22 33.5C22 33.2167 21.9043 32.9793 21.713 32.788C21.521 32.596 21.2833 32.5 21 32.5C20.7167 32.5 20.4793 32.596 20.288 32.788C20.096 32.9793 20 33.2167 20 33.5C20 33.7833 20.096 34.0207 20.288 34.212C20.4793 34.404 20.7167 34.5 21 34.5ZM27 34.5C27.2833 34.5 27.5207 34.404 27.712 34.212C27.904 34.0207 28 33.7833 28 33.5C28 33.2167 27.904 32.9793 27.712 32.788C27.5207 32.596 27.2833 32.5 27 32.5C26.7167 32.5 26.4793 32.596 26.288 32.788C26.096 32.9793 26 33.2167 26 33.5C26 33.7833 26.096 34.0207 26.288 34.212C26.4793 34.404 26.7167 34.5 27 34.5ZM14 30V28H16V30H14ZM19 24V22H21V24H19ZM14 34V32H16V34H14ZM14 38V36H16V38H14ZM10 38V24H15V18H25V25H23V20H17V26H12V38H10ZM19.5 35H28.5V32H19.5V35Z" fill="#878787"/>
</svg>
