<svg width="40" height="46" viewBox="0 0 40 46" fill="none" xmlns="http://www.w3.org/2000/svg">
<rect width="40" height="46" rx="8" fill="#D1D1D1"/>
<path d="M22.7503 18.46L20.0003 14.93L21.9703 14.54L24.7103 18.07L22.7503 18.46ZM29.6203 17.1L28.8403 13.18L24.9103 13.96L27.6503 17.5L29.6203 17.1ZM19.8103 19.05L17.0703 15.5L15.1003 15.91L17.8503 19.44L19.8103 19.05ZM12.1603 16.5L11.1803 16.69C10.9227 16.7408 10.6777 16.8419 10.4592 16.9876C10.2408 17.1333 10.0533 17.3207 9.90744 17.539C9.76158 17.7574 9.66025 18.0023 9.60926 18.2599C9.55828 18.5175 9.55864 18.7826 9.61032 19.04L10.0003 21L14.9003 20.03L12.1603 16.5ZM12.0003 31V23H28.0003V24.09C28.7203 24.21 29.3903 24.46 30.0003 24.81V21H10.0003V31C10.0003 31.5304 10.211 32.0391 10.5861 32.4142C10.9612 32.7893 11.4699 33 12.0003 33H21.8103C21.4603 32.39 21.2203 31.72 21.0903 31H12.0003ZM29.3403 26.84L25.7503 30.43L24.1603 28.84L23.0003 30L25.7503 33L30.5003 28.25L29.3403 26.84Z" fill="#525256"/>
</svg>
