<svg width="40" height="46" viewBox="0 0 40 46" fill="none" xmlns="http://www.w3.org/2000/svg">
<rect width="40" height="46" rx="8" fill="#D1D1D1"/>
<path d="M20 15.7778L26.75 20.7778V30.7778H13.25V20.7778L20 15.7778ZM20 13L11 19.6667V33H29V19.6667L20 13ZM19.4375 20.2222V23.5556H18.875V20.2222H17.75V23.5556H17.1875V20.2222H16.0625V23.5556C16.0625 24.4778 16.8162 25.2222 17.75 25.2222V29.6667H18.875V25.2222C19.8088 25.2222 20.5625 24.4778 20.5625 23.5556V20.2222H19.4375ZM21.125 22.4444V25.7778H22.25V29.6667H23.375V20.2222C22.1375 20.2222 21.125 21.2222 21.125 22.4444Z" fill="#525256"/>
</svg>
