<svg width="1052" height="184" viewBox="0 0 1052 184" fill="none" xmlns="http://www.w3.org/2000/svg">
<path d="M9.01403 16.2727V3.54545H9.82937V16.2727H9.01403ZM11.5645 7.4929C11.5114 7.02225 11.2927 6.65767 10.9082 6.39915C10.5237 6.13731 10.0398 6.00639 9.4565 6.00639C9.03889 6.00639 8.67762 6.07268 8.37269 6.20526C8.06777 6.33452 7.83079 6.51349 7.66175 6.74219C7.49603 6.96757 7.41317 7.22443 7.41317 7.51278C7.41317 7.75473 7.46952 7.96354 7.58221 8.1392C7.69821 8.31487 7.84902 8.46236 8.03462 8.58168C8.22354 8.69768 8.42572 8.79545 8.64116 8.875C8.85659 8.95123 9.06374 9.0142 9.26261 9.06392L10.2569 9.32244C10.5817 9.40199 10.9148 9.50971 11.2562 9.6456C11.5976 9.78149 11.9141 9.96046 12.2058 10.1825C12.4975 10.4046 12.7328 10.6797 12.9118 11.0078C13.094 11.3359 13.1852 11.7287 13.1852 12.1861C13.1852 12.7628 13.036 13.2749 12.7377 13.7223C12.4428 14.1697 12.0136 14.5227 11.4501 14.7812C10.89 15.0398 10.2122 15.169 9.41673 15.169C8.65442 15.169 7.99485 15.0481 7.43803 14.8061C6.88121 14.5642 6.44537 14.2211 6.1305 13.777C5.81564 13.3295 5.64163 12.7992 5.60849 12.1861H7.14968C7.17951 12.554 7.29883 12.8606 7.50764 13.1058C7.71976 13.3478 7.98988 13.5284 8.318 13.6477C8.64944 13.7637 9.01237 13.8217 9.40678 13.8217C9.84097 13.8217 10.2271 13.7538 10.5652 13.6179C10.9065 13.4787 11.175 13.2865 11.3706 13.0412C11.5661 12.7926 11.6639 12.5026 11.6639 12.1712C11.6639 11.8696 11.5777 11.6226 11.4054 11.4304C11.2363 11.2382 11.006 11.0791 10.7143 10.9531C10.426 10.8272 10.0995 10.7161 9.73491 10.62L8.53178 10.2919C7.71644 10.0698 7.07014 9.74337 6.59286 9.3125C6.1189 8.88163 5.88192 8.31155 5.88192 7.60227C5.88192 7.01562 6.04102 6.50355 6.3592 6.06605C6.67738 5.62855 7.10825 5.28883 7.65181 5.04688C8.19537 4.80161 8.80853 4.67898 9.4913 4.67898C10.1807 4.67898 10.7889 4.79995 11.3159 5.0419C11.8462 5.28385 12.2638 5.61695 12.5687 6.04119C12.8736 6.46212 13.0327 6.94602 13.046 7.4929H11.5645ZM14.8817 15V13.8864L18.3271 10.3168C18.695 9.92898 18.9982 9.58925 19.2369 9.29759C19.4788 9.0026 19.6594 8.72254 19.7788 8.45739C19.8981 8.19223 19.9577 7.91051 19.9577 7.61222C19.9577 7.27415 19.8782 6.98248 19.7191 6.73722C19.56 6.48864 19.3429 6.29806 19.0678 6.16548C18.7927 6.02959 18.4828 5.96165 18.1381 5.96165C17.7736 5.96165 17.4554 6.03622 17.1836 6.18537C16.9118 6.33452 16.703 6.54498 16.5572 6.81676C16.4113 7.08854 16.3384 7.40672 16.3384 7.77131H14.8718C14.8718 7.15151 15.0143 6.60961 15.2994 6.1456C15.5844 5.68158 15.9755 5.32197 16.4727 5.06676C16.9698 4.80824 17.5349 4.67898 18.168 4.67898C18.8076 4.67898 19.3711 4.80658 19.8583 5.06179C20.3488 5.31368 20.7317 5.65838 21.0067 6.09588C21.2818 6.53007 21.4194 7.0206 21.4194 7.56747C21.4194 7.94531 21.3481 8.31487 21.2056 8.67614C21.0664 9.0374 20.8228 9.4401 20.4748 9.88423C20.1268 10.325 19.6429 10.8603 19.0231 11.4901L16.9996 13.608V13.6825H21.5835V15H14.8817ZM26.8285 15.1392C26.2054 15.1392 25.6452 15.0199 25.1481 14.7812C24.6542 14.5393 24.2598 14.2079 23.9648 13.7869C23.6699 13.366 23.5124 12.8854 23.4925 12.3452H24.984C25.0205 12.7827 25.2144 13.1423 25.5657 13.424C25.917 13.7057 26.338 13.8466 26.8285 13.8466C27.2196 13.8466 27.5659 13.7571 27.8675 13.5781C28.1725 13.3958 28.4111 13.1456 28.5835 12.8274C28.7591 12.5092 28.8469 12.1463 28.8469 11.7386C28.8469 11.3243 28.7575 10.9548 28.5785 10.63C28.3995 10.3052 28.1526 10.05 27.8377 9.86435C27.5262 9.67874 27.1682 9.58428 26.7638 9.58097C26.4556 9.58097 26.1457 9.634 25.8342 9.74006C25.5226 9.84612 25.2707 9.98532 25.0785 10.1577L23.6715 9.94886L24.2433 4.81818H29.8413V6.13565H25.521L25.1978 8.98438H25.2575C25.4563 8.79214 25.7198 8.63139 26.0479 8.50213C26.3794 8.37287 26.734 8.30824 27.1119 8.30824C27.7317 8.30824 28.2835 8.45573 28.7674 8.75071C29.2546 9.04569 29.6374 9.44839 29.9158 9.95881C30.1976 10.4659 30.3368 11.0492 30.3335 11.7088C30.3368 12.3684 30.1876 12.9567 29.886 13.4737C29.5877 13.9908 29.1734 14.3984 28.6431 14.6967C28.1161 14.9917 27.5112 15.1392 26.8285 15.1392ZM35.6941 15.169C34.9086 15.1657 34.2374 14.9586 33.6806 14.5476C33.1238 14.1366 32.6979 13.5384 32.4029 12.7528C32.1079 11.9673 31.9604 11.0211 31.9604 9.91406C31.9604 8.81037 32.1079 7.86742 32.4029 7.08523C32.7012 6.30303 33.1287 5.70644 33.6855 5.29545C34.2457 4.88447 34.9152 4.67898 35.6941 4.67898C36.473 4.67898 37.1408 4.88613 37.6976 5.30043C38.2544 5.71141 38.6803 6.308 38.9753 7.0902C39.2736 7.86908 39.4228 8.81037 39.4228 9.91406C39.4228 11.0244 39.2753 11.9723 38.9803 12.7578C38.6853 13.54 38.2594 14.1383 37.7026 14.5526C37.1458 14.9635 36.4763 15.169 35.6941 15.169ZM35.6941 13.8416C36.3835 13.8416 36.9221 13.5052 37.3098 12.8324C37.7009 12.1596 37.8965 11.1868 37.8965 9.91406C37.8965 9.06889 37.807 8.35464 37.628 7.77131C37.4524 7.18466 37.1988 6.74053 36.8674 6.43892C36.5392 6.134 36.1481 5.98153 35.6941 5.98153C35.008 5.98153 34.4694 6.3196 34.0783 6.99574C33.6872 7.67187 33.49 8.64465 33.4867 9.91406C33.4867 10.7625 33.5745 11.4801 33.7502 12.0668C33.9292 12.6501 34.1827 13.0926 34.5108 13.3942C34.839 13.6925 35.2334 13.8416 35.6941 13.8416ZM42.5735 12.4098L42.5636 10.5952H42.8221L45.8647 7.36364H47.6445L44.1744 11.0426H43.9407L42.5735 12.4098ZM41.2063 15V4.81818H42.6928V15H41.2063ZM46.0288 15L43.2944 11.3707L44.3185 10.3317L47.8533 15H46.0288Z" fill="#9F9F9F"/>
<line x1="64" y1="9.5" x2="1052" y2="9.5" stroke="#F3F3F3"/>
<path d="M17.6 52.2727V39.5455H18.4153V52.2727H17.6ZM20.1504 43.4929C20.0974 43.0223 19.8786 42.6577 19.4941 42.3991C19.1097 42.1373 18.6258 42.0064 18.0424 42.0064C17.6248 42.0064 17.2636 42.0727 16.9586 42.2053C16.6537 42.3345 16.4167 42.5135 16.2477 42.7422C16.082 42.9676 15.9991 43.2244 15.9991 43.5128C15.9991 43.7547 16.0555 43.9635 16.1681 44.1392C16.2842 44.3149 16.435 44.4624 16.6206 44.5817C16.8095 44.6977 17.0117 44.7955 17.2271 44.875C17.4425 44.9512 17.6497 45.0142 17.8485 45.0639L18.8429 45.3224C19.1677 45.402 19.5008 45.5097 19.8422 45.6456C20.1835 45.7815 20.5001 45.9605 20.7917 46.1825C21.0834 46.4046 21.3187 46.6797 21.4977 47.0078C21.68 47.3359 21.7711 47.7287 21.7711 48.1861C21.7711 48.7628 21.622 49.2749 21.3237 49.7223C21.0287 50.1697 20.5995 50.5227 20.036 50.7812C19.4759 51.0398 18.7981 51.169 18.0027 51.169C17.2404 51.169 16.5808 51.0481 16.024 50.8061C15.4672 50.5642 15.0313 50.2211 14.7164 49.777C14.4016 49.3295 14.2276 48.7992 14.1944 48.1861H15.7356C15.7654 48.554 15.8848 48.8606 16.0936 49.1058C16.3057 49.3478 16.5758 49.5284 16.9039 49.6477C17.2354 49.7637 17.5983 49.8217 17.9927 49.8217C18.4269 49.8217 18.813 49.7538 19.1511 49.6179C19.4925 49.4787 19.7609 49.2865 19.9565 49.0412C20.152 48.7926 20.2498 48.5026 20.2498 48.1712C20.2498 47.8696 20.1636 47.6226 19.9913 47.4304C19.8223 47.2382 19.5919 47.0791 19.3002 46.9531C19.0119 46.8272 18.6854 46.7161 18.3208 46.62L17.1177 46.2919C16.3024 46.0698 15.6561 45.7434 15.1788 45.3125C14.7048 44.8816 14.4679 44.3116 14.4679 43.6023C14.4679 43.0156 14.627 42.5036 14.9451 42.0661C15.2633 41.6286 15.6942 41.2888 16.2377 41.0469C16.7813 40.8016 17.3945 40.679 18.0772 40.679C18.7666 40.679 19.3748 40.8 19.9018 41.0419C20.4321 41.2839 20.8497 41.617 21.1547 42.0412C21.4596 42.4621 21.6187 42.946 21.6319 43.4929H20.1504ZM26.8285 51.1392C26.2054 51.1392 25.6452 51.0199 25.1481 50.7812C24.6542 50.5393 24.2598 50.2079 23.9648 49.7869C23.6699 49.366 23.5124 48.8854 23.4925 48.3452H24.984C25.0205 48.7827 25.2144 49.1423 25.5657 49.424C25.917 49.7057 26.338 49.8466 26.8285 49.8466C27.2196 49.8466 27.5659 49.7571 27.8675 49.5781C28.1725 49.3958 28.4111 49.1456 28.5835 48.8274C28.7591 48.5092 28.8469 48.1463 28.8469 47.7386C28.8469 47.3243 28.7575 46.9548 28.5785 46.63C28.3995 46.3052 28.1526 46.05 27.8377 45.8643C27.5262 45.6787 27.1682 45.5843 26.7638 45.581C26.4556 45.581 26.1457 45.634 25.8342 45.7401C25.5226 45.8461 25.2707 45.9853 25.0785 46.1577L23.6715 45.9489L24.2433 40.8182H29.8413V42.1357H25.521L25.1978 44.9844H25.2575C25.4563 44.7921 25.7198 44.6314 26.0479 44.5021C26.3794 44.3729 26.734 44.3082 27.1119 44.3082C27.7317 44.3082 28.2835 44.4557 28.7674 44.7507C29.2546 45.0457 29.6374 45.4484 29.9158 45.9588C30.1976 46.4659 30.3368 47.0492 30.3335 47.7088C30.3368 48.3684 30.1876 48.9567 29.886 49.4737C29.5877 49.9908 29.1734 50.3984 28.6431 50.6967C28.1161 50.9917 27.5112 51.1392 26.8285 51.1392ZM35.6941 51.169C34.9086 51.1657 34.2374 50.9586 33.6806 50.5476C33.1238 50.1366 32.6979 49.5384 32.4029 48.7528C32.1079 47.9673 31.9604 47.0211 31.9604 45.9141C31.9604 44.8104 32.1079 43.8674 32.4029 43.0852C32.7012 42.303 33.1287 41.7064 33.6855 41.2955C34.2457 40.8845 34.9152 40.679 35.6941 40.679C36.473 40.679 37.1408 40.8861 37.6976 41.3004C38.2544 41.7114 38.6803 42.308 38.9753 43.0902C39.2736 43.8691 39.4228 44.8104 39.4228 45.9141C39.4228 47.0244 39.2753 47.9723 38.9803 48.7578C38.6853 49.54 38.2594 50.1383 37.7026 50.5526C37.1458 50.9635 36.4763 51.169 35.6941 51.169ZM35.6941 49.8416C36.3835 49.8416 36.9221 49.5052 37.3098 48.8324C37.7009 48.1596 37.8965 47.1868 37.8965 45.9141C37.8965 45.0689 37.807 44.3546 37.628 43.7713C37.4524 43.1847 37.1988 42.7405 36.8674 42.4389C36.5392 42.134 36.1481 41.9815 35.6941 41.9815C35.008 41.9815 34.4694 42.3196 34.0783 42.9957C33.6872 43.6719 33.49 44.6446 33.4867 45.9141C33.4867 46.7625 33.5745 47.4801 33.7502 48.0668C33.9292 48.6501 34.1827 49.0926 34.5108 49.3942C34.839 49.6925 35.2334 49.8416 35.6941 49.8416ZM42.5735 48.4098L42.5636 46.5952H42.8221L45.8647 43.3636H47.6445L44.1744 47.0426H43.9407L42.5735 48.4098ZM41.2063 51V40.8182H42.6928V51H41.2063ZM46.0288 51L43.2944 47.3707L44.3185 46.3317L47.8533 51H46.0288Z" fill="#9F9F9F"/>
<line x1="64" y1="45.5" x2="1052" y2="45.5" stroke="#F3F3F3"/>
<path d="M19.6644 88.2727V75.5455H20.4798V88.2727H19.6644ZM22.2148 79.4929C22.1618 79.0223 21.9431 78.6577 21.5586 78.3991C21.1741 78.1373 20.6902 78.0064 20.1069 78.0064C19.6893 78.0064 19.328 78.0727 19.0231 78.2053C18.7182 78.3345 18.4812 78.5135 18.3121 78.7422C18.1464 78.9676 18.0636 79.2244 18.0636 79.5128C18.0636 79.7547 18.1199 79.9635 18.2326 80.1392C18.3486 80.3149 18.4994 80.4624 18.685 80.5817C18.8739 80.6977 19.0761 80.7955 19.2915 80.875C19.507 80.9512 19.7141 81.0142 19.913 81.0639L20.9073 81.3224C21.2321 81.402 21.5652 81.5097 21.9066 81.6456C22.248 81.7815 22.5645 81.9605 22.8562 82.1825C23.1478 82.4046 23.3832 82.6797 23.5621 83.0078C23.7444 83.3359 23.8356 83.7287 23.8356 84.1861C23.8356 84.7628 23.6864 85.2749 23.3881 85.7223C23.0932 86.1697 22.6639 86.5227 22.1005 86.7812C21.5404 87.0398 20.8626 87.169 20.0671 87.169C19.3048 87.169 18.6452 87.0481 18.0884 86.8061C17.5316 86.5642 17.0958 86.2211 16.7809 85.777C16.466 85.3295 16.292 84.7992 16.2589 84.1861H17.8001C17.8299 84.554 17.9492 84.8606 18.158 85.1058C18.3701 85.3478 18.6403 85.5284 18.9684 85.6477C19.2998 85.7637 19.6628 85.8217 20.0572 85.8217C20.4914 85.8217 20.8775 85.7538 21.2156 85.6179C21.5569 85.4787 21.8254 85.2865 22.021 85.0412C22.2165 84.7926 22.3143 84.5026 22.3143 84.1712C22.3143 83.8696 22.2281 83.6226 22.0558 83.4304C21.8867 83.2382 21.6564 83.0791 21.3647 82.9531C21.0763 82.8272 20.7499 82.7161 20.3853 82.62L19.1822 82.2919C18.3668 82.0698 17.7205 81.7434 17.2433 81.3125C16.7693 80.8816 16.5323 80.3116 16.5323 79.6023C16.5323 79.0156 16.6914 78.5036 17.0096 78.0661C17.3278 77.6286 17.7586 77.2888 18.3022 77.0469C18.8458 76.8016 19.4589 76.679 20.1417 76.679C20.8311 76.679 21.4393 76.8 21.9663 77.0419C22.4966 77.2839 22.9142 77.617 23.2191 78.0412C23.524 78.4621 23.6831 78.946 23.6964 79.4929H22.2148ZM29.3951 76.8182V87H27.8539V78.3594H27.7942L25.3581 79.9503V78.4787L27.8986 76.8182H29.3951ZM35.6941 87.169C34.9086 87.1657 34.2374 86.9586 33.6806 86.5476C33.1238 86.1366 32.6979 85.5384 32.4029 84.7528C32.1079 83.9673 31.9604 83.0211 31.9604 81.9141C31.9604 80.8104 32.1079 79.8674 32.4029 79.0852C32.7012 78.303 33.1287 77.7064 33.6855 77.2955C34.2457 76.8845 34.9152 76.679 35.6941 76.679C36.473 76.679 37.1408 76.8861 37.6976 77.3004C38.2544 77.7114 38.6803 78.308 38.9753 79.0902C39.2736 79.8691 39.4228 80.8104 39.4228 81.9141C39.4228 83.0244 39.2753 83.9723 38.9803 84.7578C38.6853 85.54 38.2594 86.1383 37.7026 86.5526C37.1458 86.9635 36.4763 87.169 35.6941 87.169ZM35.6941 85.8416C36.3835 85.8416 36.9221 85.5052 37.3098 84.8324C37.7009 84.1596 37.8965 83.1868 37.8965 81.9141C37.8965 81.0689 37.807 80.3546 37.628 79.7713C37.4524 79.1847 37.1988 78.7405 36.8674 78.4389C36.5392 78.134 36.1481 77.9815 35.6941 77.9815C35.008 77.9815 34.4694 78.3196 34.0783 78.9957C33.6872 79.6719 33.49 80.6446 33.4867 81.9141C33.4867 82.7625 33.5745 83.4801 33.7502 84.0668C33.9292 84.6501 34.1827 85.0926 34.5108 85.3942C34.839 85.6925 35.2334 85.8416 35.6941 85.8416ZM42.5735 84.4098L42.5636 82.5952H42.8221L45.8647 79.3636H47.6445L44.1744 83.0426H43.9407L42.5735 84.4098ZM41.2063 87V76.8182H42.6928V87H41.2063ZM46.0288 87L43.2944 83.3707L44.3185 82.3317L47.8533 87H46.0288Z" fill="#9F9F9F"/>
<line x1="64" y1="81.5" x2="1052" y2="81.5" stroke="#F3F3F3"/>
<path d="M26.7328 124.273V111.545H27.5481V124.273H26.7328ZM29.2832 115.493C29.2302 115.022 29.0114 114.658 28.627 114.399C28.2425 114.137 27.7586 114.006 27.1752 114.006C26.7576 114.006 26.3964 114.073 26.0914 114.205C25.7865 114.335 25.5495 114.513 25.3805 114.742C25.2148 114.968 25.1319 115.224 25.1319 115.513C25.1319 115.755 25.1883 115.964 25.301 116.139C25.417 116.315 25.5678 116.462 25.7534 116.582C25.9423 116.698 26.1445 116.795 26.3599 116.875C26.5753 116.951 26.7825 117.014 26.9814 117.064L27.9757 117.322C28.3005 117.402 28.6336 117.51 28.975 117.646C29.3163 117.781 29.6329 117.96 29.9245 118.183C30.2162 118.405 30.4515 118.68 30.6305 119.008C30.8128 119.336 30.9039 119.729 30.9039 120.186C30.9039 120.763 30.7548 121.275 30.4565 121.722C30.1615 122.17 29.7323 122.523 29.1689 122.781C28.6087 123.04 27.9309 123.169 27.1355 123.169C26.3732 123.169 25.7136 123.048 25.1568 122.806C24.6 122.564 24.1641 122.221 23.8493 121.777C23.5344 121.33 23.3604 120.799 23.3272 120.186H24.8684C24.8983 120.554 25.0176 120.861 25.2264 121.106C25.4385 121.348 25.7086 121.528 26.0368 121.648C26.3682 121.764 26.7311 121.822 27.1255 121.822C27.5597 121.822 27.9458 121.754 28.2839 121.618C28.6253 121.479 28.8938 121.286 29.0893 121.041C29.2849 120.793 29.3826 120.503 29.3826 120.171C29.3826 119.87 29.2965 119.623 29.1241 119.43C28.9551 119.238 28.7247 119.079 28.4331 118.953C28.1447 118.827 27.8182 118.716 27.4537 118.62L26.2505 118.292C25.4352 118.07 24.7889 117.743 24.3116 117.312C23.8377 116.882 23.6007 116.312 23.6007 115.602C23.6007 115.016 23.7598 114.504 24.0779 114.066C24.3961 113.629 24.827 113.289 25.3706 113.047C25.9141 112.802 26.5273 112.679 27.21 112.679C27.8994 112.679 28.5076 112.8 29.0346 113.042C29.5649 113.284 29.9825 113.617 30.2875 114.041C30.5924 114.462 30.7515 114.946 30.7647 115.493H29.2832ZM32.6005 123V121.886L36.0458 118.317C36.4137 117.929 36.717 117.589 36.9556 117.298C37.1976 117.003 37.3782 116.723 37.4975 116.457C37.6168 116.192 37.6765 115.911 37.6765 115.612C37.6765 115.274 37.5969 114.982 37.4379 114.737C37.2788 114.489 37.0617 114.298 36.7866 114.165C36.5115 114.03 36.2016 113.962 35.8569 113.962C35.4923 113.962 35.1741 114.036 34.9023 114.185C34.6306 114.335 34.4218 114.545 34.2759 114.817C34.1301 115.089 34.0572 115.407 34.0572 115.771H32.5906C32.5906 115.152 32.7331 114.61 33.0181 114.146C33.3031 113.682 33.6942 113.322 34.1914 113.067C34.6886 112.808 35.2537 112.679 35.8867 112.679C36.5264 112.679 37.0898 112.807 37.5771 113.062C38.0676 113.314 38.4504 113.658 38.7255 114.096C39.0006 114.53 39.1381 115.021 39.1381 115.567C39.1381 115.945 39.0669 116.315 38.9244 116.676C38.7852 117.037 38.5415 117.44 38.1935 117.884C37.8455 118.325 37.3616 118.86 36.7418 119.49L34.7184 121.608V121.683H39.3022V123H32.6005ZM42.5735 120.41L42.5636 118.595H42.8221L45.8647 115.364H47.6445L44.1744 119.043H43.9407L42.5735 120.41ZM41.2063 123V112.818H42.6928V123H41.2063ZM46.0288 123L43.2944 119.371L44.3185 118.332L47.8533 123H46.0288Z" fill="#9F9F9F"/>
<line x1="64" y1="117.5" x2="1052" y2="117.5" stroke="#F3F3F3"/>
<path d="M34.0746 160.273V147.545H34.8899V160.273H34.0746ZM36.625 151.493C36.572 151.022 36.3532 150.658 35.9688 150.399C35.5843 150.137 35.1004 150.006 34.517 150.006C34.0994 150.006 33.7382 150.073 33.4332 150.205C33.1283 150.335 32.8913 150.513 32.7223 150.742C32.5566 150.968 32.4737 151.224 32.4737 151.513C32.4737 151.755 32.5301 151.964 32.6428 152.139C32.7588 152.315 32.9096 152.462 33.0952 152.582C33.2841 152.698 33.4863 152.795 33.7017 152.875C33.9171 152.951 34.1243 153.014 34.3232 153.064L35.3175 153.322C35.6423 153.402 35.9754 153.51 36.3168 153.646C36.6581 153.781 36.9747 153.96 37.2663 154.183C37.558 154.405 37.7933 154.68 37.9723 155.008C38.1546 155.336 38.2457 155.729 38.2457 156.186C38.2457 156.763 38.0966 157.275 37.7983 157.722C37.5033 158.17 37.0741 158.523 36.5107 158.781C35.9505 159.04 35.2727 159.169 34.4773 159.169C33.715 159.169 33.0554 159.048 32.4986 158.806C31.9418 158.564 31.5059 158.221 31.1911 157.777C30.8762 157.33 30.7022 156.799 30.669 156.186H32.2102C32.2401 156.554 32.3594 156.861 32.5682 157.106C32.7803 157.348 33.0504 157.528 33.3786 157.648C33.71 157.764 34.0729 157.822 34.4673 157.822C34.9015 157.822 35.2876 157.754 35.6257 157.618C35.9671 157.479 36.2356 157.286 36.4311 157.041C36.6267 156.793 36.7244 156.503 36.7244 156.171C36.7244 155.87 36.6383 155.623 36.4659 155.43C36.2969 155.238 36.0665 155.079 35.7749 154.953C35.4865 154.827 35.16 154.716 34.7955 154.62L33.5923 154.292C32.777 154.07 32.1307 153.743 31.6534 153.312C31.1795 152.882 30.9425 152.312 30.9425 151.602C30.9425 151.016 31.1016 150.504 31.4197 150.066C31.7379 149.629 32.1688 149.289 32.7124 149.047C33.2559 148.802 33.8691 148.679 34.5518 148.679C35.2412 148.679 35.8494 148.8 36.3764 149.042C36.9067 149.284 37.3243 149.617 37.6293 150.041C37.9342 150.462 38.0933 150.946 38.1065 151.493H36.625ZM43.487 159.169C42.7015 159.166 42.0304 158.959 41.4735 158.548C40.9167 158.137 40.4908 157.538 40.1958 156.753C39.9009 155.967 39.7534 155.021 39.7534 153.914C39.7534 152.81 39.9009 151.867 40.1958 151.085C40.4941 150.303 40.9217 149.706 41.4785 149.295C42.0386 148.884 42.7082 148.679 43.487 148.679C44.2659 148.679 44.9338 148.886 45.4906 149.3C46.0474 149.711 46.4733 150.308 46.7683 151.09C47.0666 151.869 47.2157 152.81 47.2157 153.914C47.2157 155.024 47.0682 155.972 46.7733 156.758C46.4783 157.54 46.0524 158.138 45.4956 158.553C44.9387 158.964 44.2692 159.169 43.487 159.169ZM43.487 157.842C44.1764 157.842 44.715 157.505 45.1028 156.832C45.4939 156.16 45.6895 155.187 45.6895 153.914C45.6895 153.069 45.6 152.355 45.421 151.771C45.2453 151.185 44.9918 150.741 44.6603 150.439C44.3322 150.134 43.9411 149.982 43.487 149.982C42.801 149.982 42.2624 150.32 41.8713 150.996C41.4802 151.672 41.283 152.645 41.2797 153.914C41.2797 154.763 41.3675 155.48 41.5431 156.067C41.7221 156.65 41.9757 157.093 42.3038 157.394C42.6319 157.692 43.0263 157.842 43.487 157.842Z" fill="#9F9F9F"/>
<line x1="64" y1="153.5" x2="1052" y2="153.5" stroke="#F3F3F3"/>
<path d="M86 51C86 48.7909 87.7909 47 90 47H98C100.209 47 102 48.7909 102 51V154H86V51Z" fill="#E8E8E8"/>
<path d="M110 21C110 18.7909 111.791 17 114 17H122C124.209 17 126 18.7909 126 21V154H110V21Z" fill="#299D91"/>
<path d="M99.2908 168.818H100.524V176.097C100.524 176.746 100.404 177.298 100.166 177.752C99.9272 178.206 99.5908 178.551 99.1566 178.786C98.7224 179.022 98.2103 179.139 97.6204 179.139C97.0636 179.139 96.5681 179.038 96.1339 178.836C95.6997 178.63 95.3583 178.339 95.1097 177.961C94.8612 177.583 94.7369 177.134 94.7369 176.614H95.9499C95.9499 176.902 96.0212 177.154 96.1637 177.369C96.3095 177.581 96.5084 177.747 96.7603 177.866C97.0122 177.986 97.2989 178.045 97.6204 178.045C97.975 178.045 98.2766 177.971 98.5252 177.822C98.7738 177.673 98.9627 177.454 99.092 177.165C99.2246 176.874 99.2908 176.518 99.2908 176.097V168.818ZM105.083 179.179C104.599 179.179 104.16 179.088 103.765 178.906C103.371 178.72 103.058 178.453 102.826 178.105C102.594 177.754 102.478 177.33 102.478 176.832C102.478 176.395 102.564 176.04 102.736 175.768C102.908 175.493 103.139 175.278 103.427 175.122C103.716 174.966 104.034 174.85 104.382 174.774C104.733 174.695 105.086 174.632 105.441 174.585C105.905 174.526 106.281 174.481 106.569 174.451C106.861 174.418 107.073 174.363 107.206 174.287C107.342 174.211 107.409 174.078 107.409 173.889V173.849C107.409 173.359 107.275 172.978 107.007 172.706C106.742 172.434 106.339 172.298 105.799 172.298C105.239 172.298 104.799 172.421 104.481 172.666C104.163 172.911 103.939 173.173 103.81 173.452L102.696 173.054C102.895 172.59 103.16 172.229 103.492 171.97C103.827 171.708 104.191 171.526 104.586 171.423C104.983 171.317 105.374 171.264 105.759 171.264C106.004 171.264 106.286 171.294 106.604 171.354C106.926 171.41 107.235 171.528 107.534 171.707C107.835 171.886 108.086 172.156 108.284 172.517C108.483 172.878 108.583 173.362 108.583 173.969V179H107.409V177.966H107.35C107.27 178.132 107.138 178.309 106.952 178.498C106.766 178.687 106.52 178.848 106.211 178.98C105.903 179.113 105.527 179.179 105.083 179.179ZM105.262 178.125C105.726 178.125 106.117 178.034 106.435 177.852C106.757 177.669 106.998 177.434 107.161 177.146C107.327 176.857 107.409 176.554 107.409 176.236V175.162C107.36 175.222 107.25 175.276 107.081 175.326C106.916 175.372 106.723 175.414 106.505 175.45C106.289 175.483 106.079 175.513 105.873 175.54C105.671 175.563 105.507 175.583 105.381 175.599C105.076 175.639 104.791 175.704 104.526 175.793C104.264 175.879 104.052 176.01 103.89 176.186C103.73 176.358 103.651 176.594 103.651 176.892C103.651 177.3 103.802 177.608 104.103 177.817C104.408 178.022 104.794 178.125 105.262 178.125ZM111.898 174.406V179H110.724V171.364H111.858V172.557H111.957C112.136 172.169 112.408 171.857 112.773 171.622C113.137 171.384 113.608 171.264 114.184 171.264C114.702 171.264 115.154 171.37 115.542 171.582C115.93 171.791 116.231 172.109 116.447 172.537C116.662 172.961 116.77 173.498 116.77 174.148V179H115.596V174.227C115.596 173.627 115.441 173.16 115.129 172.825C114.818 172.487 114.39 172.318 113.846 172.318C113.472 172.318 113.137 172.399 112.842 172.562C112.55 172.724 112.32 172.961 112.151 173.273C111.982 173.584 111.898 173.962 111.898 174.406Z" fill="#9F9F9F"/>
<path d="M166 77C166 74.7909 167.791 73 170 73H178C180.209 73 182 74.7909 182 77V154H166V77Z" fill="#E8E8E8"/>
<path d="M190 66C190 63.7909 191.791 62 194 62H202C204.209 62 206 63.7909 206 66V154H190V66Z" fill="#299D91"/>
<path d="M174.983 179V168.818H181.088V169.912H176.216V173.352H180.631V174.446H176.216V179H174.983ZM185.682 179.159C184.946 179.159 184.311 178.997 183.778 178.672C183.247 178.344 182.838 177.886 182.55 177.3C182.265 176.71 182.122 176.024 182.122 175.241C182.122 174.459 182.265 173.77 182.55 173.173C182.838 172.573 183.239 172.106 183.753 171.771C184.27 171.433 184.873 171.264 185.562 171.264C185.96 171.264 186.353 171.33 186.741 171.463C187.129 171.596 187.482 171.811 187.8 172.109C188.118 172.404 188.371 172.795 188.56 173.283C188.749 173.77 188.844 174.37 188.844 175.082V175.58H182.957V174.565H187.651C187.651 174.134 187.564 173.75 187.392 173.412C187.223 173.074 186.981 172.807 186.666 172.612C186.355 172.416 185.987 172.318 185.562 172.318C185.095 172.318 184.691 172.434 184.349 172.666C184.011 172.895 183.751 173.193 183.569 173.561C183.387 173.929 183.295 174.323 183.295 174.744V175.42C183.295 175.997 183.395 176.486 183.594 176.887C183.796 177.285 184.076 177.588 184.434 177.797C184.792 178.002 185.208 178.105 185.682 178.105C185.99 178.105 186.268 178.062 186.517 177.976C186.769 177.886 186.986 177.754 187.168 177.578C187.351 177.399 187.491 177.177 187.591 176.912L188.724 177.23C188.605 177.615 188.405 177.953 188.123 178.244C187.841 178.533 187.493 178.758 187.079 178.92C186.665 179.08 186.199 179.159 185.682 179.159ZM190.788 179V168.818H191.961V172.577H192.06C192.147 172.444 192.266 172.275 192.418 172.07C192.574 171.861 192.796 171.675 193.085 171.513C193.376 171.347 193.771 171.264 194.268 171.264C194.911 171.264 195.478 171.425 195.968 171.746C196.459 172.068 196.841 172.524 197.116 173.114C197.392 173.704 197.529 174.4 197.529 175.202C197.529 176.01 197.392 176.711 197.116 177.305C196.841 177.895 196.46 178.352 195.973 178.677C195.486 178.998 194.924 179.159 194.288 179.159C193.797 179.159 193.404 179.078 193.109 178.915C192.814 178.75 192.587 178.562 192.428 178.354C192.269 178.142 192.147 177.966 192.06 177.827H191.921V179H190.788ZM191.941 175.182C191.941 175.759 192.026 176.267 192.195 176.708C192.364 177.146 192.611 177.489 192.935 177.737C193.26 177.982 193.658 178.105 194.129 178.105C194.619 178.105 195.028 177.976 195.357 177.717C195.688 177.455 195.937 177.104 196.102 176.663C196.271 176.219 196.356 175.725 196.356 175.182C196.356 174.645 196.273 174.161 196.107 173.73C195.945 173.296 195.698 172.953 195.366 172.701C195.038 172.446 194.626 172.318 194.129 172.318C193.651 172.318 193.25 172.439 192.925 172.681C192.601 172.92 192.355 173.254 192.19 173.685C192.024 174.113 191.941 174.612 191.941 175.182Z" fill="#9F9F9F"/>
<path d="M246 51C246 48.7909 247.791 47 250 47H258C260.209 47 262 48.7909 262 51V154H246V51Z" fill="#E8E8E8"/>
<path d="M270 94C270 91.7909 271.791 90 274 90H282C284.209 90 286 91.7909 286 94V154H270V94Z" fill="#299D91"/>
<path d="M254.457 168.818H255.928L259.388 177.27H259.508L262.968 168.818H264.44V179H263.286V171.264H263.187L260.005 179H258.891L255.709 171.264H255.61V179H254.457V168.818ZM269 179.179C268.516 179.179 268.077 179.088 267.682 178.906C267.288 178.72 266.975 178.453 266.743 178.105C266.511 177.754 266.395 177.33 266.395 176.832C266.395 176.395 266.481 176.04 266.653 175.768C266.825 175.493 267.056 175.278 267.344 175.122C267.633 174.966 267.951 174.85 268.299 174.774C268.65 174.695 269.003 174.632 269.358 174.585C269.822 174.526 270.198 174.481 270.486 174.451C270.778 174.418 270.99 174.363 271.123 174.287C271.258 174.211 271.326 174.078 271.326 173.889V173.849C271.326 173.359 271.192 172.978 270.924 172.706C270.659 172.434 270.256 172.298 269.716 172.298C269.156 172.298 268.716 172.421 268.398 172.666C268.08 172.911 267.856 173.173 267.727 173.452L266.613 173.054C266.812 172.59 267.077 172.229 267.409 171.97C267.744 171.708 268.108 171.526 268.503 171.423C268.9 171.317 269.291 171.264 269.676 171.264C269.921 171.264 270.203 171.294 270.521 171.354C270.843 171.41 271.152 171.528 271.451 171.707C271.752 171.886 272.003 172.156 272.201 172.517C272.4 172.878 272.5 173.362 272.5 173.969V179H271.326V177.966H271.267C271.187 178.132 271.055 178.309 270.869 178.498C270.683 178.687 270.437 178.848 270.128 178.98C269.82 179.113 269.444 179.179 269 179.179ZM269.179 178.125C269.643 178.125 270.034 178.034 270.352 177.852C270.674 177.669 270.915 177.434 271.078 177.146C271.244 176.857 271.326 176.554 271.326 176.236V175.162C271.277 175.222 271.167 175.276 270.998 175.326C270.833 175.372 270.64 175.414 270.422 175.45C270.206 175.483 269.996 175.513 269.79 175.54C269.588 175.563 269.424 175.583 269.298 175.599C268.993 175.639 268.708 175.704 268.443 175.793C268.181 175.879 267.969 176.01 267.807 176.186C267.647 176.358 267.568 176.594 267.568 176.892C267.568 177.3 267.719 177.608 268.02 177.817C268.325 178.022 268.711 178.125 269.179 178.125ZM274.641 179V171.364H275.775V172.517H275.854C275.994 172.139 276.245 171.833 276.61 171.597C276.975 171.362 277.386 171.244 277.843 171.244C277.929 171.244 278.037 171.246 278.166 171.249C278.295 171.253 278.393 171.258 278.459 171.264V172.457C278.42 172.447 278.329 172.433 278.186 172.413C278.047 172.389 277.899 172.378 277.744 172.378C277.372 172.378 277.041 172.456 276.749 172.612C276.461 172.764 276.232 172.976 276.063 173.248C275.897 173.516 275.815 173.823 275.815 174.168V179H274.641Z" fill="#9F9F9F"/>
<path d="M326 51C326 48.7909 327.791 47 330 47H338C340.209 47 342 48.7909 342 51V154H326V51Z" fill="#E8E8E8"/>
<path d="M350 30C350 27.7909 351.791 26 354 26H362C364.209 26 366 27.7909 366 30V154H350V30Z" fill="#299D91"/>
<path d="M336.05 179H334.757L338.496 168.818H339.769L343.507 179H342.215L339.172 170.429H339.093L336.05 179ZM336.527 175.023H341.737V176.116H336.527V175.023ZM344.934 181.864V171.364H346.068V172.577H346.207C346.293 172.444 346.412 172.275 346.565 172.07C346.721 171.861 346.943 171.675 347.231 171.513C347.523 171.347 347.917 171.264 348.414 171.264C349.057 171.264 349.624 171.425 350.115 171.746C350.605 172.068 350.988 172.524 351.263 173.114C351.538 173.704 351.676 174.4 351.676 175.202C351.676 176.01 351.538 176.711 351.263 177.305C350.988 177.895 350.607 178.352 350.12 178.677C349.632 178.998 349.071 179.159 348.434 179.159C347.944 179.159 347.551 179.078 347.256 178.915C346.961 178.75 346.734 178.562 346.575 178.354C346.416 178.142 346.293 177.966 346.207 177.827H346.108V181.864H344.934ZM346.088 175.182C346.088 175.759 346.172 176.267 346.341 176.708C346.51 177.146 346.757 177.489 347.082 177.737C347.407 177.982 347.804 178.105 348.275 178.105C348.766 178.105 349.175 177.976 349.503 177.717C349.835 177.455 350.083 177.104 350.249 176.663C350.418 176.219 350.502 175.725 350.502 175.182C350.502 174.645 350.42 174.161 350.254 173.73C350.091 173.296 349.844 172.953 349.513 172.701C349.185 172.446 348.772 172.318 348.275 172.318C347.798 172.318 347.397 172.439 347.072 172.681C346.747 172.92 346.502 173.254 346.336 173.685C346.17 174.113 346.088 174.612 346.088 175.182ZM353.465 179V171.364H354.599V172.517H354.679C354.818 172.139 355.07 171.833 355.434 171.597C355.799 171.362 356.21 171.244 356.667 171.244C356.753 171.244 356.861 171.246 356.99 171.249C357.12 171.253 357.217 171.258 357.284 171.264V172.457C357.244 172.447 357.153 172.433 357.01 172.413C356.871 172.389 356.724 172.378 356.568 172.378C356.197 172.378 355.865 172.456 355.573 172.612C355.285 172.764 355.056 172.976 354.887 173.248C354.722 173.516 354.639 173.823 354.639 174.168V179H353.465Z" fill="#9F9F9F"/>
<path d="M406 51C406 48.7909 407.791 47 410 47H418C420.209 47 422 48.7909 422 51V154H406V51Z" fill="#E8E8E8"/>
<path d="M430 44C430 41.7909 431.791 40 434 40H442C444.209 40 446 41.7909 446 44V154H430V44Z" fill="#299D91"/>
<path d="M413.301 168.818H414.773L418.233 177.27H418.352L421.813 168.818H423.284V179H422.131V171.264H422.031L418.85 179H417.736L414.554 171.264H414.455V179H413.301V168.818ZM427.844 179.179C427.361 179.179 426.921 179.088 426.527 178.906C426.133 178.72 425.819 178.453 425.587 178.105C425.355 177.754 425.239 177.33 425.239 176.832C425.239 176.395 425.326 176.04 425.498 175.768C425.67 175.493 425.901 175.278 426.189 175.122C426.477 174.966 426.795 174.85 427.143 174.774C427.495 174.695 427.848 174.632 428.202 174.585C428.666 174.526 429.043 174.481 429.331 174.451C429.623 174.418 429.835 174.363 429.967 174.287C430.103 174.211 430.171 174.078 430.171 173.889V173.849C430.171 173.359 430.037 172.978 429.768 172.706C429.503 172.434 429.101 172.298 428.56 172.298C428 172.298 427.561 172.421 427.243 172.666C426.925 172.911 426.701 173.173 426.572 173.452L425.458 173.054C425.657 172.59 425.922 172.229 426.254 171.97C426.588 171.708 426.953 171.526 427.347 171.423C427.745 171.317 428.136 171.264 428.521 171.264C428.766 171.264 429.048 171.294 429.366 171.354C429.687 171.41 429.997 171.528 430.295 171.707C430.597 171.886 430.847 172.156 431.046 172.517C431.245 172.878 431.344 173.362 431.344 173.969V179H430.171V177.966H430.112C430.032 178.132 429.899 178.309 429.714 178.498C429.528 178.687 429.281 178.848 428.973 178.98C428.665 179.113 428.289 179.179 427.844 179.179ZM428.023 178.125C428.487 178.125 428.879 178.034 429.197 177.852C429.518 177.669 429.76 177.434 429.923 177.146C430.088 176.857 430.171 176.554 430.171 176.236V175.162C430.121 175.222 430.012 175.276 429.843 175.326C429.677 175.372 429.485 175.414 429.266 175.45C429.051 175.483 428.84 175.513 428.635 175.54C428.433 175.563 428.269 175.583 428.143 175.599C427.838 175.639 427.553 175.704 427.288 175.793C427.026 175.879 426.814 176.01 426.651 176.186C426.492 176.358 426.413 176.594 426.413 176.892C426.413 177.3 426.563 177.608 426.865 177.817C427.17 178.022 427.556 178.125 428.023 178.125ZM433.968 181.864C433.769 181.864 433.592 181.847 433.436 181.814C433.28 181.784 433.173 181.754 433.113 181.724L433.411 180.69C433.696 180.763 433.948 180.79 434.167 180.77C434.386 180.75 434.58 180.652 434.749 180.477C434.921 180.304 435.079 180.024 435.221 179.636L435.44 179.04L432.616 171.364H433.889L435.997 177.449H436.076L438.184 171.364H439.457L436.215 180.114C436.07 180.508 435.889 180.835 435.673 181.093C435.458 181.355 435.208 181.549 434.923 181.675C434.641 181.801 434.323 181.864 433.968 181.864Z" fill="#9F9F9F"/>
<path d="M486 51C486 48.7909 487.791 47 490 47H498C500.209 47 502 48.7909 502 51V154H486V51Z" fill="#E8E8E8"/>
<path d="M510 94C510 91.7909 511.791 90 514 90H522C524.209 90 526 91.7909 526 94V154H510V94Z" fill="#299D91"/>
<path d="M499.168 168.818H500.401V176.097C500.401 176.746 500.281 177.298 500.043 177.752C499.804 178.206 499.468 178.551 499.034 178.786C498.599 179.022 498.087 179.139 497.497 179.139C496.941 179.139 496.445 179.038 496.011 178.836C495.577 178.63 495.235 178.339 494.987 177.961C494.738 177.583 494.614 177.134 494.614 176.614H495.827C495.827 176.902 495.898 177.154 496.041 177.369C496.186 177.581 496.385 177.747 496.637 177.866C496.889 177.986 497.176 178.045 497.497 178.045C497.852 178.045 498.154 177.971 498.402 177.822C498.651 177.673 498.84 177.454 498.969 177.165C499.102 176.874 499.168 176.518 499.168 176.097V168.818ZM507.525 175.878V171.364H508.698V179H507.525V177.707H507.445C507.267 178.095 506.988 178.425 506.61 178.697C506.232 178.965 505.755 179.099 505.178 179.099C504.701 179.099 504.277 178.995 503.906 178.786C503.535 178.574 503.243 178.256 503.031 177.832C502.819 177.404 502.713 176.866 502.713 176.216V171.364H503.886V176.136C503.886 176.693 504.042 177.137 504.353 177.469C504.668 177.8 505.069 177.966 505.556 177.966C505.848 177.966 506.145 177.891 506.446 177.742C506.751 177.593 507.006 177.364 507.212 177.056C507.421 176.748 507.525 176.355 507.525 175.878ZM512.021 174.406V179H510.847V171.364H511.981V172.557H512.08C512.259 172.169 512.531 171.857 512.896 171.622C513.26 171.384 513.731 171.264 514.308 171.264C514.825 171.264 515.277 171.37 515.665 171.582C516.053 171.791 516.354 172.109 516.57 172.537C516.785 172.961 516.893 173.498 516.893 174.148V179H515.719V174.227C515.719 173.627 515.564 173.16 515.252 172.825C514.941 172.487 514.513 172.318 513.969 172.318C513.595 172.318 513.26 172.399 512.965 172.562C512.674 172.724 512.443 172.961 512.274 173.273C512.105 173.584 512.021 173.962 512.021 174.406Z" fill="#9F9F9F"/>
<path d="M566 68C566 65.7909 567.791 64 570 64H578C580.209 64 582 65.7909 582 68V154H566V68Z" fill="#E8E8E8"/>
<path d="M590 45C590 42.7909 591.791 41 594 41H602C604.209 41 606 42.7909 606 45V154H590V45Z" fill="#299D91"/>
<path d="M577.705 168.818H578.938V176.097C578.938 176.746 578.819 177.298 578.58 177.752C578.341 178.206 578.005 178.551 577.571 178.786C577.136 179.022 576.624 179.139 576.034 179.139C575.478 179.139 574.982 179.038 574.548 178.836C574.114 178.63 573.772 178.339 573.524 177.961C573.275 177.583 573.151 177.134 573.151 176.614H574.364C574.364 176.902 574.435 177.154 574.578 177.369C574.724 177.581 574.922 177.747 575.174 177.866C575.426 177.986 575.713 178.045 576.034 178.045C576.389 178.045 576.691 177.971 576.939 177.822C577.188 177.673 577.377 177.454 577.506 177.165C577.639 176.874 577.705 176.518 577.705 176.097V168.818ZM586.062 175.878V171.364H587.235V179H586.062V177.707H585.983C585.804 178.095 585.525 178.425 585.147 178.697C584.77 178.965 584.292 179.099 583.716 179.099C583.238 179.099 582.814 178.995 582.443 178.786C582.072 178.574 581.78 178.256 581.568 177.832C581.356 177.404 581.25 176.866 581.25 176.216V171.364H582.423V176.136C582.423 176.693 582.579 177.137 582.89 177.469C583.205 177.8 583.606 177.966 584.093 177.966C584.385 177.966 584.682 177.891 584.983 177.742C585.288 177.593 585.543 177.364 585.749 177.056C585.958 176.748 586.062 176.355 586.062 175.878ZM590.558 168.818V179H589.384V168.818H590.558ZM593.462 181.864C593.263 181.864 593.086 181.847 592.93 181.814C592.775 181.784 592.667 181.754 592.607 181.724L592.906 180.69C593.191 180.763 593.442 180.79 593.661 180.77C593.88 180.75 594.074 180.652 594.243 180.477C594.415 180.304 594.573 180.024 594.715 179.636L594.934 179.04L592.11 171.364H593.383L595.491 177.449H595.57L597.678 171.364H598.951L595.71 180.114C595.564 180.508 595.383 180.835 595.168 181.093C594.952 181.355 594.702 181.549 594.417 181.675C594.135 181.801 593.817 181.864 593.462 181.864Z" fill="#9F9F9F"/>
<path d="M646 105C646 102.791 647.791 101 650 101H658C660.209 101 662 102.791 662 105V154H646V105Z" fill="#E8E8E8"/>
<path d="M670 27C670 24.7909 671.791 23 674 23H682C684.209 23 686 24.7909 686 27V154H670V27Z" fill="#299D91"/>
<path d="M654.587 179H653.294L657.033 168.818H658.306L662.044 179H660.752L657.709 170.429H657.63L654.587 179ZM655.064 175.023H660.275V176.116H655.064V175.023ZM668.284 175.878V171.364H669.457V179H668.284V177.707H668.204C668.025 178.095 667.747 178.425 667.369 178.697C666.991 178.965 666.514 179.099 665.937 179.099C665.46 179.099 665.036 178.995 664.665 178.786C664.293 178.574 664.002 178.256 663.79 177.832C663.577 177.404 663.471 176.866 663.471 176.216V171.364H664.645V176.136C664.645 176.693 664.8 177.137 665.112 177.469C665.427 177.8 665.828 177.966 666.315 177.966C666.607 177.966 666.903 177.891 667.205 177.742C667.51 177.593 667.765 177.364 667.971 177.056C668.179 176.748 668.284 176.355 668.284 175.878ZM674.688 182.023C674.122 182.023 673.634 181.95 673.227 181.804C672.819 181.661 672.479 181.473 672.208 181.237C671.939 181.005 671.725 180.757 671.566 180.491L672.501 179.835C672.607 179.974 672.741 180.134 672.904 180.312C673.066 180.495 673.288 180.652 673.57 180.785C673.855 180.921 674.228 180.989 674.688 180.989C675.305 180.989 675.814 180.839 676.215 180.541C676.616 180.243 676.816 179.776 676.816 179.139V177.588H676.717C676.631 177.727 676.508 177.9 676.349 178.105C676.193 178.307 675.968 178.488 675.673 178.647C675.381 178.803 674.987 178.881 674.49 178.881C673.873 178.881 673.32 178.735 672.829 178.443C672.342 178.152 671.956 177.727 671.671 177.17C671.389 176.614 671.248 175.937 671.248 175.142C671.248 174.36 671.386 173.679 671.661 173.099C671.936 172.515 672.319 172.065 672.809 171.746C673.3 171.425 673.867 171.264 674.509 171.264C675.007 171.264 675.401 171.347 675.693 171.513C675.988 171.675 676.213 171.861 676.369 172.07C676.528 172.275 676.651 172.444 676.737 172.577H676.856V171.364H677.99V179.219C677.99 179.875 677.84 180.409 677.542 180.82C677.247 181.234 676.849 181.537 676.349 181.729C675.852 181.925 675.298 182.023 674.688 182.023ZM674.649 177.827C675.119 177.827 675.517 177.719 675.842 177.504C676.167 177.288 676.414 176.978 676.583 176.574C676.752 176.17 676.836 175.686 676.836 175.122C676.836 174.572 676.753 174.086 676.588 173.665C676.422 173.245 676.177 172.915 675.852 172.676C675.527 172.437 675.126 172.318 674.649 172.318C674.152 172.318 673.737 172.444 673.406 172.696C673.078 172.948 672.831 173.286 672.665 173.71C672.503 174.134 672.421 174.605 672.421 175.122C672.421 175.652 672.504 176.121 672.67 176.529C672.839 176.933 673.088 177.252 673.416 177.484C673.747 177.712 674.158 177.827 674.649 177.827Z" fill="#9F9F9F"/>
<path d="M726 51C726 48.7909 727.791 47 730 47H738C740.209 47 742 48.7909 742 51V154H726V51Z" fill="#E8E8E8"/>
<path d="M750 44C750 41.7909 751.791 40 754 40H762C764.209 40 766 41.7909 766 44V154H750V44Z" fill="#299D91"/>
<path d="M739.997 171.364C739.938 170.86 739.696 170.469 739.272 170.19C738.847 169.912 738.327 169.773 737.71 169.773C737.26 169.773 736.865 169.846 736.527 169.991C736.193 170.137 735.931 170.338 735.742 170.593C735.556 170.848 735.463 171.138 735.463 171.463C735.463 171.735 735.528 171.969 735.657 172.164C735.79 172.356 735.959 172.517 736.164 172.646C736.37 172.772 736.585 172.877 736.811 172.96C737.036 173.039 737.243 173.104 737.432 173.153L738.466 173.432C738.731 173.501 739.026 173.598 739.351 173.72C739.679 173.843 739.992 174.01 740.291 174.222C740.592 174.431 740.841 174.7 741.036 175.028C741.232 175.356 741.33 175.759 741.33 176.236C741.33 176.786 741.186 177.283 740.897 177.727C740.612 178.171 740.195 178.524 739.644 178.786C739.098 179.048 738.433 179.179 737.651 179.179C736.922 179.179 736.29 179.061 735.757 178.826C735.226 178.591 734.809 178.263 734.504 177.842C734.202 177.421 734.032 176.932 733.992 176.375H735.264C735.298 176.759 735.427 177.078 735.652 177.33C735.881 177.578 736.169 177.764 736.517 177.886C736.869 178.006 737.246 178.065 737.651 178.065C738.121 178.065 738.544 177.989 738.919 177.837C739.293 177.681 739.59 177.465 739.809 177.19C740.027 176.912 740.137 176.587 740.137 176.216C740.137 175.878 740.042 175.603 739.853 175.391C739.664 175.179 739.416 175.006 739.108 174.874C738.799 174.741 738.466 174.625 738.108 174.526L736.855 174.168C736.06 173.939 735.43 173.612 734.966 173.188C734.502 172.764 734.27 172.209 734.27 171.523C734.27 170.953 734.424 170.455 734.733 170.031C735.044 169.604 735.462 169.272 735.985 169.037C736.512 168.798 737.101 168.679 737.75 168.679C738.407 168.679 738.99 168.797 739.5 169.032C740.011 169.264 740.415 169.582 740.713 169.987C741.015 170.391 741.174 170.85 741.191 171.364H739.997ZM746.4 179.159C745.664 179.159 745.029 178.997 744.495 178.672C743.965 178.344 743.556 177.886 743.267 177.3C742.982 176.71 742.84 176.024 742.84 175.241C742.84 174.459 742.982 173.77 743.267 173.173C743.556 172.573 743.957 172.106 744.471 171.771C744.988 171.433 745.591 171.264 746.28 171.264C746.678 171.264 747.071 171.33 747.459 171.463C747.846 171.596 748.199 171.811 748.517 172.109C748.836 172.404 749.089 172.795 749.278 173.283C749.467 173.77 749.562 174.37 749.562 175.082V175.58H743.675V174.565H748.368C748.368 174.134 748.282 173.75 748.11 173.412C747.941 173.074 747.699 172.807 747.384 172.612C747.072 172.416 746.705 172.318 746.28 172.318C745.813 172.318 745.409 172.434 745.067 172.666C744.729 172.895 744.469 173.193 744.287 173.561C744.104 173.929 744.013 174.323 744.013 174.744V175.42C744.013 175.997 744.113 176.486 744.312 176.887C744.514 177.285 744.794 177.588 745.152 177.797C745.51 178.002 745.926 178.105 746.4 178.105C746.708 178.105 746.986 178.062 747.235 177.976C747.487 177.886 747.704 177.754 747.886 177.578C748.068 177.399 748.209 177.177 748.309 176.912L749.442 177.23C749.323 177.615 749.122 177.953 748.841 178.244C748.559 178.533 748.211 178.758 747.797 178.92C747.382 179.08 746.917 179.159 746.4 179.159ZM751.346 181.864V171.364H752.48V172.577H752.619C752.705 172.444 752.825 172.275 752.977 172.07C753.133 171.861 753.355 171.675 753.643 171.513C753.935 171.347 754.329 171.264 754.826 171.264C755.469 171.264 756.036 171.425 756.527 171.746C757.017 172.068 757.4 172.524 757.675 173.114C757.95 173.704 758.088 174.4 758.088 175.202C758.088 176.01 757.95 176.711 757.675 177.305C757.4 177.895 757.019 178.352 756.532 178.677C756.044 178.998 755.483 179.159 754.846 179.159C754.356 179.159 753.963 179.078 753.668 178.915C753.373 178.75 753.146 178.562 752.987 178.354C752.828 178.142 752.705 177.966 752.619 177.827H752.52V181.864H751.346ZM752.5 175.182C752.5 175.759 752.584 176.267 752.753 176.708C752.922 177.146 753.169 177.489 753.494 177.737C753.819 177.982 754.217 178.105 754.687 178.105C755.178 178.105 755.587 177.976 755.915 177.717C756.247 177.455 756.495 177.104 756.661 176.663C756.83 176.219 756.915 175.725 756.915 175.182C756.915 174.645 756.832 174.161 756.666 173.73C756.504 173.296 756.257 172.953 755.925 172.701C755.597 172.446 755.184 172.318 754.687 172.318C754.21 172.318 753.809 172.439 753.484 172.681C753.159 172.92 752.914 173.254 752.748 173.685C752.583 174.113 752.5 174.612 752.5 175.182Z" fill="#9F9F9F"/>
<path d="M806 51C806 48.7909 807.791 47 810 47H818C820.209 47 822 48.7909 822 51V154H806V51Z" fill="#E8E8E8"/>
<path d="M830 44C830 41.7909 831.791 40 834 40H842C844.209 40 846 41.7909 846 44V154H830V44Z" fill="#299D91"/>
<path d="M824.039 173.909C824.039 174.983 823.845 175.911 823.457 176.693C823.069 177.475 822.537 178.079 821.861 178.503C821.185 178.927 820.413 179.139 819.544 179.139C818.676 179.139 817.904 178.927 817.228 178.503C816.551 178.079 816.02 177.475 815.632 176.693C815.244 175.911 815.05 174.983 815.05 173.909C815.05 172.835 815.244 171.907 815.632 171.125C816.02 170.343 816.551 169.74 817.228 169.315C817.904 168.891 818.676 168.679 819.544 168.679C820.413 168.679 821.185 168.891 821.861 169.315C822.537 169.74 823.069 170.343 823.457 171.125C823.845 171.907 824.039 172.835 824.039 173.909ZM822.846 173.909C822.846 173.027 822.698 172.283 822.403 171.677C822.111 171.07 821.715 170.611 821.215 170.3C820.718 169.988 820.161 169.832 819.544 169.832C818.928 169.832 818.369 169.988 817.869 170.3C817.372 170.611 816.976 171.07 816.681 171.677C816.389 172.283 816.243 173.027 816.243 173.909C816.243 174.791 816.389 175.535 816.681 176.141C816.976 176.748 817.372 177.207 817.869 177.518C818.369 177.83 818.928 177.986 819.544 177.986C820.161 177.986 820.718 177.83 821.215 177.518C821.715 177.207 822.111 176.748 822.403 176.141C822.698 175.535 822.846 174.791 822.846 173.909ZM829.055 179.159C828.339 179.159 827.723 178.99 827.206 178.652C826.689 178.314 826.291 177.848 826.012 177.255C825.734 176.662 825.595 175.984 825.595 175.222C825.595 174.446 825.737 173.762 826.022 173.168C826.311 172.572 826.712 172.106 827.225 171.771C827.743 171.433 828.346 171.264 829.035 171.264C829.572 171.264 830.056 171.364 830.487 171.562C830.918 171.761 831.271 172.04 831.546 172.398C831.821 172.756 831.992 173.173 832.058 173.651H830.885C830.795 173.303 830.596 172.994 830.288 172.726C829.983 172.454 829.572 172.318 829.055 172.318C828.598 172.318 828.197 172.437 827.852 172.676C827.511 172.911 827.244 173.245 827.051 173.675C826.863 174.103 826.768 174.605 826.768 175.182C826.768 175.772 826.861 176.286 827.047 176.723C827.235 177.161 827.501 177.5 827.842 177.742C828.187 177.984 828.591 178.105 829.055 178.105C829.36 178.105 829.637 178.052 829.885 177.946C830.134 177.84 830.344 177.688 830.517 177.489C830.689 177.29 830.812 177.051 830.885 176.773H832.058C831.992 177.223 831.828 177.629 831.566 177.991C831.307 178.349 830.964 178.634 830.537 178.846C830.112 179.055 829.618 179.159 829.055 179.159ZM837.094 171.364V172.358H833.137V171.364H837.094ZM834.29 169.534H835.463V176.812C835.463 177.144 835.511 177.393 835.608 177.558C835.707 177.721 835.833 177.83 835.985 177.886C836.141 177.939 836.305 177.966 836.478 177.966C836.607 177.966 836.713 177.959 836.796 177.946C836.879 177.929 836.945 177.916 836.995 177.906L837.233 178.96C837.154 178.99 837.043 179.02 836.9 179.05C836.758 179.083 836.577 179.099 836.358 179.099C836.027 179.099 835.702 179.028 835.384 178.886C835.069 178.743 834.807 178.526 834.598 178.234C834.393 177.943 834.29 177.575 834.29 177.131V169.534Z" fill="#9F9F9F"/>
<path d="M886 71C886 68.7909 887.791 67 890 67H898C900.209 67 902 68.7909 902 71V154H886V71Z" fill="#E8E8E8"/>
<path d="M910 98C910 95.7909 911.791 94 914 94H922C924.209 94 926 95.7909 926 98V154H910V98Z" fill="#299D91"/>
<path d="M902.1 168.818V179H900.907L895.358 171.006H895.259V179H894.026V168.818H895.219L900.787 176.832H900.887V168.818H902.1ZM907.51 179.159C906.821 179.159 906.216 178.995 905.695 178.667C905.178 178.339 904.774 177.88 904.482 177.29C904.194 176.7 904.05 176.01 904.05 175.222C904.05 174.426 904.194 173.732 904.482 173.138C904.774 172.545 905.178 172.085 905.695 171.756C906.216 171.428 906.821 171.264 907.51 171.264C908.2 171.264 908.803 171.428 909.32 171.756C909.84 172.085 910.244 172.545 910.533 173.138C910.825 173.732 910.97 174.426 910.97 175.222C910.97 176.01 910.825 176.7 910.533 177.29C910.244 177.88 909.84 178.339 909.32 178.667C908.803 178.995 908.2 179.159 907.51 179.159ZM907.51 178.105C908.034 178.105 908.465 177.971 908.803 177.702C909.141 177.434 909.391 177.081 909.553 176.643C909.716 176.206 909.797 175.732 909.797 175.222C909.797 174.711 909.716 174.236 909.553 173.795C909.391 173.354 909.141 172.998 908.803 172.726C908.465 172.454 908.034 172.318 907.51 172.318C906.986 172.318 906.556 172.454 906.218 172.726C905.879 172.998 905.629 173.354 905.467 173.795C905.304 174.236 905.223 174.711 905.223 175.222C905.223 175.732 905.304 176.206 905.467 176.643C905.629 177.081 905.879 177.434 906.218 177.702C906.556 177.971 906.986 178.105 907.51 178.105ZM918.732 171.364L915.908 179H914.715L911.891 171.364H913.164L915.272 177.449H915.352L917.46 171.364H918.732Z" fill="#9F9F9F"/>
<path d="M966 71C966 68.7909 967.791 67 970 67H978C980.209 67 982 68.7909 982 71V154H966V71Z" fill="#E8E8E8"/>
<path d="M990 50C990 47.7909 991.791 46 994 46H1002C1004.21 46 1006 47.7909 1006 50V154H990V50Z" fill="#299D91"/>
<path d="M977.359 179H974.217V168.818H977.499C978.486 168.818 979.331 169.022 980.034 169.43C980.737 169.834 981.275 170.416 981.65 171.175C982.024 171.93 982.212 172.835 982.212 173.889C982.212 174.95 982.023 175.863 981.645 176.629C981.267 177.391 980.717 177.978 979.994 178.388C979.272 178.796 978.393 179 977.359 179ZM975.45 177.906H977.28C978.122 177.906 978.819 177.744 979.373 177.419C979.926 177.094 980.339 176.632 980.611 176.032C980.883 175.432 981.018 174.718 981.018 173.889C981.018 173.067 980.884 172.36 980.616 171.766C980.347 171.17 979.946 170.712 979.413 170.394C978.879 170.073 978.214 169.912 977.419 169.912H975.45V177.906ZM987.322 179.159C986.587 179.159 985.952 178.997 985.418 178.672C984.888 178.344 984.479 177.886 984.19 177.3C983.905 176.71 983.763 176.024 983.763 175.241C983.763 174.459 983.905 173.77 984.19 173.173C984.479 172.573 984.88 172.106 985.393 171.771C985.911 171.433 986.514 171.264 987.203 171.264C987.601 171.264 987.994 171.33 988.381 171.463C988.769 171.596 989.122 171.811 989.44 172.109C989.759 172.404 990.012 172.795 990.201 173.283C990.39 173.77 990.484 174.37 990.484 175.082V175.58H984.598V174.565H989.291C989.291 174.134 989.205 173.75 989.033 173.412C988.864 173.074 988.622 172.807 988.307 172.612C987.995 172.416 987.627 172.318 987.203 172.318C986.736 172.318 986.331 172.434 985.99 172.666C985.652 172.895 985.392 173.193 985.21 173.561C985.027 173.929 984.936 174.323 984.936 174.744V175.42C984.936 175.997 985.036 176.486 985.234 176.887C985.437 177.285 985.717 177.588 986.075 177.797C986.433 178.002 986.848 178.105 987.322 178.105C987.631 178.105 987.909 178.062 988.158 177.976C988.41 177.886 988.627 177.754 988.809 177.578C988.991 177.399 989.132 177.177 989.232 176.912L990.365 177.23C990.246 177.615 990.045 177.953 989.763 178.244C989.482 178.533 989.134 178.758 988.719 178.92C988.305 179.08 987.839 179.159 987.322 179.159ZM995.371 179.159C994.656 179.159 994.039 178.99 993.522 178.652C993.005 178.314 992.607 177.848 992.329 177.255C992.05 176.662 991.911 175.984 991.911 175.222C991.911 174.446 992.054 173.762 992.339 173.168C992.627 172.572 993.028 172.106 993.542 171.771C994.059 171.433 994.662 171.264 995.352 171.264C995.888 171.264 996.372 171.364 996.803 171.562C997.234 171.761 997.587 172.04 997.862 172.398C998.137 172.756 998.308 173.173 998.374 173.651H997.201C997.112 173.303 996.913 172.994 996.604 172.726C996.299 172.454 995.888 172.318 995.371 172.318C994.914 172.318 994.513 172.437 994.168 172.676C993.827 172.911 993.56 173.245 993.368 173.675C993.179 174.103 993.085 174.605 993.085 175.182C993.085 175.772 993.177 176.286 993.363 176.723C993.552 177.161 993.817 177.5 994.158 177.742C994.503 177.984 994.907 178.105 995.371 178.105C995.676 178.105 995.953 178.052 996.202 177.946C996.45 177.84 996.661 177.688 996.833 177.489C997.005 177.29 997.128 177.051 997.201 176.773H998.374C998.308 177.223 998.144 177.629 997.882 177.991C997.624 178.349 997.281 178.634 996.853 178.846C996.429 179.055 995.935 179.159 995.371 179.159Z" fill="#9F9F9F"/>
</svg>
