<svg width="40" height="46" viewBox="0 0 40 46" fill="none" xmlns="http://www.w3.org/2000/svg">
<rect width="40" height="46" rx="8" fill="#D1D1D1"/>
<path d="M18.3333 16V17.7842L20 18.8342V17.5789H28.3333V29.4211H24.1667V31H30V16H18.3333ZM16.25 18.3684L10 22.3158V31H22.5V22.3158L16.25 18.3684ZM21.6667 19.1579V19.8921L23.0083 20.7368H23.3333V19.1579H21.6667ZM25 19.1579V20.7368H26.6667V19.1579H25ZM16.25 20.3421L20.8333 23.1053V29.4211H18.3333V24.6842H14.1667V29.4211H11.6667V23.1053L16.25 20.3421ZM25 22.3158V23.8947H26.6667V22.3158H25ZM25 25.4737V27.0526H26.6667V25.4737H25Z" fill="#525256"/>
</svg>
