<svg width="40" height="46" viewBox="0 0 40 46" fill="none" xmlns="http://www.w3.org/2000/svg">
<rect width="40" height="46" rx="8" fill="#D1D1D1"/>
<path d="M14 33C13.45 33 12.979 32.804 12.587 32.412C12.195 32.02 11.9993 31.5493 12 31V19C12 18.45 12.196 17.979 12.588 17.587C12.98 17.195 13.4507 16.9993 14 17H16C16 15.9 16.3917 14.9583 17.175 14.175C17.9583 13.3917 18.9 13 20 13C21.1 13 22.0417 13.3917 22.825 14.175C23.6083 14.9583 24 15.9 24 17H26C26.55 17 27.021 17.196 27.413 17.588C27.805 17.98 28.0007 18.4507 28 19V31C28 31.55 27.804 32.021 27.412 32.413C27.02 32.805 26.5493 33.0007 26 33H14ZM14 31H26V19H24V21C24 21.2833 23.904 21.521 23.712 21.713C23.52 21.905 23.2827 22.0007 23 22C22.7167 22 22.479 21.904 22.287 21.712C22.095 21.52 21.9993 21.2827 22 21V19H18V21C18 21.2833 17.904 21.521 17.712 21.713C17.52 21.905 17.2827 22.0007 17 22C16.7167 22 16.479 21.904 16.287 21.712C16.095 21.52 15.9993 21.2827 16 21V19H14V31ZM18 17H22C22 16.45 21.804 15.979 21.412 15.587C21.02 15.195 20.5493 14.9993 20 15C19.45 15 18.979 15.196 18.587 15.588C18.195 15.98 17.9993 16.4507 18 17Z" fill="#525256"/>
</svg>
