<svg width="40" height="46" viewBox="0 0 40 46" fill="none" xmlns="http://www.w3.org/2000/svg">
<rect width="40" height="46" rx="8" fill="#D1D1D1"/>
<path d="M18 33V26.65L19.625 22H28.375L30 26.65V33H28V31.5H20V33H18ZM20 25.5H28L27.3 23.5H20.7L20 25.5ZM21 29.5C21.2833 29.5 21.521 29.404 21.713 29.212C21.9043 29.0207 22 28.7833 22 28.5C22 28.2167 21.9043 27.9793 21.713 27.788C21.521 27.596 21.2833 27.5 21 27.5C20.7167 27.5 20.4793 27.596 20.288 27.788C20.096 27.9793 20 28.2167 20 28.5C20 28.7833 20.096 29.0207 20.288 29.212C20.4793 29.404 20.7167 29.5 21 29.5ZM27 29.5C27.2833 29.5 27.5207 29.404 27.712 29.212C27.904 29.0207 28 28.7833 28 28.5C28 28.2167 27.904 27.9793 27.712 27.788C27.5207 27.596 27.2833 27.5 27 27.5C26.7167 27.5 26.4793 27.596 26.288 27.788C26.096 27.9793 26 28.2167 26 28.5C26 28.7833 26.096 29.0207 26.288 29.212C26.4793 29.404 26.7167 29.5 27 29.5ZM14 25V23H16V25H14ZM19 19V17H21V19H19ZM14 29V27H16V29H14ZM14 33V31H16V33H14ZM10 33V19H15V13H25V20H23V15H17V21H12V33H10ZM19.5 30H28.5V27H19.5V30Z" fill="#525256"/>
</svg>
