<svg width="143" height="131" viewBox="0 0 143 131" fill="none" xmlns="http://www.w3.org/2000/svg">
<path fill-rule="evenodd" clip-rule="evenodd" d="M63.4999 31.7584C64.24 31.2639 65.11 31 66 31C66.5714 31 67.0346 31.4632 67.0346 32.0346C67.0346 32.6061 66.5714 33.0693 66 33.0693C65.5193 33.0693 65.0493 33.2118 64.6496 33.4789C64.2498 33.746 63.9383 34.1256 63.7543 34.5698C63.5703 35.014 63.5222 35.5027 63.616 35.9742C63.7098 36.4457 63.9413 36.8788 64.2812 37.2188C64.6212 37.5587 65.0543 37.7902 65.5258 37.884C65.9973 37.9778 66.486 37.9297 66.9302 37.7457C67.3744 37.5617 67.754 37.2502 68.0211 36.8504C68.2882 36.4507 68.4307 35.9807 68.4307 35.5C68.4307 34.9286 68.8939 34.4654 69.4654 34.4654C70.0368 34.4654 70.5 34.9286 70.5 35.5C70.5 36.39 70.2361 37.26 69.7416 38.0001C69.2471 38.7401 68.5443 39.3169 67.7221 39.6575C66.8998 39.998 65.995 40.0872 65.1221 39.9135C64.2492 39.7399 63.4474 39.3113 62.818 38.682C62.1887 38.0526 61.7601 37.2508 61.5865 36.3779C61.4128 35.505 61.5019 34.6002 61.8425 33.7779C62.1831 32.9557 62.7599 32.2529 63.4999 31.7584Z" fill="#878787"/>
<path fill-rule="evenodd" clip-rule="evenodd" d="M88.4802 37C89.0434 37 89.5 37.4661 89.5 38.041V46.7574C89.5 51.2164 88.6375 54.6085 86.4439 56.8604C84.2489 59.1136 80.9407 60 76.594 60H66.406C62.0606 60 58.7526 59.114 56.5572 56.861C54.3632 54.6094 53.5 51.2173 53.5 46.7574V43.2528C53.5 42.6779 53.9566 42.2118 54.5198 42.2118C55.0829 42.2118 55.5395 42.6779 55.5395 43.2528V46.7574C55.5395 51.014 56.3759 53.7227 58.0032 55.3928C59.6292 57.0615 62.2643 57.9181 66.406 57.9181H76.594C80.7371 57.9181 83.3721 57.0611 84.9977 55.3923C86.6248 53.7221 87.4605 51.0134 87.4605 46.7574V38.041C87.4605 37.4661 87.9171 37 88.4802 37Z" fill="#878787"/>
<path fill-rule="evenodd" clip-rule="evenodd" d="M56.5997 27.0753C58.8242 24.8682 62.1763 24 66.5827 24H73.4716C74.0396 24 74.5 24.4568 74.5 25.0203C74.5 25.5838 74.0396 26.0406 73.4716 26.0406H66.5827C62.3792 26.0406 59.7042 26.8811 58.0541 28.5182C56.4039 30.1554 55.5568 32.8094 55.5568 36.9797C55.5568 37.5432 55.0964 38 54.5284 38C53.9604 38 53.5 37.5432 53.5 36.9797C53.5 32.608 54.3751 29.2823 56.5997 27.0753Z" fill="#878787"/>
<path fill-rule="evenodd" clip-rule="evenodd" d="M76.5 30C76.5 29.4477 76.9792 29 77.5704 29H87.4296C88.0208 29 88.5 29.4477 88.5 30C88.5 30.5523 88.0208 31 87.4296 31H77.5704C76.9792 31 76.5 30.5523 76.5 30Z" fill="#878787"/>
<path fill-rule="evenodd" clip-rule="evenodd" d="M82.5 24C83.0523 24 83.5 24.4792 83.5 25.0704V34.9296C83.5 35.5208 83.0523 36 82.5 36C81.9477 36 81.5 35.5208 81.5 34.9296V25.0704C81.5 24.4792 81.9477 24 82.5 24Z" fill="#878787"/>
<path fill-rule="evenodd" clip-rule="evenodd" d="M81.5496 43.675L74.4723 49.8014L74.4535 49.8173C73.5931 50.5267 72.5135 50.9145 71.3993 50.9145C70.2851 50.9145 69.2055 50.5267 68.3451 49.8173C68.3358 49.8096 68.3267 49.8018 68.3177 49.7939L67.7713 49.3101C67.3139 48.941 66.7519 48.7253 66.1651 48.694C65.5746 48.6624 64.9894 48.8191 64.4934 49.1414L56.0972 54.8241C55.6286 55.1413 54.992 55.0177 54.6755 54.5481C54.359 54.0784 54.4823 53.4405 54.951 53.1233L63.3681 47.4264C64.2295 46.8634 65.2473 46.5897 66.2741 46.6445C67.301 46.6994 68.2839 47.0802 69.0806 47.7318C69.0909 47.7402 69.1011 47.7489 69.1111 47.7578L69.6591 48.2429C70.1508 48.6434 70.7653 48.8622 71.3993 48.8622C72.0351 48.8622 72.6512 48.6422 73.1436 48.2396L80.2209 42.1131L80.2397 42.0972C81.1002 41.3878 82.1797 41 83.2939 41C84.4081 41 85.4877 41.3878 86.3481 42.0972L86.367 42.1132L89.1454 44.5185C89.5734 44.889 89.6206 45.537 89.2509 45.9659C88.8812 46.3947 88.2345 46.4421 87.8066 46.0716L85.0382 43.6749C84.5458 43.2723 83.9297 43.0523 83.2939 43.0523C82.6582 43.0523 82.0421 43.2723 81.5496 43.675Z" fill="#878787"/>
<path d="M43.8603 78.2727H44.9171V84.0511C44.9171 84.6477 44.7765 85.1804 44.4952 85.6491C44.2168 86.1151 43.8233 86.483 43.3148 86.7528C42.8063 87.0199 42.2097 87.1534 41.525 87.1534C40.8404 87.1534 40.2438 87.0199 39.7353 86.7528C39.2267 86.483 38.8319 86.1151 38.5506 85.6491C38.2722 85.1804 38.133 84.6477 38.133 84.0511V78.2727H39.1898V83.9659C39.1898 84.392 39.2836 84.7713 39.4711 85.1037C39.6586 85.4332 39.9256 85.6932 40.2722 85.8835C40.6216 86.071 41.0392 86.1648 41.525 86.1648C42.0108 86.1648 42.4284 86.071 42.7779 85.8835C43.1273 85.6932 43.3944 85.4332 43.579 85.1037C43.7665 84.7713 43.8603 84.392 43.8603 83.9659V78.2727ZM46.8912 89.4545V80.4545H47.8627V81.4943H47.9821C48.0559 81.3807 48.1582 81.2358 48.2889 81.0597C48.4224 80.8807 48.6127 80.7216 48.8599 80.5824C49.1099 80.4403 49.448 80.3693 49.8741 80.3693C50.4252 80.3693 50.911 80.5071 51.3315 80.7827C51.752 81.0582 52.0801 81.4489 52.3159 81.9545C52.5517 82.4602 52.6696 83.0568 52.6696 83.7443C52.6696 84.4375 52.5517 85.0384 52.3159 85.5469C52.0801 86.0526 51.7534 86.4446 51.3358 86.723C50.9181 86.9986 50.4366 87.1364 49.8912 87.1364C49.4707 87.1364 49.1341 87.0668 48.8812 86.9276C48.6284 86.7855 48.4338 86.625 48.2974 86.446C48.161 86.2642 48.0559 86.1136 47.9821 85.9943H47.8968V89.4545H46.8912ZM47.8798 83.7273C47.8798 84.2216 47.9522 84.6577 48.0971 85.0355C48.242 85.4105 48.4537 85.7045 48.7321 85.9176C49.0105 86.1278 49.3514 86.233 49.7548 86.233C50.1752 86.233 50.5261 86.1222 50.8074 85.9006C51.0914 85.6761 51.3045 85.375 51.4466 84.9972C51.5914 84.6165 51.6639 84.1932 51.6639 83.7273C51.6639 83.267 51.5929 82.8523 51.4508 82.483C51.3116 82.1108 51.1 81.8168 50.8159 81.6009C50.5346 81.3821 50.1809 81.2727 49.7548 81.2727C49.3457 81.2727 49.002 81.3764 48.7235 81.5838C48.4451 81.7884 48.2349 82.0753 48.0929 82.4446C47.9508 82.8111 47.8798 83.2386 47.8798 83.7273ZM55.2093 78.2727V87H54.2037V78.2727H55.2093ZM59.7104 87.1364C59.1195 87.1364 58.601 86.9957 58.155 86.7145C57.7118 86.4332 57.3652 86.0398 57.1152 85.5341C56.8681 85.0284 56.7445 84.4375 56.7445 83.7614C56.7445 83.0795 56.8681 82.4844 57.1152 81.9759C57.3652 81.4673 57.7118 81.0724 58.155 80.7912C58.601 80.5099 59.1195 80.3693 59.7104 80.3693C60.3013 80.3693 60.8184 80.5099 61.2615 80.7912C61.7076 81.0724 62.0542 81.4673 62.3013 81.9759C62.5513 82.4844 62.6763 83.0795 62.6763 83.7614C62.6763 84.4375 62.5513 85.0284 62.3013 85.5341C62.0542 86.0398 61.7076 86.4332 61.2615 86.7145C60.8184 86.9957 60.3013 87.1364 59.7104 87.1364ZM59.7104 86.233C60.1593 86.233 60.5286 86.1179 60.8184 85.8878C61.1081 85.6577 61.3226 85.3551 61.4618 84.9801C61.601 84.6051 61.6706 84.1989 61.6706 83.7614C61.6706 83.3239 61.601 82.9162 61.4618 82.5384C61.3226 82.1605 61.1081 81.8551 60.8184 81.6222C60.5286 81.3892 60.1593 81.2727 59.7104 81.2727C59.2615 81.2727 58.8922 81.3892 58.6025 81.6222C58.3127 81.8551 58.0982 82.1605 57.959 82.5384C57.8198 82.9162 57.7502 83.3239 57.7502 83.7614C57.7502 84.1989 57.8198 84.6051 57.959 84.9801C58.0982 85.3551 58.3127 85.6577 58.6025 85.8878C58.8922 86.1179 59.2615 86.233 59.7104 86.233ZM66.1376 87.1534C65.7228 87.1534 65.3464 87.0753 65.0083 86.919C64.6703 86.7599 64.4018 86.5312 64.2029 86.233C64.0041 85.9318 63.9047 85.5682 63.9047 85.142C63.9047 84.767 63.9785 84.4631 64.1262 84.2301C64.274 83.9943 64.4714 83.8097 64.7186 83.6761C64.9657 83.5426 65.2385 83.4432 65.5368 83.3778C65.8379 83.3097 66.1404 83.2557 66.4444 83.2159C66.8422 83.1648 67.1646 83.1264 67.4118 83.1009C67.6618 83.0724 67.8436 83.0256 67.9572 82.9602C68.0737 82.8949 68.1319 82.7812 68.1319 82.6193V82.5852C68.1319 82.1648 68.0169 81.8381 67.7868 81.6051C67.5595 81.3722 67.2143 81.2557 66.7512 81.2557C66.2711 81.2557 65.8947 81.3608 65.622 81.571C65.3493 81.7812 65.1575 82.0057 65.0467 82.2443L64.0922 81.9034C64.2626 81.5057 64.4899 81.196 64.774 80.9744C65.0609 80.75 65.3734 80.5937 65.7115 80.5057C66.0524 80.4148 66.3876 80.3693 66.7172 80.3693C66.9274 80.3693 67.1689 80.3949 67.4416 80.446C67.7172 80.4943 67.9828 80.5952 68.2385 80.7486C68.497 80.902 68.7115 81.1335 68.8819 81.4432C69.0524 81.7528 69.1376 82.1676 69.1376 82.6875V87H68.1319V86.1136H68.0808C68.0126 86.2557 67.899 86.4077 67.7399 86.5696C67.5808 86.7315 67.3691 86.8693 67.1049 86.983C66.8407 87.0966 66.5183 87.1534 66.1376 87.1534ZM66.291 86.25C66.6887 86.25 67.024 86.1719 67.2967 86.0156C67.5723 85.8594 67.7797 85.6577 67.9189 85.4105C68.0609 85.1634 68.1319 84.9034 68.1319 84.6307V83.7102C68.0893 83.7614 67.9956 83.8082 67.8507 83.8509C67.7086 83.8906 67.5439 83.9261 67.3564 83.9574C67.1717 83.9858 66.9913 84.0114 66.8152 84.0341C66.6419 84.054 66.5012 84.071 66.3933 84.0852C66.1319 84.1193 65.8876 84.1747 65.6603 84.2514C65.4359 84.3253 65.2541 84.4375 65.1149 84.5881C64.9785 84.7358 64.9103 84.9375 64.9103 85.1932C64.9103 85.5426 65.0396 85.8068 65.2981 85.9858C65.5595 86.1619 65.8904 86.25 66.291 86.25ZM73.4448 87.1364C72.8993 87.1364 72.4178 86.9986 72.0002 86.723C71.5826 86.4446 71.2559 86.0526 71.0201 85.5469C70.7843 85.0384 70.6664 84.4375 70.6664 83.7443C70.6664 83.0568 70.7843 82.4602 71.0201 81.9545C71.2559 81.4489 71.584 81.0582 72.0044 80.7827C72.4249 80.5071 72.9107 80.3693 73.4618 80.3693C73.888 80.3693 74.2246 80.4403 74.4718 80.5824C74.7218 80.7216 74.9121 80.8807 75.0428 81.0597C75.1763 81.2358 75.28 81.3807 75.3539 81.4943H75.4391V78.2727H76.4448V87H75.4732V85.9943H75.3539C75.28 86.1136 75.1749 86.2642 75.0385 86.446C74.9022 86.625 74.7076 86.7855 74.4547 86.9276C74.2019 87.0668 73.8652 87.1364 73.4448 87.1364ZM73.5811 86.233C73.9846 86.233 74.3255 86.1278 74.6039 85.9176C74.8823 85.7045 75.0939 85.4105 75.2388 85.0355C75.3837 84.6577 75.4561 84.2216 75.4561 83.7273C75.4561 83.2386 75.3851 82.8111 75.2431 82.4446C75.101 82.0753 74.8908 81.7884 74.6124 81.5838C74.334 81.3764 73.9902 81.2727 73.5811 81.2727C73.155 81.2727 72.7999 81.3821 72.5158 81.6009C72.2346 81.8168 72.0229 82.1108 71.8809 82.483C71.7417 82.8523 71.6721 83.267 71.6721 83.7273C71.6721 84.1932 71.7431 84.6165 71.8851 84.9972C72.03 85.375 72.2431 85.6761 72.5243 85.9006C72.8084 86.1222 73.1607 86.233 73.5811 86.233ZM82.449 89.4545C82.2786 89.4545 82.1266 89.4403 81.9931 89.4119C81.8596 89.3864 81.7672 89.3608 81.7161 89.3352L81.9718 88.4489C82.2161 88.5114 82.432 88.5341 82.6195 88.517C82.807 88.5 82.9732 88.4162 83.1181 88.2656C83.2658 88.1179 83.4007 87.8778 83.5229 87.5455L83.7104 87.0341L81.29 80.4545H82.3809L84.1877 85.6705H84.2559L86.0627 80.4545H87.1536L84.3752 87.9545C84.2502 88.2926 84.0953 88.5724 83.9107 88.794C83.726 89.0185 83.5115 89.1847 83.2672 89.2926C83.0257 89.4006 82.753 89.4545 82.449 89.4545ZM90.9057 87.1364C90.3148 87.1364 89.7963 86.9957 89.3503 86.7145C88.9071 86.4332 88.5605 86.0398 88.3105 85.5341C88.0634 85.0284 87.9398 84.4375 87.9398 83.7614C87.9398 83.0795 88.0634 82.4844 88.3105 81.9759C88.5605 81.4673 88.9071 81.0724 89.3503 80.7912C89.7963 80.5099 90.3148 80.3693 90.9057 80.3693C91.4966 80.3693 92.0137 80.5099 92.4569 80.7912C92.9029 81.0724 93.2495 81.4673 93.4966 81.9759C93.7466 82.4844 93.8716 83.0795 93.8716 83.7614C93.8716 84.4375 93.7466 85.0284 93.4966 85.5341C93.2495 86.0398 92.9029 86.4332 92.4569 86.7145C92.0137 86.9957 91.4966 87.1364 90.9057 87.1364ZM90.9057 86.233C91.3546 86.233 91.7239 86.1179 92.0137 85.8878C92.3034 85.6577 92.5179 85.3551 92.6571 84.9801C92.7963 84.6051 92.8659 84.1989 92.8659 83.7614C92.8659 83.3239 92.7963 82.9162 92.6571 82.5384C92.5179 82.1605 92.3034 81.8551 92.0137 81.6222C91.7239 81.3892 91.3546 81.2727 90.9057 81.2727C90.4569 81.2727 90.0875 81.3892 89.7978 81.6222C89.508 81.8551 89.2935 82.1605 89.1543 82.5384C89.0151 82.9162 88.9455 83.3239 88.9455 83.7614C88.9455 84.1989 89.0151 84.6051 89.1543 84.9801C89.2935 85.3551 89.508 85.6577 89.7978 85.8878C90.0875 86.1179 90.4569 86.233 90.9057 86.233ZM99.5318 84.3239V80.4545H100.537V87H99.5318V85.892H99.4636C99.3102 86.2244 99.0716 86.5071 98.7477 86.7401C98.4238 86.9702 98.0147 87.0852 97.5204 87.0852C97.1113 87.0852 96.7477 86.9957 96.4295 86.8168C96.1113 86.6349 95.8613 86.3622 95.6795 85.9986C95.4977 85.6321 95.4068 85.1705 95.4068 84.6136V80.4545H96.4125V84.5455C96.4125 85.0227 96.546 85.4034 96.813 85.6875C97.0829 85.9716 97.4267 86.1136 97.8443 86.1136C98.0943 86.1136 98.3485 86.0497 98.6071 85.9219C98.8684 85.794 99.0872 85.598 99.2633 85.3338C99.4423 85.0696 99.5318 84.733 99.5318 84.3239ZM102.379 87V80.4545H103.351V81.4432H103.419C103.539 81.1193 103.754 80.8565 104.067 80.6548C104.379 80.4531 104.732 80.3523 105.124 80.3523C105.198 80.3523 105.29 80.3537 105.401 80.3565C105.512 80.3594 105.595 80.3636 105.652 80.3693V81.392C105.618 81.3835 105.54 81.3707 105.418 81.3537C105.298 81.3338 105.172 81.3239 105.039 81.3239C104.72 81.3239 104.436 81.3906 104.186 81.5241C103.939 81.6548 103.743 81.8366 103.598 82.0696C103.456 82.2997 103.385 82.5625 103.385 82.858V87H102.379ZM55.9146 105.455V96.4545H56.8862V97.4943H57.0055C57.0794 97.3807 57.1816 97.2358 57.3123 97.0597C57.4458 96.8807 57.6362 96.7216 57.8833 96.5824C58.1333 96.4403 58.4714 96.3693 58.8975 96.3693C59.4487 96.3693 59.9345 96.5071 60.3549 96.7827C60.7754 97.0582 61.1035 97.4489 61.3393 97.9545C61.5751 98.4602 61.693 99.0568 61.693 99.7443C61.693 100.438 61.5751 101.038 61.3393 101.547C61.1035 102.053 60.7768 102.445 60.3592 102.723C59.9416 102.999 59.46 103.136 58.9146 103.136C58.4941 103.136 58.1575 103.067 57.9047 102.928C57.6518 102.786 57.4572 102.625 57.3208 102.446C57.1845 102.264 57.0794 102.114 57.0055 101.994H56.9203V105.455H55.9146ZM56.9032 99.7273C56.9032 100.222 56.9757 100.658 57.1206 101.036C57.2654 101.411 57.4771 101.705 57.7555 101.918C58.0339 102.128 58.3748 102.233 58.7782 102.233C59.1987 102.233 59.5495 102.122 59.8308 101.901C60.1149 101.676 60.3279 101.375 60.47 100.997C60.6149 100.616 60.6873 100.193 60.6873 99.7273C60.6873 99.267 60.6163 98.8523 60.4743 98.483C60.335 98.1108 60.1234 97.8168 59.8393 97.6009C59.5581 97.3821 59.2044 97.2727 58.7782 97.2727C58.3691 97.2727 58.0254 97.3764 57.747 97.5838C57.4686 97.7884 57.2583 98.0753 57.1163 98.4446C56.9743 98.8111 56.9032 99.2386 56.9032 99.7273ZM64.2328 99.0625V103H63.2271V94.2727H64.2328V97.4773H64.318C64.4714 97.1392 64.7015 96.8707 65.0083 96.6719C65.318 96.4702 65.7299 96.3693 66.2441 96.3693C66.6902 96.3693 67.0808 96.4588 67.416 96.6378C67.7512 96.8139 68.0112 97.0852 68.1958 97.4517C68.3833 97.8153 68.4771 98.2784 68.4771 98.8409V103H67.4714V98.9091C67.4714 98.3892 67.3365 97.9872 67.0666 97.7031C66.7995 97.4162 66.4288 97.2727 65.9544 97.2727C65.6248 97.2727 65.3294 97.3423 65.068 97.4815C64.8095 97.6207 64.6049 97.8239 64.4544 98.0909C64.3066 98.358 64.2328 98.6818 64.2328 99.0625ZM72.976 103.136C72.3851 103.136 71.8667 102.996 71.4206 102.714C70.9775 102.433 70.6309 102.04 70.3809 101.534C70.1337 101.028 70.0101 100.437 70.0101 99.7614C70.0101 99.0795 70.1337 98.4844 70.3809 97.9759C70.6309 97.4673 70.9775 97.0724 71.4206 96.7912C71.8667 96.5099 72.3851 96.3693 72.976 96.3693C73.5669 96.3693 74.084 96.5099 74.5272 96.7912C74.9732 97.0724 75.3198 97.4673 75.5669 97.9759C75.8169 98.4844 75.9419 99.0795 75.9419 99.7614C75.9419 100.437 75.8169 101.028 75.5669 101.534C75.3198 102.04 74.9732 102.433 74.5272 102.714C74.084 102.996 73.5669 103.136 72.976 103.136ZM72.976 102.233C73.4249 102.233 73.7942 102.118 74.084 101.888C74.3738 101.658 74.5882 101.355 74.7275 100.98C74.8667 100.605 74.9363 100.199 74.9363 99.7614C74.9363 99.3239 74.8667 98.9162 74.7275 98.5384C74.5882 98.1605 74.3738 97.8551 74.084 97.6222C73.7942 97.3892 73.4249 97.2727 72.976 97.2727C72.5272 97.2727 72.1578 97.3892 71.8681 97.6222C71.5783 97.8551 71.3638 98.1605 71.2246 98.5384C71.0854 98.9162 71.0158 99.3239 71.0158 99.7614C71.0158 100.199 71.0854 100.605 71.2246 100.98C71.3638 101.355 71.5783 101.658 71.8681 101.888C72.1578 102.118 72.5272 102.233 72.976 102.233ZM80.3237 96.4545V97.3068H76.9316V96.4545H80.3237ZM77.9203 94.8864H78.926V101.125C78.926 101.409 78.9672 101.622 79.0495 101.764C79.1348 101.903 79.2427 101.997 79.3734 102.045C79.5069 102.091 79.6475 102.114 79.7953 102.114C79.9061 102.114 79.997 102.108 80.068 102.097C80.139 102.082 80.1958 102.071 80.2385 102.062L80.443 102.966C80.3748 102.991 80.2797 103.017 80.1575 103.043C80.0353 103.071 79.8805 103.085 79.693 103.085C79.4089 103.085 79.1305 103.024 78.8578 102.902C78.5879 102.78 78.3635 102.594 78.1845 102.344C78.0083 102.094 77.9203 101.778 77.9203 101.398V94.8864ZM84.4252 103.136C83.8343 103.136 83.3159 102.996 82.8699 102.714C82.4267 102.433 82.0801 102.04 81.8301 101.534C81.5829 101.028 81.4593 100.437 81.4593 99.7614C81.4593 99.0795 81.5829 98.4844 81.8301 97.9759C82.0801 97.4673 82.4267 97.0724 82.8699 96.7912C83.3159 96.5099 83.8343 96.3693 84.4252 96.3693C85.0162 96.3693 85.5332 96.5099 85.9764 96.7912C86.4224 97.0724 86.769 97.4673 87.0162 97.9759C87.2662 98.4844 87.3912 99.0795 87.3912 99.7614C87.3912 100.437 87.2662 101.028 87.0162 101.534C86.769 102.04 86.4224 102.433 85.9764 102.714C85.5332 102.996 85.0162 103.136 84.4252 103.136ZM84.4252 102.233C84.8741 102.233 85.2434 102.118 85.5332 101.888C85.823 101.658 86.0375 101.355 86.1767 100.98C86.3159 100.605 86.3855 100.199 86.3855 99.7614C86.3855 99.3239 86.3159 98.9162 86.1767 98.5384C86.0375 98.1605 85.823 97.8551 85.5332 97.6222C85.2434 97.3892 84.8741 97.2727 84.4252 97.2727C83.9764 97.2727 83.6071 97.3892 83.3173 97.6222C83.0275 97.8551 82.813 98.1605 82.6738 98.5384C82.5346 98.9162 82.465 99.3239 82.465 99.7614C82.465 100.199 82.5346 100.605 82.6738 100.98C82.813 101.355 83.0275 101.658 83.3173 101.888C83.6071 102.118 83.9764 102.233 84.4252 102.233Z" fill="#9F9F9F"/>
<rect x="1" y="0.5" width="141" height="130" rx="7.5" stroke="#9F9F9F" stroke-linecap="round" stroke-dasharray="5 5"/>
</svg>
