<svg width="40" height="48" viewBox="0 0 40 48" fill="none" xmlns="http://www.w3.org/2000/svg">
<rect width="40" height="48" rx="8" fill="#D2D2D2" fill-opacity="0.25"/>
<path d="M22.7503 19.46L20.0003 15.93L21.9703 15.54L24.7103 19.07L22.7503 19.46ZM29.6203 18.1L28.8403 14.18L24.9103 14.96L27.6503 18.5L29.6203 18.1ZM19.8103 20.05L17.0703 16.5L15.1003 16.91L17.8503 20.44L19.8103 20.05ZM12.1603 17.5L11.1803 17.69C10.9227 17.7408 10.6777 17.8419 10.4592 17.9876C10.2408 18.1333 10.0533 18.3207 9.90744 18.539C9.76158 18.7574 9.66025 19.0023 9.60926 19.2599C9.55828 19.5175 9.55864 19.7826 9.61032 20.04L10.0003 22L14.9003 21.03L12.1603 17.5ZM12.0003 32V24H28.0003V25.09C28.7203 25.21 29.3903 25.46 30.0003 25.81V22H10.0003V32C10.0003 32.5304 10.211 33.0391 10.5861 33.4142C10.9612 33.7893 11.4699 34 12.0003 34H21.8103C21.4603 33.39 21.2203 32.72 21.0903 32H12.0003ZM29.3403 27.84L25.7503 31.43L24.1603 29.84L23.0003 31L25.7503 34L30.5003 29.25L29.3403 27.84Z" fill="#525256"/>
</svg>
