<svg width="665" height="188" viewBox="0 0 665 188" fill="none" xmlns="http://www.w3.org/2000/svg">
<path d="M8.36151 16.2727V3.54545H9.17685V16.2727H8.36151ZM11.1058 7.36364C11.0462 6.85985 10.8042 6.46875 10.38 6.19034C9.95573 5.91193 9.43537 5.77273 8.81889 5.77273C8.36813 5.77273 7.97372 5.84564 7.63565 5.99148C7.3009 6.13731 7.03906 6.33783 6.85014 6.59304C6.66454 6.84825 6.57173 7.13826 6.57173 7.46307C6.57173 7.73485 6.63636 7.96851 6.76562 8.16406C6.8982 8.3563 7.06723 8.51705 7.27273 8.64631C7.47822 8.77225 7.69366 8.87666 7.91903 8.95952C8.14441 9.03906 8.35156 9.10369 8.54048 9.15341L9.57457 9.43182C9.83973 9.50142 10.1347 9.59754 10.4595 9.72017C10.7876 9.8428 11.1009 10.0102 11.3991 10.2223C11.7008 10.4311 11.9493 10.6996 12.1449 11.0277C12.3404 11.3558 12.4382 11.7585 12.4382 12.2358C12.4382 12.786 12.294 13.2831 12.0057 13.7273C11.7206 14.1714 11.303 14.5244 10.7528 14.7862C10.206 15.0481 9.54143 15.179 8.75923 15.179C8.03007 15.179 7.39867 15.0613 6.86506 14.826C6.33475 14.5907 5.91714 14.2625 5.61222 13.8416C5.31061 13.4207 5.13991 12.9318 5.10014 12.375H6.37287C6.40601 12.7595 6.53527 13.0777 6.76065 13.3295C6.98935 13.5781 7.2777 13.7637 7.62571 13.8864C7.97704 14.0057 8.35488 14.0653 8.75923 14.0653C9.22988 14.0653 9.65246 13.9891 10.027 13.8366C10.4015 13.6809 10.6982 13.4654 10.9169 13.1903C11.1357 12.9119 11.245 12.5871 11.245 12.2159C11.245 11.8778 11.1506 11.6027 10.9616 11.3906C10.7727 11.1785 10.5241 11.0062 10.2159 10.8736C9.90767 10.741 9.57457 10.625 9.21662 10.5256L7.96378 10.1676C7.16832 9.93892 6.53859 9.61245 6.07457 9.18821C5.61056 8.76397 5.37855 8.20881 5.37855 7.52273C5.37855 6.95265 5.53267 6.45549 5.84091 6.03125C6.15246 5.60369 6.57008 5.27225 7.09375 5.03693C7.62074 4.7983 8.20904 4.67898 8.85866 4.67898C9.51491 4.67898 10.0982 4.79664 10.6087 5.03196C11.1191 5.26397 11.5234 5.58215 11.8217 5.98651C12.1233 6.39086 12.2824 6.8499 12.299 7.36364H11.1058ZM17.4682 15.1392C16.8849 15.1392 16.3596 15.0232 15.8922 14.7912C15.4249 14.5592 15.0504 14.241 14.7686 13.8366C14.4869 13.4323 14.3328 12.9716 14.3063 12.4545H15.4995C15.5459 12.9152 15.7547 13.2964 16.1259 13.598C16.5004 13.8963 16.9479 14.0455 17.4682 14.0455C17.8858 14.0455 18.257 13.9477 18.5819 13.7521C18.91 13.5566 19.1668 13.2881 19.3525 12.9467C19.5414 12.602 19.6358 12.2126 19.6358 11.7784C19.6358 11.3343 19.5381 10.9382 19.3425 10.5902C19.1503 10.2389 18.8851 9.96212 18.5471 9.75994C18.209 9.55776 17.8229 9.45502 17.3887 9.4517C17.0771 9.44839 16.7573 9.49645 16.4292 9.59588C16.101 9.692 15.8309 9.81629 15.6188 9.96875L14.4654 9.82955L15.0819 4.81818H20.3716V5.91193H16.1159L15.758 8.91477H15.8176C16.0265 8.74905 16.2883 8.61151 16.6032 8.50213C16.918 8.39276 17.2462 8.33807 17.5875 8.33807C18.2106 8.33807 18.7658 8.48722 19.253 8.78551C19.7435 9.08049 20.128 9.48485 20.4064 9.99858C20.6882 10.5123 20.829 11.099 20.829 11.7585C20.829 12.4081 20.6832 12.9882 20.3915 13.4986C20.1032 14.0057 19.7054 14.4067 19.1983 14.7017C18.6912 14.9934 18.1145 15.1392 17.4682 15.1392ZM26.125 15.1392C25.3759 15.1392 24.7379 14.9354 24.2109 14.5277C23.6839 14.1167 23.2813 13.5218 23.0028 12.7429C22.7244 11.9607 22.5852 11.0161 22.5852 9.90909C22.5852 8.80871 22.7244 7.86908 23.0028 7.0902C23.2846 6.308 23.6889 5.71141 24.2159 5.30043C24.7462 4.88613 25.3826 4.67898 26.125 4.67898C26.8674 4.67898 27.5021 4.88613 28.0291 5.30043C28.5594 5.71141 28.9638 6.308 29.2422 7.0902C29.5239 7.86908 29.6648 8.80871 29.6648 9.90909C29.6648 11.0161 29.5256 11.9607 29.2472 12.7429C28.9688 13.5218 28.5661 14.1167 28.0391 14.5277C27.5121 14.9354 26.8741 15.1392 26.125 15.1392ZM26.125 14.0455C26.8674 14.0455 27.4441 13.6875 27.8551 12.9716C28.2661 12.2557 28.4716 11.2348 28.4716 9.90909C28.4716 9.02746 28.3771 8.27675 28.1882 7.65696C28.0026 7.03717 27.7341 6.56487 27.3828 6.24006C27.0348 5.91525 26.6155 5.75284 26.125 5.75284C25.3892 5.75284 24.8142 6.11577 24.3999 6.84162C23.9856 7.56416 23.7784 8.58665 23.7784 9.90909C23.7784 10.7907 23.8712 11.5398 24.0568 12.1562C24.2424 12.7727 24.5092 13.2417 24.8572 13.5632C25.2086 13.8847 25.6312 14.0455 26.125 14.0455ZM34.875 15.1392C34.1259 15.1392 33.4879 14.9354 32.9609 14.5277C32.4339 14.1167 32.0313 13.5218 31.7528 12.7429C31.4744 11.9607 31.3352 11.0161 31.3352 9.90909C31.3352 8.80871 31.4744 7.86908 31.7528 7.0902C32.0346 6.308 32.4389 5.71141 32.9659 5.30043C33.4962 4.88613 34.1326 4.67898 34.875 4.67898C35.6174 4.67898 36.2521 4.88613 36.7791 5.30043C37.3094 5.71141 37.7138 6.308 37.9922 7.0902C38.2739 7.86908 38.4148 8.80871 38.4148 9.90909C38.4148 11.0161 38.2756 11.9607 37.9972 12.7429C37.7188 13.5218 37.3161 14.1167 36.7891 14.5277C36.2621 14.9354 35.6241 15.1392 34.875 15.1392ZM34.875 14.0455C35.6174 14.0455 36.1941 13.6875 36.6051 12.9716C37.0161 12.2557 37.2216 11.2348 37.2216 9.90909C37.2216 9.02746 37.1271 8.27675 36.9382 7.65696C36.7526 7.03717 36.4841 6.56487 36.1328 6.24006C35.7848 5.91525 35.3655 5.75284 34.875 5.75284C34.1392 5.75284 33.5642 6.11577 33.1499 6.84162C32.7356 7.56416 32.5284 8.58665 32.5284 9.90909C32.5284 10.7907 32.6212 11.5398 32.8068 12.1562C32.9924 12.7727 33.2592 13.2417 33.6072 13.5632C33.9586 13.8847 34.3812 14.0455 34.875 14.0455ZM43.625 15.1392C42.8759 15.1392 42.2379 14.9354 41.7109 14.5277C41.1839 14.1167 40.7813 13.5218 40.5028 12.7429C40.2244 11.9607 40.0852 11.0161 40.0852 9.90909C40.0852 8.80871 40.2244 7.86908 40.5028 7.0902C40.7846 6.308 41.1889 5.71141 41.7159 5.30043C42.2462 4.88613 42.8826 4.67898 43.625 4.67898C44.3674 4.67898 45.0021 4.88613 45.5291 5.30043C46.0594 5.71141 46.4638 6.308 46.7422 7.0902C47.0239 7.86908 47.1648 8.80871 47.1648 9.90909C47.1648 11.0161 47.0256 11.9607 46.7472 12.7429C46.4688 13.5218 46.0661 14.1167 45.5391 14.5277C45.0121 14.9354 44.3741 15.1392 43.625 15.1392ZM43.625 14.0455C44.3674 14.0455 44.9441 13.6875 45.3551 12.9716C45.7661 12.2557 45.9716 11.2348 45.9716 9.90909C45.9716 9.02746 45.8771 8.27675 45.6882 7.65696C45.5026 7.03717 45.2341 6.56487 44.8828 6.24006C44.5348 5.91525 44.1155 5.75284 43.625 5.75284C42.8892 5.75284 42.3142 6.11577 41.8999 6.84162C41.4856 7.56416 41.2784 8.58665 41.2784 9.90909C41.2784 10.7907 41.3712 11.5398 41.5568 12.1562C41.7424 12.7727 42.0092 13.2417 42.3572 13.5632C42.7086 13.8847 43.1312 14.0455 43.625 14.0455Z" fill="#9F9F9F"/>
<path d="M8.40252 66.2727V53.5455H9.21786V66.2727H8.40252ZM11.1468 57.3636C11.0872 56.8598 10.8452 56.4688 10.421 56.1903C9.99675 55.9119 9.47639 55.7727 8.85991 55.7727C8.40915 55.7727 8.01474 55.8456 7.67667 55.9915C7.34192 56.1373 7.08008 56.3378 6.89116 56.593C6.70555 56.8482 6.61275 57.1383 6.61275 57.4631C6.61275 57.7348 6.67738 57.9685 6.80664 58.1641C6.93922 58.3563 7.10825 58.517 7.31374 58.6463C7.51924 58.7723 7.73467 58.8767 7.96005 58.9595C8.18543 59.0391 8.39258 59.1037 8.5815 59.1534L9.61559 59.4318C9.88074 59.5014 10.1757 59.5975 10.5005 59.7202C10.8287 59.8428 11.1419 60.0102 11.4402 60.2223C11.7418 60.4311 11.9904 60.6996 12.1859 61.0277C12.3815 61.3558 12.4792 61.7585 12.4792 62.2358C12.4792 62.786 12.3351 63.2831 12.0467 63.7273C11.7617 64.1714 11.344 64.5244 10.7939 64.7862C10.247 65.0481 9.58245 65.179 8.80025 65.179C8.07108 65.179 7.43969 65.0613 6.90607 64.826C6.37577 64.5907 5.95816 64.2625 5.65323 63.8416C5.35162 63.4207 5.18093 62.9318 5.14116 62.375H6.41389C6.44703 62.7595 6.57629 63.0777 6.80167 63.3295C7.03036 63.5781 7.31871 63.7637 7.66673 63.8864C8.01805 64.0057 8.39589 64.0653 8.80025 64.0653C9.27089 64.0653 9.69348 63.9891 10.068 63.8366C10.4425 63.6809 10.7392 63.4654 10.9579 63.1903C11.1767 62.9119 11.286 62.5871 11.286 62.2159C11.286 61.8778 11.1916 61.6027 11.0027 61.3906C10.8137 61.1785 10.5652 61.0062 10.2569 60.8736C9.94869 60.741 9.61559 60.625 9.25764 60.5256L8.00479 60.1676C7.20934 59.9389 6.5796 59.6125 6.11559 59.1882C5.65157 58.764 5.41957 58.2088 5.41957 57.5227C5.41957 56.9527 5.57369 56.4555 5.88192 56.0312C6.19348 55.6037 6.61109 55.2723 7.13477 55.0369C7.66175 54.7983 8.25006 54.679 8.89968 54.679C9.55593 54.679 10.1393 54.7966 10.6497 55.032C11.1601 55.264 11.5645 55.5821 11.8627 55.9865C12.1644 56.3909 12.3234 56.8499 12.34 57.3636H11.1468ZM14.3274 65V64.1051L17.6882 60.4261C18.0826 59.9953 18.4074 59.6207 18.6626 59.3026C18.9179 58.9811 19.1068 58.6795 19.2294 58.3977C19.3554 58.1127 19.4183 57.8144 19.4183 57.5028C19.4183 57.1449 19.3321 56.835 19.1598 56.5732C18.9908 56.3113 18.7588 56.1091 18.4638 55.9666C18.1688 55.8241 17.8374 55.7528 17.4695 55.7528C17.0784 55.7528 16.737 55.834 16.4453 55.9964C16.157 56.1555 15.9332 56.3793 15.7741 56.6676C15.6184 56.956 15.5405 57.294 15.5405 57.6818H14.3672C14.3672 57.0852 14.5047 56.5616 14.7798 56.1108C15.0549 55.66 15.4295 55.3087 15.9034 55.0568C16.3807 54.8049 16.916 54.679 17.5092 54.679C18.1058 54.679 18.6345 54.8049 19.0952 55.0568C19.5559 55.3087 19.9171 55.6484 20.179 56.076C20.4408 56.5036 20.5717 56.9792 20.5717 57.5028C20.5717 57.8774 20.5038 58.2436 20.3679 58.6016C20.2353 58.9562 20.0033 59.3523 19.6719 59.7898C19.3438 60.224 18.888 60.7543 18.3047 61.3807L16.0178 63.8267V63.9062H20.7507V65H14.3274ZM26.125 65.1392C25.3759 65.1392 24.7379 64.9354 24.2109 64.5277C23.6839 64.1167 23.2813 63.5218 23.0028 62.7429C22.7244 61.9607 22.5852 61.0161 22.5852 59.9091C22.5852 58.8087 22.7244 57.8691 23.0028 57.0902C23.2846 56.308 23.6889 55.7114 24.2159 55.3004C24.7462 54.8861 25.3826 54.679 26.125 54.679C26.8674 54.679 27.5021 54.8861 28.0291 55.3004C28.5594 55.7114 28.9638 56.308 29.2422 57.0902C29.5239 57.8691 29.6648 58.8087 29.6648 59.9091C29.6648 61.0161 29.5256 61.9607 29.2472 62.7429C28.9688 63.5218 28.5661 64.1167 28.0391 64.5277C27.5121 64.9354 26.8741 65.1392 26.125 65.1392ZM26.125 64.0455C26.8674 64.0455 27.4441 63.6875 27.8551 62.9716C28.2661 62.2557 28.4716 61.2348 28.4716 59.9091C28.4716 59.0275 28.3771 58.2768 28.1882 57.657C28.0026 57.0372 27.7341 56.5649 27.3828 56.2401C27.0348 55.9152 26.6155 55.7528 26.125 55.7528C25.3892 55.7528 24.8142 56.1158 24.3999 56.8416C23.9856 57.5642 23.7784 58.5866 23.7784 59.9091C23.7784 60.7907 23.8712 61.5398 24.0568 62.1562C24.2424 62.7727 24.5092 63.2417 24.8572 63.5632C25.2086 63.8847 25.6312 64.0455 26.125 64.0455ZM34.875 65.1392C34.1259 65.1392 33.4879 64.9354 32.9609 64.5277C32.4339 64.1167 32.0313 63.5218 31.7528 62.7429C31.4744 61.9607 31.3352 61.0161 31.3352 59.9091C31.3352 58.8087 31.4744 57.8691 31.7528 57.0902C32.0346 56.308 32.4389 55.7114 32.9659 55.3004C33.4962 54.8861 34.1326 54.679 34.875 54.679C35.6174 54.679 36.2521 54.8861 36.7791 55.3004C37.3094 55.7114 37.7138 56.308 37.9922 57.0902C38.2739 57.8691 38.4148 58.8087 38.4148 59.9091C38.4148 61.0161 38.2756 61.9607 37.9972 62.7429C37.7188 63.5218 37.3161 64.1167 36.7891 64.5277C36.2621 64.9354 35.6241 65.1392 34.875 65.1392ZM34.875 64.0455C35.6174 64.0455 36.1941 63.6875 36.6051 62.9716C37.0161 62.2557 37.2216 61.2348 37.2216 59.9091C37.2216 59.0275 37.1271 58.2768 36.9382 57.657C36.7526 57.0372 36.4841 56.5649 36.1328 56.2401C35.7848 55.9152 35.3655 55.7528 34.875 55.7528C34.1392 55.7528 33.5642 56.1158 33.1499 56.8416C32.7356 57.5642 32.5284 58.5866 32.5284 59.9091C32.5284 60.7907 32.6212 61.5398 32.8068 62.1562C32.9924 62.7727 33.2592 63.2417 33.6072 63.5632C33.9586 63.8847 34.3812 64.0455 34.875 64.0455ZM43.625 65.1392C42.8759 65.1392 42.2379 64.9354 41.7109 64.5277C41.1839 64.1167 40.7813 63.5218 40.5028 62.7429C40.2244 61.9607 40.0852 61.0161 40.0852 59.9091C40.0852 58.8087 40.2244 57.8691 40.5028 57.0902C40.7846 56.308 41.1889 55.7114 41.7159 55.3004C42.2462 54.8861 42.8826 54.679 43.625 54.679C44.3674 54.679 45.0021 54.8861 45.5291 55.3004C46.0594 55.7114 46.4638 56.308 46.7422 57.0902C47.0239 57.8691 47.1648 58.8087 47.1648 59.9091C47.1648 61.0161 47.0256 61.9607 46.7472 62.7429C46.4688 63.5218 46.0661 64.1167 45.5391 64.5277C45.0121 64.9354 44.3741 65.1392 43.625 65.1392ZM43.625 64.0455C44.3674 64.0455 44.9441 63.6875 45.3551 62.9716C45.7661 62.2557 45.9716 61.2348 45.9716 59.9091C45.9716 59.0275 45.8771 58.2768 45.6882 57.657C45.5026 57.0372 45.2341 56.5649 44.8828 56.2401C44.5348 55.9152 44.1155 55.7528 43.625 55.7528C42.8892 55.7528 42.3142 56.1158 41.8999 56.8416C41.4856 57.5642 41.2784 58.5866 41.2784 59.9091C41.2784 60.7907 41.3712 61.5398 41.5568 62.1562C41.7424 62.7727 42.0092 63.2417 42.3572 63.5632C42.7086 63.8847 43.1312 64.0455 43.625 64.0455Z" fill="#9F9F9F"/>
<path d="M17.1115 116.273V103.545H17.9268V116.273H17.1115ZM19.8558 107.364C19.7962 106.86 19.5542 106.469 19.13 106.19C18.7057 105.912 18.1854 105.773 17.5689 105.773C17.1181 105.773 16.7237 105.846 16.3857 105.991C16.0509 106.137 15.7891 106.338 15.6001 106.593C15.4145 106.848 15.3217 107.138 15.3217 107.463C15.3217 107.735 15.3864 107.969 15.5156 108.164C15.6482 108.356 15.8172 108.517 16.0227 108.646C16.2282 108.772 16.4437 108.877 16.669 108.96C16.8944 109.039 17.1016 109.104 17.2905 109.153L18.3246 109.432C18.5897 109.501 18.8847 109.598 19.2095 109.72C19.5376 109.843 19.8509 110.01 20.1491 110.222C20.4508 110.431 20.6993 110.7 20.8949 111.028C21.0904 111.356 21.1882 111.759 21.1882 112.236C21.1882 112.786 21.044 113.283 20.7557 113.727C20.4706 114.171 20.053 114.524 19.5028 114.786C18.956 115.048 18.2914 115.179 17.5092 115.179C16.7801 115.179 16.1487 115.061 15.6151 114.826C15.0848 114.591 14.6671 114.263 14.3622 113.842C14.0606 113.421 13.8899 112.932 13.8501 112.375H15.1229C15.156 112.759 15.2853 113.078 15.5107 113.33C15.7393 113.578 16.0277 113.764 16.3757 113.886C16.727 114.006 17.1049 114.065 17.5092 114.065C17.9799 114.065 18.4025 113.989 18.777 113.837C19.1515 113.681 19.4482 113.465 19.6669 113.19C19.8857 112.912 19.995 112.587 19.995 112.216C19.995 111.878 19.9006 111.603 19.7116 111.391C19.5227 111.179 19.2741 111.006 18.9659 110.874C18.6577 110.741 18.3246 110.625 17.9666 110.526L16.7138 110.168C15.9183 109.939 15.2886 109.612 14.8246 109.188C14.3606 108.764 14.1286 108.209 14.1286 107.523C14.1286 106.953 14.2827 106.455 14.5909 106.031C14.9025 105.604 15.3201 105.272 15.8438 105.037C16.3707 104.798 16.959 104.679 17.6087 104.679C18.2649 104.679 18.8482 104.797 19.3587 105.032C19.8691 105.264 20.2734 105.582 20.5717 105.987C20.8733 106.391 21.0324 106.85 21.049 107.364H19.8558ZM26.2182 115.139C25.6349 115.139 25.1096 115.023 24.6422 114.791C24.1749 114.559 23.8004 114.241 23.5186 113.837C23.2369 113.432 23.0828 112.972 23.0563 112.455H24.2495C24.2959 112.915 24.5047 113.296 24.8759 113.598C25.2504 113.896 25.6979 114.045 26.2182 114.045C26.6358 114.045 27.007 113.948 27.3319 113.752C27.66 113.557 27.9168 113.288 28.1025 112.947C28.2914 112.602 28.3858 112.213 28.3858 111.778C28.3858 111.334 28.2881 110.938 28.0925 110.59C27.9003 110.239 27.6351 109.962 27.2971 109.76C26.959 109.558 26.5729 109.455 26.1387 109.452C25.8271 109.448 25.5073 109.496 25.1792 109.596C24.851 109.692 24.5809 109.816 24.3688 109.969L23.2154 109.83L23.8319 104.818H29.1216V105.912H24.8659L24.508 108.915H24.5676C24.7765 108.749 25.0383 108.612 25.3532 108.502C25.668 108.393 25.9962 108.338 26.3375 108.338C26.9606 108.338 27.5158 108.487 28.003 108.786C28.4935 109.08 28.878 109.485 29.1564 109.999C29.4382 110.512 29.579 111.099 29.579 111.759C29.579 112.408 29.4332 112.988 29.1415 113.499C28.8532 114.006 28.4554 114.407 27.9483 114.702C27.4412 114.993 26.8645 115.139 26.2182 115.139ZM34.875 115.139C34.1259 115.139 33.4879 114.935 32.9609 114.528C32.4339 114.117 32.0313 113.522 31.7528 112.743C31.4744 111.961 31.3352 111.016 31.3352 109.909C31.3352 108.809 31.4744 107.869 31.7528 107.09C32.0346 106.308 32.4389 105.711 32.9659 105.3C33.4962 104.886 34.1326 104.679 34.875 104.679C35.6174 104.679 36.2521 104.886 36.7791 105.3C37.3094 105.711 37.7138 106.308 37.9922 107.09C38.2739 107.869 38.4148 108.809 38.4148 109.909C38.4148 111.016 38.2756 111.961 37.9972 112.743C37.7188 113.522 37.3161 114.117 36.7891 114.528C36.2621 114.935 35.6241 115.139 34.875 115.139ZM34.875 114.045C35.6174 114.045 36.1941 113.687 36.6051 112.972C37.0161 112.256 37.2216 111.235 37.2216 109.909C37.2216 109.027 37.1271 108.277 36.9382 107.657C36.7526 107.037 36.4841 106.565 36.1328 106.24C35.7848 105.915 35.3655 105.753 34.875 105.753C34.1392 105.753 33.5642 106.116 33.1499 106.842C32.7356 107.564 32.5284 108.587 32.5284 109.909C32.5284 110.791 32.6212 111.54 32.8068 112.156C32.9924 112.773 33.2592 113.242 33.6072 113.563C33.9586 113.885 34.3812 114.045 34.875 114.045ZM43.625 115.139C42.8759 115.139 42.2379 114.935 41.7109 114.528C41.1839 114.117 40.7813 113.522 40.5028 112.743C40.2244 111.961 40.0852 111.016 40.0852 109.909C40.0852 108.809 40.2244 107.869 40.5028 107.09C40.7846 106.308 41.1889 105.711 41.7159 105.3C42.2462 104.886 42.8826 104.679 43.625 104.679C44.3674 104.679 45.0021 104.886 45.5291 105.3C46.0594 105.711 46.4638 106.308 46.7422 107.09C47.0239 107.869 47.1648 108.809 47.1648 109.909C47.1648 111.016 47.0256 111.961 46.7472 112.743C46.4688 113.522 46.0661 114.117 45.5391 114.528C45.0121 114.935 44.3741 115.139 43.625 115.139ZM43.625 114.045C44.3674 114.045 44.9441 113.687 45.3551 112.972C45.7661 112.256 45.9716 111.235 45.9716 109.909C45.9716 109.027 45.8771 108.277 45.6882 107.657C45.5026 107.037 45.2341 106.565 44.8828 106.24C44.5348 105.915 44.1155 105.753 43.625 105.753C42.8892 105.753 42.3142 106.116 41.8999 106.842C41.4856 107.564 41.2784 108.587 41.2784 109.909C41.2784 110.791 41.3712 111.54 41.5568 112.156C41.7424 112.773 42.0092 113.242 42.3572 113.563C42.7086 113.885 43.1312 114.045 43.625 114.045Z" fill="#9F9F9F"/>
<path d="M34.3791 166.273V153.545H35.1944V166.273H34.3791ZM37.1234 157.364C37.0637 156.86 36.8218 156.469 36.3975 156.19C35.9733 155.912 35.4529 155.773 34.8365 155.773C34.3857 155.773 33.9913 155.846 33.6532 155.991C33.3185 156.137 33.0566 156.338 32.8677 156.593C32.6821 156.848 32.5893 157.138 32.5893 157.463C32.5893 157.735 32.6539 157.969 32.7832 158.164C32.9158 158.356 33.0848 158.517 33.2903 158.646C33.4958 158.772 33.7112 158.877 33.9366 158.96C34.162 159.039 34.3691 159.104 34.5581 159.153L35.5922 159.432C35.8573 159.501 36.1523 159.598 36.4771 159.72C36.8052 159.843 37.1184 160.01 37.4167 160.222C37.7183 160.431 37.9669 160.7 38.1625 161.028C38.358 161.356 38.4558 161.759 38.4558 162.236C38.4558 162.786 38.3116 163.283 38.0233 163.727C37.7382 164.171 37.3206 164.524 36.7704 164.786C36.2235 165.048 35.559 165.179 34.7768 165.179C34.0476 165.179 33.4163 165.061 32.8826 164.826C32.3523 164.591 31.9347 164.263 31.6298 163.842C31.3282 163.421 31.1575 162.932 31.1177 162.375H32.3904C32.4236 162.759 32.5529 163.078 32.7782 163.33C33.0069 163.578 33.2953 163.764 33.6433 163.886C33.9946 164.006 34.3725 164.065 34.7768 164.065C35.2475 164.065 35.67 163.989 36.0446 163.837C36.4191 163.681 36.7157 163.465 36.9345 163.19C37.1532 162.912 37.2626 162.587 37.2626 162.216C37.2626 161.878 37.1681 161.603 36.9792 161.391C36.7903 161.179 36.5417 161.006 36.2335 160.874C35.9252 160.741 35.5922 160.625 35.2342 160.526L33.9814 160.168C33.1859 159.939 32.5562 159.612 32.0922 159.188C31.6281 158.764 31.3961 158.209 31.3961 157.523C31.3961 156.953 31.5502 156.455 31.8585 156.031C32.17 155.604 32.5877 155.272 33.1113 155.037C33.6383 154.798 34.2266 154.679 34.8762 154.679C35.5325 154.679 36.1158 154.797 36.6262 155.032C37.1367 155.264 37.541 155.582 37.8393 155.987C38.1409 156.391 38.3 156.85 38.3166 157.364H37.1234ZM43.625 165.139C42.8759 165.139 42.2379 164.935 41.7109 164.528C41.1839 164.117 40.7813 163.522 40.5028 162.743C40.2244 161.961 40.0852 161.016 40.0852 159.909C40.0852 158.809 40.2244 157.869 40.5028 157.09C40.7846 156.308 41.1889 155.711 41.7159 155.3C42.2462 154.886 42.8826 154.679 43.625 154.679C44.3674 154.679 45.0021 154.886 45.5291 155.3C46.0594 155.711 46.4638 156.308 46.7422 157.09C47.0239 157.869 47.1648 158.809 47.1648 159.909C47.1648 161.016 47.0256 161.961 46.7472 162.743C46.4688 163.522 46.0661 164.117 45.5391 164.528C45.0121 164.935 44.3741 165.139 43.625 165.139ZM43.625 164.045C44.3674 164.045 44.9441 163.687 45.3551 162.972C45.7661 162.256 45.9716 161.235 45.9716 159.909C45.9716 159.027 45.8771 158.277 45.6882 157.657C45.5026 157.037 45.2341 156.565 44.8828 156.24C44.5348 155.915 44.1155 155.753 43.625 155.753C42.8892 155.753 42.3142 156.116 41.8999 156.842C41.4856 157.564 41.2784 158.587 41.2784 159.909C41.2784 160.791 41.3712 161.54 41.5568 162.156C41.7424 162.773 42.0092 163.242 42.3572 163.563C42.7086 163.885 43.1312 164.045 43.625 164.045Z" fill="#9F9F9F"/>
<line x1="106.5" y1="2" x2="106.5" y2="152" stroke="#E8E8E8"/>
<path d="M83.3432 172.818H85.2076L88.449 180.733H88.5684L91.8098 172.818H93.6742V183H92.2125V175.632H92.1181L89.1152 182.985H87.9022L84.8993 175.627H84.8049V183H83.3432V172.818ZM98.0107 183.169C97.5268 183.169 97.0893 183.08 96.6982 182.901C96.3071 182.718 95.9972 182.455 95.7685 182.11C95.5431 181.765 95.4304 181.343 95.4304 180.842C95.4304 180.411 95.5133 180.057 95.679 179.778C95.8447 179.5 96.0684 179.28 96.3501 179.117C96.6319 178.955 96.9467 178.832 97.2947 178.749C97.6428 178.666 97.9974 178.603 98.3587 178.56C98.8161 178.507 99.1873 178.464 99.4723 178.431C99.7573 178.395 99.9645 178.337 100.094 178.257C100.223 178.178 100.288 178.048 100.288 177.869V177.835C100.288 177.4 100.165 177.064 99.9197 176.825C99.6778 176.587 99.3165 176.467 98.8359 176.467C98.3355 176.467 97.9411 176.578 97.6527 176.8C97.3677 177.019 97.1705 177.263 97.0611 177.531L95.6641 177.213C95.8298 176.749 96.0717 176.375 96.3899 176.089C96.7114 175.801 97.081 175.592 97.4986 175.463C97.9162 175.33 98.3554 175.264 98.8161 175.264C99.121 175.264 99.4441 175.301 99.7855 175.374C100.13 175.443 100.452 175.572 100.75 175.761C101.052 175.95 101.299 176.22 101.491 176.572C101.683 176.92 101.779 177.372 101.779 177.929V183H100.327V181.956H100.268C100.172 182.148 100.027 182.337 99.8352 182.523C99.643 182.708 99.3961 182.862 99.0945 182.985C98.7929 183.108 98.4316 183.169 98.0107 183.169ZM98.3338 181.976C98.7448 181.976 99.0961 181.895 99.3878 181.732C99.6828 181.57 99.9065 181.358 100.059 181.096C100.215 180.831 100.293 180.547 100.293 180.246V179.261C100.24 179.314 100.137 179.364 99.9844 179.411C99.8352 179.454 99.6645 179.492 99.4723 179.525C99.2801 179.555 99.0928 179.583 98.9105 179.609C98.7282 179.633 98.5758 179.652 98.4531 179.669C98.1648 179.705 97.9013 179.767 97.6626 179.853C97.4273 179.939 97.2384 180.063 97.0959 180.226C96.9567 180.385 96.8871 180.597 96.8871 180.862C96.8871 181.23 97.023 181.509 97.2947 181.697C97.5665 181.883 97.9129 181.976 98.3338 181.976ZM104.425 185.864C104.203 185.864 104.001 185.845 103.819 185.809C103.636 185.776 103.501 185.739 103.411 185.7L103.769 184.482C104.041 184.554 104.283 184.586 104.495 184.576C104.707 184.566 104.894 184.487 105.057 184.337C105.222 184.188 105.368 183.945 105.494 183.607L105.678 183.099L102.884 175.364H104.475L106.409 181.29H106.488L108.422 175.364H110.018L106.871 184.019C106.725 184.417 106.54 184.753 106.314 185.028C106.089 185.307 105.821 185.516 105.509 185.655C105.198 185.794 104.836 185.864 104.425 185.864ZM118.645 183.169C117.86 183.166 117.189 182.959 116.632 182.548C116.075 182.137 115.649 181.538 115.354 180.753C115.059 179.967 114.912 179.021 114.912 177.914C114.912 176.81 115.059 175.867 115.354 175.085C115.652 174.303 116.08 173.706 116.637 173.295C117.197 172.884 117.866 172.679 118.645 172.679C119.424 172.679 120.092 172.886 120.649 173.3C121.206 173.711 121.632 174.308 121.926 175.09C122.225 175.869 122.374 176.81 122.374 177.914C122.374 179.024 122.226 179.972 121.931 180.758C121.636 181.54 121.211 182.138 120.654 182.553C120.097 182.964 119.427 183.169 118.645 183.169ZM118.645 181.842C119.335 181.842 119.873 181.505 120.261 180.832C120.652 180.16 120.848 179.187 120.848 177.914C120.848 177.069 120.758 176.355 120.579 175.771C120.404 175.185 120.15 174.741 119.819 174.439C119.49 174.134 119.099 173.982 118.645 173.982C117.959 173.982 117.421 174.32 117.029 174.996C116.638 175.672 116.441 176.645 116.438 177.914C116.438 178.763 116.526 179.48 116.701 180.067C116.88 180.65 117.134 181.093 117.462 181.394C117.79 181.692 118.185 181.842 118.645 181.842ZM128.001 172.818V183H126.459V174.359H126.4L123.964 175.95V174.479L126.504 172.818H128.001Z" fill="#9F9F9F"/>
<line x1="190.5" y1="2" x2="190.5" y2="152" stroke="#E8E8E8"/>
<path d="M166.311 172.818H168.175L171.417 180.733H171.536L174.778 172.818H176.642V183H175.18V175.632H175.086L172.083 182.985H170.87L167.867 175.627H167.773V183H166.311V172.818ZM180.978 183.169C180.495 183.169 180.057 183.08 179.666 182.901C179.275 182.718 178.965 182.455 178.736 182.11C178.511 181.765 178.398 181.343 178.398 180.842C178.398 180.411 178.481 180.057 178.647 179.778C178.812 179.5 179.036 179.28 179.318 179.117C179.6 178.955 179.915 178.832 180.263 178.749C180.611 178.666 180.965 178.603 181.326 178.56C181.784 178.507 182.155 178.464 182.44 178.431C182.725 178.395 182.932 178.337 183.062 178.257C183.191 178.178 183.255 178.048 183.255 177.869V177.835C183.255 177.4 183.133 177.064 182.888 176.825C182.646 176.587 182.284 176.467 181.804 176.467C181.303 176.467 180.909 176.578 180.62 176.8C180.335 177.019 180.138 177.263 180.029 177.531L178.632 177.213C178.798 176.749 179.04 176.375 179.358 176.089C179.679 175.801 180.049 175.592 180.466 175.463C180.884 175.33 181.323 175.264 181.784 175.264C182.089 175.264 182.412 175.301 182.753 175.374C183.098 175.443 183.419 175.572 183.718 175.761C184.019 175.95 184.266 176.22 184.459 176.572C184.651 176.92 184.747 177.372 184.747 177.929V183H183.295V181.956H183.236C183.139 182.148 182.995 182.337 182.803 182.523C182.611 182.708 182.364 182.862 182.062 182.985C181.761 183.108 181.399 183.169 180.978 183.169ZM181.302 181.976C181.713 181.976 182.064 181.895 182.356 181.732C182.651 181.57 182.874 181.358 183.027 181.096C183.182 180.831 183.26 180.547 183.26 180.246V179.261C183.207 179.314 183.105 179.364 182.952 179.411C182.803 179.454 182.632 179.492 182.44 179.525C182.248 179.555 182.061 179.583 181.878 179.609C181.696 179.633 181.544 179.652 181.421 179.669C181.133 179.705 180.869 179.767 180.63 179.853C180.395 179.939 180.206 180.063 180.064 180.226C179.924 180.385 179.855 180.597 179.855 180.862C179.855 181.23 179.991 181.509 180.263 181.697C180.534 181.883 180.881 181.976 181.302 181.976ZM187.393 185.864C187.171 185.864 186.969 185.845 186.786 185.809C186.604 185.776 186.468 185.739 186.379 185.7L186.737 184.482C187.009 184.554 187.251 184.586 187.463 184.576C187.675 184.566 187.862 184.487 188.024 184.337C188.19 184.188 188.336 183.945 188.462 183.607L188.646 183.099L185.852 175.364H187.443L189.377 181.29H189.456L191.39 175.364H192.986L189.839 184.019C189.693 184.417 189.508 184.753 189.282 185.028C189.057 185.307 188.788 185.516 188.477 185.655C188.165 185.794 187.804 185.864 187.393 185.864ZM201.613 183.169C200.828 183.166 200.156 182.959 199.6 182.548C199.043 182.137 198.617 181.538 198.322 180.753C198.027 179.967 197.879 179.021 197.879 177.914C197.879 176.81 198.027 175.867 198.322 175.085C198.62 174.303 199.048 173.706 199.604 173.295C200.165 172.884 200.834 172.679 201.613 172.679C202.392 172.679 203.06 172.886 203.617 173.3C204.173 173.711 204.599 174.308 204.894 175.09C205.193 175.869 205.342 176.81 205.342 177.914C205.342 179.024 205.194 179.972 204.899 180.758C204.604 181.54 204.178 182.138 203.622 182.553C203.065 182.964 202.395 183.169 201.613 183.169ZM201.613 181.842C202.302 181.842 202.841 181.505 203.229 180.832C203.62 180.16 203.815 179.187 203.815 177.914C203.815 177.069 203.726 176.355 203.547 175.771C203.371 175.185 203.118 174.741 202.786 174.439C202.458 174.134 202.067 173.982 201.613 173.982C200.927 173.982 200.388 174.32 199.997 174.996C199.606 175.672 199.409 176.645 199.406 177.914C199.406 178.763 199.493 179.48 199.669 180.067C199.848 180.65 200.102 181.093 200.43 181.394C200.758 181.692 201.152 181.842 201.613 181.842ZM210.466 183.139C209.843 183.139 209.283 183.02 208.786 182.781C208.292 182.539 207.898 182.208 207.603 181.787C207.308 181.366 207.15 180.885 207.13 180.345H208.622C208.658 180.783 208.852 181.142 209.203 181.424C209.555 181.706 209.976 181.847 210.466 181.847C210.857 181.847 211.204 181.757 211.505 181.578C211.81 181.396 212.049 181.146 212.221 180.827C212.397 180.509 212.485 180.146 212.485 179.739C212.485 179.324 212.395 178.955 212.216 178.63C212.037 178.305 211.79 178.05 211.475 177.864C211.164 177.679 210.806 177.584 210.402 177.581C210.093 177.581 209.783 177.634 209.472 177.74C209.16 177.846 208.908 177.985 208.716 178.158L207.309 177.949L207.881 172.818H213.479V174.136H209.159L208.835 176.984H208.895C209.094 176.792 209.358 176.631 209.686 176.502C210.017 176.373 210.372 176.308 210.75 176.308C211.369 176.308 211.921 176.456 212.405 176.751C212.892 177.046 213.275 177.448 213.554 177.959C213.835 178.466 213.974 179.049 213.971 179.709C213.974 180.368 213.825 180.957 213.524 181.474C213.225 181.991 212.811 182.398 212.281 182.697C211.754 182.992 211.149 183.139 210.466 183.139Z" fill="#9F9F9F"/>
<line x1="274.5" y1="2" x2="274.5" y2="152" stroke="#E8E8E8"/>
<path d="M251.343 172.818H253.208L256.449 180.733H256.568L259.81 172.818H261.674V183H260.213V175.632H260.118L257.115 182.985H255.902L252.899 175.627H252.805V183H251.343V172.818ZM266.011 183.169C265.527 183.169 265.089 183.08 264.698 182.901C264.307 182.718 263.997 182.455 263.768 182.11C263.543 181.765 263.43 181.343 263.43 180.842C263.43 180.411 263.513 180.057 263.679 179.778C263.845 179.5 264.068 179.28 264.35 179.117C264.632 178.955 264.947 178.832 265.295 178.749C265.643 178.666 265.997 178.603 266.359 178.56C266.816 178.507 267.187 178.464 267.472 178.431C267.757 178.395 267.964 178.337 268.094 178.257C268.223 178.178 268.288 178.048 268.288 177.869V177.835C268.288 177.4 268.165 177.064 267.92 176.825C267.678 176.587 267.317 176.467 266.836 176.467C266.335 176.467 265.941 176.578 265.653 176.8C265.368 177.019 265.17 177.263 265.061 177.531L263.664 177.213C263.83 176.749 264.072 176.375 264.39 176.089C264.711 175.801 265.081 175.592 265.499 175.463C265.916 175.33 266.355 175.264 266.816 175.264C267.121 175.264 267.444 175.301 267.786 175.374C268.13 175.443 268.452 175.572 268.75 175.761C269.052 175.95 269.299 176.22 269.491 176.572C269.683 176.92 269.779 177.372 269.779 177.929V183H268.327V181.956H268.268C268.172 182.148 268.027 182.337 267.835 182.523C267.643 182.708 267.396 182.862 267.094 182.985C266.793 183.108 266.432 183.169 266.011 183.169ZM266.334 181.976C266.745 181.976 267.096 181.895 267.388 181.732C267.683 181.57 267.906 181.358 268.059 181.096C268.215 180.831 268.293 180.547 268.293 180.246V179.261C268.24 179.314 268.137 179.364 267.984 179.411C267.835 179.454 267.665 179.492 267.472 179.525C267.28 179.555 267.093 179.583 266.911 179.609C266.728 179.633 266.576 179.652 266.453 179.669C266.165 179.705 265.901 179.767 265.663 179.853C265.427 179.939 265.238 180.063 265.096 180.226C264.957 180.385 264.887 180.597 264.887 180.862C264.887 181.23 265.023 181.509 265.295 181.697C265.567 181.883 265.913 181.976 266.334 181.976ZM272.425 185.864C272.203 185.864 272.001 185.845 271.819 185.809C271.636 185.776 271.501 185.739 271.411 185.7L271.769 184.482C272.041 184.554 272.283 184.586 272.495 184.576C272.707 184.566 272.894 184.487 273.057 184.337C273.222 184.188 273.368 183.945 273.494 183.607L273.678 183.099L270.884 175.364H272.475L274.409 181.29H274.488L276.422 175.364H278.018L274.871 184.019C274.725 184.417 274.54 184.753 274.314 185.028C274.089 185.307 273.821 185.516 273.509 185.655C273.198 185.794 272.836 185.864 272.425 185.864ZM286.963 172.818V183H285.422V174.359H285.363L282.926 175.95V174.479L285.467 172.818H286.963ZM293.262 183.169C292.477 183.166 291.806 182.959 291.249 182.548C290.692 182.137 290.266 181.538 289.971 180.753C289.676 179.967 289.529 179.021 289.529 177.914C289.529 176.81 289.676 175.867 289.971 175.085C290.27 174.303 290.697 173.706 291.254 173.295C291.814 172.884 292.484 172.679 293.262 172.679C294.041 172.679 294.709 172.886 295.266 173.3C295.823 173.711 296.249 174.308 296.544 175.09C296.842 175.869 296.991 176.81 296.991 177.914C296.991 179.024 296.844 179.972 296.549 180.758C296.254 181.54 295.828 182.138 295.271 182.553C294.714 182.964 294.045 183.169 293.262 183.169ZM293.262 181.842C293.952 181.842 294.49 181.505 294.878 180.832C295.269 180.16 295.465 179.187 295.465 177.914C295.465 177.069 295.375 176.355 295.196 175.771C295.021 175.185 294.767 174.741 294.436 174.439C294.108 174.134 293.717 173.982 293.262 173.982C292.576 173.982 292.038 174.32 291.647 174.996C291.256 175.672 291.058 176.645 291.055 177.914C291.055 178.763 291.143 179.48 291.319 180.067C291.498 180.65 291.751 181.093 292.079 181.394C292.407 181.692 292.802 181.842 293.262 181.842Z" fill="#9F9F9F"/>
<line x1="358.5" y1="2" x2="358.5" y2="152" stroke="#E8E8E8"/>
<path d="M335.521 172.818H337.385L340.627 180.733H340.746L343.988 172.818H345.852V183H344.39V175.632H344.296L341.293 182.985H340.08L337.077 175.627H336.983V183H335.521V172.818ZM350.188 183.169C349.704 183.169 349.267 183.08 348.876 182.901C348.485 182.718 348.175 182.455 347.946 182.11C347.721 181.765 347.608 181.343 347.608 180.842C347.608 180.411 347.691 180.057 347.857 179.778C348.022 179.5 348.246 179.28 348.528 179.117C348.81 178.955 349.124 178.832 349.472 178.749C349.82 178.666 350.175 178.603 350.536 178.56C350.994 178.507 351.365 178.464 351.65 178.431C351.935 178.395 352.142 178.337 352.271 178.257C352.401 178.178 352.465 178.048 352.465 177.869V177.835C352.465 177.4 352.343 177.064 352.097 176.825C351.856 176.587 351.494 176.467 351.014 176.467C350.513 176.467 350.119 176.578 349.83 176.8C349.545 177.019 349.348 177.263 349.239 177.531L347.842 177.213C348.008 176.749 348.249 176.375 348.568 176.089C348.889 175.801 349.259 175.592 349.676 175.463C350.094 175.33 350.533 175.264 350.994 175.264C351.299 175.264 351.622 175.301 351.963 175.374C352.308 175.443 352.629 175.572 352.928 175.761C353.229 175.95 353.476 176.22 353.669 176.572C353.861 176.92 353.957 177.372 353.957 177.929V183H352.505V181.956H352.445C352.349 182.148 352.205 182.337 352.013 182.523C351.821 182.708 351.574 182.862 351.272 182.985C350.971 183.108 350.609 183.169 350.188 183.169ZM350.512 181.976C350.923 181.976 351.274 181.895 351.566 181.732C351.86 181.57 352.084 181.358 352.237 181.096C352.392 180.831 352.47 180.547 352.47 180.246V179.261C352.417 179.314 352.315 179.364 352.162 179.411C352.013 179.454 351.842 179.492 351.65 179.525C351.458 179.555 351.271 179.583 351.088 179.609C350.906 179.633 350.753 179.652 350.631 179.669C350.343 179.705 350.079 179.767 349.84 179.853C349.605 179.939 349.416 180.063 349.274 180.226C349.134 180.385 349.065 180.597 349.065 180.862C349.065 181.23 349.201 181.509 349.472 181.697C349.744 181.883 350.091 181.976 350.512 181.976ZM356.603 185.864C356.381 185.864 356.179 185.845 355.996 185.809C355.814 185.776 355.678 185.739 355.589 185.7L355.947 184.482C356.219 184.554 356.46 184.586 356.673 184.576C356.885 184.566 357.072 184.487 357.234 184.337C357.4 184.188 357.546 183.945 357.672 183.607L357.856 183.099L355.062 175.364H356.653L358.587 181.29H358.666L360.6 175.364H362.196L359.049 184.019C358.903 184.417 358.718 184.753 358.492 185.028C358.267 185.307 357.998 185.516 357.687 185.655C357.375 185.794 357.014 185.864 356.603 185.864ZM371.141 172.818V183H369.6V174.359H369.54L367.104 175.95V174.479L369.645 172.818H371.141ZM377.256 183.139C376.633 183.139 376.073 183.02 375.576 182.781C375.082 182.539 374.688 182.208 374.393 181.787C374.098 181.366 373.94 180.885 373.92 180.345H375.412C375.448 180.783 375.642 181.142 375.993 181.424C376.345 181.706 376.766 181.847 377.256 181.847C377.647 181.847 377.994 181.757 378.295 181.578C378.6 181.396 378.839 181.146 379.011 180.827C379.187 180.509 379.275 180.146 379.275 179.739C379.275 179.324 379.185 178.955 379.006 178.63C378.827 178.305 378.58 178.05 378.265 177.864C377.954 177.679 377.596 177.584 377.192 177.581C376.883 177.581 376.573 177.634 376.262 177.74C375.95 177.846 375.698 177.985 375.506 178.158L374.099 177.949L374.671 172.818H380.269V174.136H375.949L375.626 176.984H375.685C375.884 176.792 376.148 176.631 376.476 176.502C376.807 176.373 377.162 176.308 377.54 176.308C378.159 176.308 378.711 176.456 379.195 176.751C379.682 177.046 380.065 177.448 380.344 177.959C380.625 178.466 380.765 179.049 380.761 179.709C380.765 180.368 380.615 180.957 380.314 181.474C380.015 181.991 379.601 182.398 379.071 182.697C378.544 182.992 377.939 183.139 377.256 183.139Z" fill="#9F9F9F"/>
<line x1="442.5" y1="2" x2="442.5" y2="152" stroke="#E8E8E8"/>
<path d="M418.359 172.818H420.223L423.465 180.733H423.584L426.825 172.818H428.69V183H427.228V175.632H427.134L424.131 182.985H422.918L419.915 175.627H419.82V183H418.359V172.818ZM433.026 183.169C432.542 183.169 432.105 183.08 431.714 182.901C431.323 182.718 431.013 182.455 430.784 182.11C430.559 181.765 430.446 181.343 430.446 180.842C430.446 180.411 430.529 180.057 430.695 179.778C430.86 179.5 431.084 179.28 431.366 179.117C431.647 178.955 431.962 178.832 432.31 178.749C432.658 178.666 433.013 178.603 433.374 178.56C433.832 178.507 434.203 178.464 434.488 178.431C434.773 178.395 434.98 178.337 435.109 178.257C435.239 178.178 435.303 178.048 435.303 177.869V177.835C435.303 177.4 435.181 177.064 434.935 176.825C434.693 176.587 434.332 176.467 433.852 176.467C433.351 176.467 432.957 176.578 432.668 176.8C432.383 177.019 432.186 177.263 432.077 177.531L430.68 177.213C430.845 176.749 431.087 176.375 431.406 176.089C431.727 175.801 432.097 175.592 432.514 175.463C432.932 175.33 433.371 175.264 433.832 175.264C434.137 175.264 434.46 175.301 434.801 175.374C435.146 175.443 435.467 175.572 435.766 175.761C436.067 175.95 436.314 176.22 436.506 176.572C436.699 176.92 436.795 177.372 436.795 177.929V183H435.343V181.956H435.283C435.187 182.148 435.043 182.337 434.851 182.523C434.659 182.708 434.412 182.862 434.11 182.985C433.808 183.108 433.447 183.169 433.026 183.169ZM433.349 181.976C433.76 181.976 434.112 181.895 434.403 181.732C434.698 181.57 434.922 181.358 435.075 181.096C435.23 180.831 435.308 180.547 435.308 180.246V179.261C435.255 179.314 435.152 179.364 435 179.411C434.851 179.454 434.68 179.492 434.488 179.525C434.296 179.555 434.108 179.583 433.926 179.609C433.744 179.633 433.591 179.652 433.469 179.669C433.18 179.705 432.917 179.767 432.678 179.853C432.443 179.939 432.254 180.063 432.112 180.226C431.972 180.385 431.903 180.597 431.903 180.862C431.903 181.23 432.039 181.509 432.31 181.697C432.582 181.883 432.929 181.976 433.349 181.976ZM439.441 185.864C439.219 185.864 439.017 185.845 438.834 185.809C438.652 185.776 438.516 185.739 438.427 185.7L438.785 184.482C439.056 184.554 439.298 184.586 439.51 184.576C439.723 184.566 439.91 184.487 440.072 184.337C440.238 184.188 440.384 183.945 440.51 183.607L440.694 183.099L437.9 175.364H439.491L441.425 181.29H441.504L443.438 175.364H445.034L441.887 184.019C441.741 184.417 441.555 184.753 441.33 185.028C441.105 185.307 440.836 185.516 440.525 185.655C440.213 185.794 439.852 185.864 439.441 185.864ZM450.116 183V181.886L453.561 178.317C453.929 177.929 454.233 177.589 454.471 177.298C454.713 177.003 454.894 176.723 455.013 176.457C455.132 176.192 455.192 175.911 455.192 175.612C455.192 175.274 455.113 174.982 454.953 174.737C454.794 174.489 454.577 174.298 454.302 174.165C454.027 174.03 453.717 173.962 453.373 173.962C453.008 173.962 452.69 174.036 452.418 174.185C452.146 174.335 451.937 174.545 451.792 174.817C451.646 175.089 451.573 175.407 451.573 175.771H450.106C450.106 175.152 450.249 174.61 450.534 174.146C450.819 173.682 451.21 173.322 451.707 173.067C452.204 172.808 452.769 172.679 453.402 172.679C454.042 172.679 454.605 172.807 455.093 173.062C455.583 173.314 455.966 173.658 456.241 174.096C456.516 174.53 456.654 175.021 456.654 175.567C456.654 175.945 456.583 176.315 456.44 176.676C456.301 177.037 456.057 177.44 455.709 177.884C455.361 178.325 454.877 178.86 454.257 179.49L452.234 181.608V181.683H456.818V183H450.116ZM462.247 183.169C461.461 183.166 460.79 182.959 460.233 182.548C459.676 182.137 459.251 181.538 458.956 180.753C458.661 179.967 458.513 179.021 458.513 177.914C458.513 176.81 458.661 175.867 458.956 175.085C459.254 174.303 459.681 173.706 460.238 173.295C460.798 172.884 461.468 172.679 462.247 172.679C463.026 172.679 463.694 172.886 464.25 173.3C464.807 173.711 465.233 174.308 465.528 175.09C465.826 175.869 465.975 176.81 465.975 177.914C465.975 179.024 465.828 179.972 465.533 180.758C465.238 181.54 464.812 182.138 464.255 182.553C463.699 182.964 463.029 183.169 462.247 183.169ZM462.247 181.842C462.936 181.842 463.475 181.505 463.863 180.832C464.254 180.16 464.449 179.187 464.449 177.914C464.449 177.069 464.36 176.355 464.181 175.771C464.005 175.185 463.752 174.741 463.42 174.439C463.092 174.134 462.701 173.982 462.247 173.982C461.561 173.982 461.022 174.32 460.631 174.996C460.24 175.672 460.043 176.645 460.039 177.914C460.039 178.763 460.127 179.48 460.303 180.067C460.482 180.65 460.735 181.093 461.064 181.394C461.392 181.692 461.786 181.842 462.247 181.842Z" fill="#9F9F9F"/>
<line x1="526.5" y1="2" x2="526.5" y2="152" stroke="#E8E8E8"/>
<path d="M502.537 172.818H504.401L507.642 180.733H507.762L511.003 172.818H512.868V183H511.406V175.632H511.311L508.309 182.985H507.096L504.093 175.627H503.998V183H502.537V172.818ZM517.204 183.169C516.72 183.169 516.283 183.08 515.892 182.901C515.5 182.718 515.191 182.455 514.962 182.11C514.736 181.765 514.624 181.343 514.624 180.842C514.624 180.411 514.707 180.057 514.872 179.778C515.038 179.5 515.262 179.28 515.544 179.117C515.825 178.955 516.14 178.832 516.488 178.749C516.836 178.666 517.191 178.603 517.552 178.56C518.009 178.507 518.381 178.464 518.666 178.431C518.951 178.395 519.158 178.337 519.287 178.257C519.416 178.178 519.481 178.048 519.481 177.869V177.835C519.481 177.4 519.358 177.064 519.113 176.825C518.871 176.587 518.51 176.467 518.029 176.467C517.529 176.467 517.134 176.578 516.846 176.8C516.561 177.019 516.364 177.263 516.254 177.531L514.857 177.213C515.023 176.749 515.265 176.375 515.583 176.089C515.905 175.801 516.274 175.592 516.692 175.463C517.11 175.33 517.549 175.264 518.009 175.264C518.314 175.264 518.637 175.301 518.979 175.374C519.324 175.443 519.645 175.572 519.943 175.761C520.245 175.95 520.492 176.22 520.684 176.572C520.876 176.92 520.972 177.372 520.972 177.929V183H519.521V181.956H519.461C519.365 182.148 519.221 182.337 519.029 182.523C518.836 182.708 518.589 182.862 518.288 182.985C517.986 183.108 517.625 183.169 517.204 183.169ZM517.527 181.976C517.938 181.976 518.289 181.895 518.581 181.732C518.876 181.57 519.1 181.358 519.252 181.096C519.408 180.831 519.486 180.547 519.486 180.246V179.261C519.433 179.314 519.33 179.364 519.178 179.411C519.029 179.454 518.858 179.492 518.666 179.525C518.473 179.555 518.286 179.583 518.104 179.609C517.922 179.633 517.769 179.652 517.646 179.669C517.358 179.705 517.095 179.767 516.856 179.853C516.621 179.939 516.432 180.063 516.289 180.226C516.15 180.385 516.08 180.597 516.08 180.862C516.08 181.23 516.216 181.509 516.488 181.697C516.76 181.883 517.106 181.976 517.527 181.976ZM523.619 185.864C523.397 185.864 523.194 185.845 523.012 185.809C522.83 185.776 522.694 185.739 522.604 185.7L522.962 184.482C523.234 184.554 523.476 184.586 523.688 184.576C523.9 184.566 524.088 184.487 524.25 184.337C524.416 184.188 524.562 183.945 524.688 183.607L524.871 183.099L522.077 175.364H523.668L525.602 181.29H525.682L527.616 175.364H529.212L526.065 184.019C525.919 184.417 525.733 184.753 525.508 185.028C525.282 185.307 525.014 185.516 524.702 185.655C524.391 185.794 524.03 185.864 523.619 185.864ZM534.294 183V181.886L537.739 178.317C538.107 177.929 538.41 177.589 538.649 177.298C538.891 177.003 539.072 176.723 539.191 176.457C539.31 176.192 539.37 175.911 539.37 175.612C539.37 175.274 539.29 174.982 539.131 174.737C538.972 174.489 538.755 174.298 538.48 174.165C538.205 174.03 537.895 173.962 537.55 173.962C537.186 173.962 536.867 174.036 536.596 174.185C536.324 174.335 536.115 174.545 535.969 174.817C535.823 175.089 535.751 175.407 535.751 175.771H534.284C534.284 175.152 534.426 174.61 534.711 174.146C534.997 173.682 535.388 173.322 535.885 173.067C536.382 172.808 536.947 172.679 537.58 172.679C538.22 172.679 538.783 172.807 539.27 173.062C539.761 173.314 540.144 173.658 540.419 174.096C540.694 174.53 540.831 175.021 540.831 175.567C540.831 175.945 540.76 176.315 540.618 176.676C540.479 177.037 540.235 177.44 539.887 177.884C539.539 178.325 539.055 178.86 538.435 179.49L536.412 181.608V181.683H540.996V183H534.294ZM546.241 183.139C545.617 183.139 545.057 183.02 544.56 182.781C544.066 182.539 543.672 182.208 543.377 181.787C543.082 181.366 542.925 180.885 542.905 180.345H544.396C544.433 180.783 544.626 181.142 544.978 181.424C545.329 181.706 545.75 181.847 546.241 181.847C546.632 181.847 546.978 181.757 547.28 181.578C547.585 181.396 547.823 181.146 547.996 180.827C548.171 180.509 548.259 180.146 548.259 179.739C548.259 179.324 548.17 178.955 547.991 178.63C547.812 178.305 547.565 178.05 547.25 177.864C546.938 177.679 546.58 177.584 546.176 177.581C545.868 177.581 545.558 177.634 545.246 177.74C544.935 177.846 544.683 177.985 544.491 178.158L543.084 177.949L543.655 172.818H549.253V174.136H544.933L544.61 176.984H544.67C544.868 176.792 545.132 176.631 545.46 176.502C545.791 176.373 546.146 176.308 546.524 176.308C547.144 176.308 547.696 176.456 548.18 176.751C548.667 177.046 549.05 177.448 549.328 177.959C549.61 178.466 549.749 179.049 549.746 179.709C549.749 180.368 549.6 180.957 549.298 181.474C549 181.991 548.586 182.398 548.055 182.697C547.528 182.992 546.923 183.139 546.241 183.139Z" fill="#9F9F9F"/>
<line x1="610.5" y1="2" x2="610.5" y2="152" stroke="#E8E8E8"/>
<path d="M586.14 172.818H588.004L591.246 180.733H591.365L594.607 172.818H596.471V183H595.009V175.632H594.915L591.912 182.985H590.699L587.696 175.627H587.602V183H586.14V172.818ZM600.808 183.169C600.324 183.169 599.886 183.08 599.495 182.901C599.104 182.718 598.794 182.455 598.565 182.11C598.34 181.765 598.227 181.343 598.227 180.842C598.227 180.411 598.31 180.057 598.476 179.778C598.642 179.5 598.865 179.28 599.147 179.117C599.429 178.955 599.744 178.832 600.092 178.749C600.44 178.666 600.794 178.603 601.156 178.56C601.613 178.507 601.984 178.464 602.269 178.431C602.554 178.395 602.761 178.337 602.891 178.257C603.02 178.178 603.085 178.048 603.085 177.869V177.835C603.085 177.4 602.962 177.064 602.717 176.825C602.475 176.587 602.113 176.467 601.633 176.467C601.132 176.467 600.738 176.578 600.45 176.8C600.165 177.019 599.967 177.263 599.858 177.531L598.461 177.213C598.627 176.749 598.869 176.375 599.187 176.089C599.508 175.801 599.878 175.592 600.295 175.463C600.713 175.33 601.152 175.264 601.613 175.264C601.918 175.264 602.241 175.301 602.582 175.374C602.927 175.443 603.249 175.572 603.547 175.761C603.848 175.95 604.095 176.22 604.288 176.572C604.48 176.92 604.576 177.372 604.576 177.929V183H603.124V181.956H603.065C602.969 182.148 602.824 182.337 602.632 182.523C602.44 182.708 602.193 182.862 601.891 182.985C601.59 183.108 601.228 183.169 600.808 183.169ZM601.131 181.976C601.542 181.976 601.893 181.895 602.185 181.732C602.48 181.57 602.703 181.358 602.856 181.096C603.012 180.831 603.089 180.547 603.089 180.246V179.261C603.036 179.314 602.934 179.364 602.781 179.411C602.632 179.454 602.461 179.492 602.269 179.525C602.077 179.555 601.89 179.583 601.707 179.609C601.525 179.633 601.373 179.652 601.25 179.669C600.962 179.705 600.698 179.767 600.46 179.853C600.224 179.939 600.035 180.063 599.893 180.226C599.754 180.385 599.684 180.597 599.684 180.862C599.684 181.23 599.82 181.509 600.092 181.697C600.363 181.883 600.71 181.976 601.131 181.976ZM607.222 185.864C607 185.864 606.798 185.845 606.616 185.809C606.433 185.776 606.297 185.739 606.208 185.7L606.566 184.482C606.838 184.554 607.08 184.586 607.292 184.576C607.504 184.566 607.691 184.487 607.854 184.337C608.019 184.188 608.165 183.945 608.291 183.607L608.475 183.099L605.681 175.364H607.272L609.206 181.29H609.285L611.219 175.364H612.815L609.668 184.019C609.522 184.417 609.337 184.753 609.111 185.028C608.886 185.307 608.617 185.516 608.306 185.655C607.994 185.794 607.633 185.864 607.222 185.864ZM621.442 183.139C620.759 183.139 620.15 183.022 619.613 182.786C619.079 182.551 618.656 182.224 618.345 181.807C618.037 181.386 617.871 180.899 617.848 180.345H619.409C619.429 180.647 619.53 180.909 619.712 181.131C619.898 181.349 620.14 181.518 620.438 181.638C620.736 181.757 621.068 181.817 621.432 181.817C621.833 181.817 622.188 181.747 622.496 181.608C622.808 181.469 623.051 181.275 623.227 181.026C623.403 180.774 623.49 180.484 623.49 180.156C623.49 179.815 623.403 179.515 623.227 179.256C623.055 178.995 622.801 178.789 622.466 178.64C622.135 178.491 621.734 178.416 621.263 178.416H620.403V177.163H621.263C621.641 177.163 621.972 177.095 622.257 176.96C622.546 176.824 622.771 176.635 622.934 176.393C623.096 176.147 623.177 175.861 623.177 175.533C623.177 175.218 623.106 174.944 622.963 174.712C622.824 174.477 622.625 174.293 622.367 174.161C622.112 174.028 621.81 173.962 621.462 173.962C621.131 173.962 620.821 174.023 620.532 174.146C620.247 174.265 620.015 174.437 619.836 174.663C619.657 174.885 619.561 175.152 619.548 175.463H618.061C618.078 174.913 618.24 174.429 618.549 174.011C618.86 173.594 619.271 173.267 619.782 173.032C620.292 172.797 620.859 172.679 621.482 172.679C622.135 172.679 622.698 172.807 623.172 173.062C623.65 173.314 624.017 173.65 624.276 174.071C624.538 174.492 624.667 174.953 624.664 175.453C624.667 176.023 624.508 176.507 624.186 176.905C623.868 177.303 623.444 177.569 622.914 177.705V177.785C623.59 177.888 624.114 178.156 624.485 178.59C624.859 179.024 625.045 179.563 625.042 180.206C625.045 180.766 624.889 181.268 624.574 181.712C624.263 182.156 623.837 182.506 623.297 182.761C622.756 183.013 622.138 183.139 621.442 183.139ZM630.466 183.169C629.68 183.166 629.009 182.959 628.452 182.548C627.895 182.137 627.469 181.538 627.174 180.753C626.879 179.967 626.732 179.021 626.732 177.914C626.732 176.81 626.879 175.867 627.174 175.085C627.473 174.303 627.9 173.706 628.457 173.295C629.017 172.884 629.687 172.679 630.466 172.679C631.244 172.679 631.912 172.886 632.469 173.3C633.026 173.711 633.452 174.308 633.747 175.09C634.045 175.869 634.194 176.81 634.194 177.914C634.194 179.024 634.047 179.972 633.752 180.758C633.457 181.54 633.031 182.138 632.474 182.553C631.917 182.964 631.248 183.169 630.466 183.169ZM630.466 181.842C631.155 181.842 631.694 181.505 632.081 180.832C632.472 180.16 632.668 179.187 632.668 177.914C632.668 177.069 632.578 176.355 632.4 175.771C632.224 175.185 631.97 174.741 631.639 174.439C631.311 174.134 630.92 173.982 630.466 173.982C629.779 173.982 629.241 174.32 628.85 174.996C628.459 175.672 628.261 176.645 628.258 177.914C628.258 178.763 628.346 179.48 628.522 180.067C628.701 180.65 628.954 181.093 629.282 181.394C629.61 181.692 630.005 181.842 630.466 181.842Z" fill="#9F9F9F"/>
<path d="M77.193 42.5396L72 30V152H664V36.296L658.807 42.3914C653.614 48.4868 643.228 60.6776 632.842 62.8564C622.456 65.0353 612.07 57.2021 601.684 53.5228C591.298 49.8435 580.912 50.3179 570.526 47.131C560.14 43.944 549.754 37.0956 539.368 34.5628C528.982 32.0301 518.596 33.8131 508.211 41.4262C497.825 49.0393 487.439 62.4825 477.053 59.4437C466.667 56.4048 456.281 36.8839 445.895 33.8008C435.509 30.7176 425.123 44.0722 414.737 45.5996C404.351 47.127 393.965 36.8272 383.579 40.2724C373.193 43.7176 362.807 60.9079 352.421 72.0287C342.035 83.1494 331.649 88.2005 321.263 88.7745C310.877 89.3485 300.491 85.4453 290.105 79.2995C279.719 73.1537 269.333 64.7653 258.947 67.7345C248.561 70.7038 238.175 85.0306 227.789 82.7179C217.403 80.4053 207.018 61.4532 196.632 48.1945C186.246 34.9357 175.86 27.3703 165.474 31.7729C155.088 36.1755 144.702 52.546 134.316 66.7847C123.93 81.0234 113.544 93.1304 103.158 86.6443C92.7719 80.1582 82.386 55.0791 77.193 42.5396Z" fill="url(#paint0_linear_66_5903)" fill-opacity="0.5"/>
<path opacity="0.5" d="M72 97C72 97 90.0055 79.8643 103.1 78.3049C116.195 76.7455 116.195 82.9654 130.382 82.9654C144.568 82.9654 138.02 62.1734 160.391 62.1734C182.761 62.1734 194.765 82.4456 209.497 82.9654C224.229 83.4852 238.96 43.9805 261.331 45.0202C283.701 46.0598 269.357 64.078 303.344 62.1734C331.115 60.6171 319.167 77.7676 349.176 77.7676C372.813 77.7676 378.897 87.5746 398.282 91.8022C424.426 97.504 440.042 82.651 460.483 77.7676C497.749 68.8644 487.398 84.5868 518.865 79.8468C546.767 75.6437 531.414 60.0944 576.155 60.0944C605.487 60.0944 612.383 83.952 641.629 82.9656C654.335 82.5371 664 88.1941 664 88.1941" stroke="#D1D1D1" stroke-width="2" stroke-linecap="round" stroke-dasharray="4 4"/>
<path d="M72 30L77.193 42.5757C82.386 55.1515 92.7719 80.3029 103.158 86.8077C113.544 93.3125 123.93 81.1706 134.316 66.8908C144.702 52.611 155.088 36.1933 165.474 31.778C175.86 27.3628 186.246 34.95 196.632 48.2469C207.018 61.5439 217.403 80.5507 227.789 82.87C238.175 85.1893 248.561 70.8212 258.947 67.8434C269.333 64.8656 279.719 73.2782 290.105 79.4417C300.491 85.6052 310.877 89.5197 321.263 88.944C331.649 88.3684 342.035 83.3027 352.421 72.1499C362.807 60.9971 373.193 43.7572 383.579 40.302C393.965 36.8469 404.351 47.1764 414.737 45.6446C425.123 44.1128 435.509 30.7197 445.895 33.8117C456.281 36.9038 466.667 56.481 477.053 59.5286C487.439 62.5762 497.825 49.0942 508.211 41.4591C518.596 33.8241 528.982 32.036 539.368 34.576C549.754 37.116 560.14 43.9842 570.526 47.1804C580.912 50.3766 591.298 49.9007 601.684 53.5906C612.07 57.2806 622.456 65.1363 632.842 62.9512C643.228 60.7661 653.614 48.5402 658.807 42.4272L664 36.3142" stroke="#299D91" stroke-width="1.5" stroke-linecap="round"/>
<defs>
<linearGradient id="paint0_linear_66_5903" x1="368" y1="1.53333" x2="368" y2="163.183" gradientUnits="userSpaceOnUse">
<stop stop-color="#299D91"/>
<stop offset="1" stop-color="#D9D9D9" stop-opacity="0"/>
</linearGradient>
</defs>
</svg>
