<svg width="128" height="68" viewBox="0 0 128 68" fill="none" xmlns="http://www.w3.org/2000/svg">
<path d="M121.6 64C125.135 64 128.033 61.1276 127.68 57.6106C127.057 51.3979 125.527 45.2981 123.128 39.5083C119.912 31.7434 115.198 24.6881 109.255 18.7452C103.312 12.8022 96.2566 8.08801 88.4917 4.87171C80.7269 1.65541 72.4046 -3.67377e-07 64 0C55.5954 3.67377e-07 47.2731 1.65541 39.5083 4.87171C31.7434 8.08801 24.6881 12.8022 18.7452 18.7452C12.8022 24.6881 8.08801 31.7434 4.87171 39.5083C2.47348 45.2981 0.943094 51.3979 0.319734 57.6106C-0.0331434 61.1276 2.86538 64 6.4 64C9.93462 64 12.7588 61.1237 13.1995 57.6166C13.7688 53.0863 14.9427 48.6427 16.6974 44.4066C19.2704 38.1947 23.0418 32.5505 27.7961 27.7961C32.5505 23.0418 38.1947 19.2704 44.4066 16.6974C50.6185 14.1243 57.2763 12.8 64 12.8C70.7237 12.8 77.3815 14.1243 83.5934 16.6974C89.8053 19.2704 95.4495 23.0418 100.204 27.7961C104.958 32.5505 108.73 38.1947 111.303 44.4066C113.057 48.6427 114.231 53.0862 114.801 57.6166C115.241 61.1236 118.065 64 121.6 64Z" fill="#E8E8E8"/>
<path d="M104.729 23.2707C107.229 20.7713 107.247 16.6905 104.511 14.4532C96.4186 7.83682 86.8012 3.28163 76.4858 1.22977C64.071 -1.23968 51.2027 0.0277319 39.5083 4.87174C27.8138 9.71575 17.8183 17.9188 10.7859 28.4435C4.94273 37.1885 1.36322 47.21 0.319708 57.6105C-0.0331616 61.1274 2.86538 64 6.4 64C9.93462 64 12.7588 61.1236 13.1995 57.6165C14.1877 49.7521 16.9928 42.1937 21.4288 35.5548C27.0547 27.135 35.051 20.5726 44.4066 16.6974C53.7622 12.8222 64.0568 11.8083 73.9886 13.7838C81.8196 15.3415 89.1478 18.7026 95.4076 23.5648C98.1991 25.733 102.23 25.77 104.729 23.2707Z" fill="#299D91"/>
<path fill-rule="evenodd" clip-rule="evenodd" d="M69.7236 60.1883L93.9989 32.0009L66.3313 56.4689C65.6151 56.1669 64.828 56 64.002 56C60.6882 56 58.002 58.6863 58.002 62C58.002 65.3137 60.6882 68 64.002 68C67.3157 68 70.002 65.3137 70.002 62C70.002 61.3686 69.9044 60.7599 69.7236 60.1883Z" fill="#299D91"/>
</svg>
