<svg width="40" height="48" viewBox="0 0 40 48" fill="none" xmlns="http://www.w3.org/2000/svg">
<rect width="40" height="48" rx="8" fill="#D2D2D2" fill-opacity="0.25"/>
<path d="M18.3333 17V18.7842L20 19.8342V18.5789H28.3333V30.4211H24.1667V32H30V17H18.3333ZM16.25 19.3684L10 23.3158V32H22.5V23.3158L16.25 19.3684ZM21.6667 20.1579V20.8921L23.0083 21.7368H23.3333V20.1579H21.6667ZM25 20.1579V21.7368H26.6667V20.1579H25ZM16.25 21.3421L20.8333 24.1053V30.4211H18.3333V25.6842H14.1667V30.4211H11.6667V24.1053L16.25 21.3421ZM25 23.3158V24.8947H26.6667V23.3158H25ZM25 26.4737V28.0526H26.6667V26.4737H25Z" fill="#525256"/>
</svg>
