<svg width="40" height="48" viewBox="0 0 40 48" fill="none" xmlns="http://www.w3.org/2000/svg">
<rect width="40" height="48" rx="8" fill="#D2D2D2" fill-opacity="0.25"/>
<path d="M14 34C13.45 34 12.979 33.804 12.587 33.412C12.195 33.02 11.9993 32.5493 12 32V20C12 19.45 12.196 18.979 12.588 18.587C12.98 18.195 13.4507 17.9993 14 18H16C16 16.9 16.3917 15.9583 17.175 15.175C17.9583 14.3917 18.9 14 20 14C21.1 14 22.0417 14.3917 22.825 15.175C23.6083 15.9583 24 16.9 24 18H26C26.55 18 27.021 18.196 27.413 18.588C27.805 18.98 28.0007 19.4507 28 20V32C28 32.55 27.804 33.021 27.412 33.413C27.02 33.805 26.5493 34.0007 26 34H14ZM14 32H26V20H24V22C24 22.2833 23.904 22.521 23.712 22.713C23.52 22.905 23.2827 23.0007 23 23C22.7167 23 22.479 22.904 22.287 22.712C22.095 22.52 21.9993 22.2827 22 22V20H18V22C18 22.2833 17.904 22.521 17.712 22.713C17.52 22.905 17.2827 23.0007 17 23C16.7167 23 16.479 22.904 16.287 22.712C16.095 22.52 15.9993 22.2827 16 22V20H14V32ZM18 18H22C22 17.45 21.804 16.979 21.412 16.587C21.02 16.195 20.5493 15.9993 20 16C19.45 16 18.979 16.196 18.587 16.588C18.195 16.98 17.9993 17.4507 18 18Z" fill="#525256"/>
</svg>
