<svg width="40" height="48" viewBox="0 0 40 48" fill="none" xmlns="http://www.w3.org/2000/svg">
<rect width="40" height="48" rx="8" fill="#D2D2D2" fill-opacity="0.25"/>
<path d="M18 34V27.65L19.625 23H28.375L30 27.65V34H28V32.5H20V34H18ZM20 26.5H28L27.3 24.5H20.7L20 26.5ZM21 30.5C21.2833 30.5 21.521 30.404 21.713 30.212C21.9043 30.0207 22 29.7833 22 29.5C22 29.2167 21.9043 28.9793 21.713 28.788C21.521 28.596 21.2833 28.5 21 28.5C20.7167 28.5 20.4793 28.596 20.288 28.788C20.096 28.9793 20 29.2167 20 29.5C20 29.7833 20.096 30.0207 20.288 30.212C20.4793 30.404 20.7167 30.5 21 30.5ZM27 30.5C27.2833 30.5 27.5207 30.404 27.712 30.212C27.904 30.0207 28 29.7833 28 29.5C28 29.2167 27.904 28.9793 27.712 28.788C27.5207 28.596 27.2833 28.5 27 28.5C26.7167 28.5 26.4793 28.596 26.288 28.788C26.096 28.9793 26 29.2167 26 29.5C26 29.7833 26.096 30.0207 26.288 30.212C26.4793 30.404 26.7167 30.5 27 30.5ZM14 26V24H16V26H14ZM19 20V18H21V20H19ZM14 30V28H16V30H14ZM14 34V32H16V34H14ZM10 34V20H15V14H25V21H23V16H17V22H12V34H10ZM19.5 31H28.5V28H19.5V31Z" fill="#525256"/>
</svg>
