<svg width="120" height="32" viewBox="0 0 120 32" fill="none" xmlns="http://www.w3.org/2000/svg">
<path d="M12.8902 0.400002H0V31.6L12.8902 0.400002Z" fill="#E73D1C"/>
<path d="M21.9596 0.400002H34.833V31.6L21.9596 0.400002Z" fill="#E73D1C"/>
<path d="M25.6293 31.6L17.4249 11.8992L11.7901 25.3277H17.7944L20.2465 31.6H25.6293Z" fill="#E73D1C"/>
<path fill-rule="evenodd" clip-rule="evenodd" d="M68.2284 25.5444C69.7988 25.5444 71.4699 25.2555 73.1662 24.516C73.3005 24.465 73.3257 24.4056 73.3257 24.2781C73.2753 23.8021 73.2166 23.1137 73.2166 22.5868V6.60855C73.2166 6.50657 73.2166 6.45557 73.0906 6.45557H70.2438C70.1347 6.45557 70.0843 6.50657 70.0843 6.64255V12.0564C69.6392 12.0054 69.3285 11.98 68.959 11.98C64.3655 11.98 61.544 15.0481 61.544 18.8812C61.544 23.3262 64.4411 25.5444 68.2284 25.5444ZM70.0843 22.5868C69.614 22.7397 69.0934 22.7992 68.5643 22.7992C66.4817 22.7992 64.777 21.6094 64.777 18.7197C64.777 16.1615 66.5321 14.6487 68.8582 14.6487C69.3285 14.6487 69.74 14.6996 70.0843 14.8356V22.5868ZM55.6043 20.7085L57.1242 25.1195C57.1746 25.23 57.2502 25.281 57.3846 25.281H60.3069C60.4665 25.281 60.4917 25.2045 60.4665 25.043L54.4286 8.0704C54.4034 7.93442 54.3782 7.90892 54.2439 7.90892H50.6162C50.5154 7.90892 50.4566 7.98541 50.4566 8.0959C50.4062 8.9883 50.3306 9.26027 50.2215 9.52374L44.8386 25.0175C44.8135 25.2045 44.8722 25.281 45.0234 25.281H47.635C47.7946 25.281 47.8702 25.23 47.9289 25.0685L49.3649 20.7085H55.6043ZM50.1963 17.8273C50.3013 17.5062 50.4108 17.173 50.5227 16.8326C51.2517 14.6139 52.0828 12.0847 52.4468 10.5521H52.472C52.8389 11.8576 53.5559 14.0661 54.1414 15.8694C54.3869 16.6254 54.6092 17.3101 54.7729 17.8273H50.1963ZM76.0593 18.7792C76.0593 15.0226 78.4862 11.98 82.4078 11.98C86.4302 11.98 88.622 15.0736 88.622 18.6942C88.622 22.7992 86.0356 25.5444 82.349 25.5444C77.9907 25.5444 76.0593 22.1363 76.0593 18.7792ZM85.4057 18.7792C85.4057 16.5779 84.4652 14.6487 82.2483 14.6487C80.4932 14.6487 79.242 16.2125 79.242 18.7197C79.242 21.1589 80.4176 22.8502 82.4078 22.8502C84.0202 22.8502 85.4057 21.4989 85.4057 18.7792ZM91.5649 6.45557C91.4557 6.45557 91.3801 6.50657 91.3801 6.64255V24.7285C91.3801 24.805 91.4557 24.941 91.5649 24.9665C92.8161 25.3574 94.1261 25.5444 95.4781 25.5444C99.3494 25.5444 103.111 23.1137 103.111 18.2183C103.111 14.6741 100.71 11.98 96.9477 11.98C96.0827 11.98 95.2766 12.1159 94.5712 12.3539L94.5376 6.66805C94.5376 6.48107 94.4872 6.45557 94.3025 6.45557H91.5649ZM99.8952 18.5412C99.8952 21.4734 97.9134 22.8502 95.772 22.8502C95.327 22.8502 94.9323 22.8247 94.5712 22.7142V14.9971C94.9827 14.8356 95.4781 14.6996 96.3934 14.6996C98.4592 14.6996 99.8952 16.0255 99.8952 18.5412ZM116.423 19.3826C116.062 19.4676 115.012 19.4931 113.736 19.4931H108.428C108.504 21.3374 109.713 22.8247 112.375 22.8247C113.551 22.8247 114.626 22.6123 115.617 22.1873C115.692 22.1363 115.768 22.1618 115.768 22.2893V24.4906C115.768 24.6435 115.717 24.7285 115.617 24.7795C114.626 25.2555 113.475 25.5444 111.695 25.5444C106.942 25.5444 105.246 22.1618 105.246 18.9067C105.246 15.2351 107.437 11.98 111.384 11.98C115.247 11.98 116.742 15.0481 116.742 17.5638C116.742 18.3032 116.708 18.9067 116.633 19.1956C116.608 19.3061 116.557 19.3571 116.423 19.3826ZM111.25 14.5212C109.444 14.5212 108.638 15.9235 108.428 17.2154H112.325H112.325C113.316 17.2154 113.652 17.2154 113.761 17.1899V16.9774C113.761 16.2125 113.24 14.5212 111.25 14.5212Z" fill="#E73D1C"/>
</svg>
