<svg width="120" height="40" viewBox="0 0 120 40" fill="none" xmlns="http://www.w3.org/2000/svg">
<g clip-path="url(#clip0_789_1586)">
<path d="M13.333 20C13.333 18.2319 14.0354 16.5362 15.2856 15.2859C16.5359 14.0357 18.2316 13.3333 19.9997 13.3333C21.7678 13.3333 23.4635 14.0357 24.7137 15.2859C25.964 16.5362 26.6663 18.2319 26.6663 20C26.6663 21.7681 25.964 23.4638 24.7137 24.714C23.4635 25.9643 21.7678 26.6667 19.9997 26.6667C18.2316 26.6667 16.5359 25.9643 15.2856 24.714C14.0354 23.4638 13.333 21.7681 13.333 20Z" fill="#1ABCFE"/>
<path d="M0 33.3333C0 31.5652 0.702379 29.8695 1.95262 28.6193C3.20286 27.3691 4.89856 26.6667 6.66667 26.6667H13.3333V33.3333C13.3333 35.1014 12.631 36.7971 11.3807 38.0474C10.1305 39.2976 8.43478 40 6.66667 40C4.89856 40 3.20286 39.2976 1.95262 38.0474C0.702379 36.7971 0 35.1014 0 33.3333H0Z" fill="#0ACF83"/>
<path d="M13.333 0V13.3333H19.9997C21.7678 13.3333 23.4635 12.631 24.7137 11.3807C25.964 10.1305 26.6663 8.43478 26.6663 6.66667C26.6663 4.89856 25.964 3.20286 24.7137 1.95262C23.4635 0.702379 21.7678 0 19.9997 0L13.333 0Z" fill="#FF7262"/>
<path d="M0 6.66667C0 8.43478 0.702379 10.1305 1.95262 11.3807C3.20286 12.631 4.89856 13.3333 6.66667 13.3333H13.3333V0H6.66667C4.89856 0 3.20286 0.702379 1.95262 1.95262C0.702379 3.20286 0 4.89856 0 6.66667H0Z" fill="#E73D1C"/>
<path d="M0 20C0 21.7681 0.702379 23.4638 1.95262 24.714C3.20286 25.9643 4.89856 26.6667 6.66667 26.6667H13.3333V13.3333H6.66667C4.89856 13.3333 3.20286 14.0357 1.95262 15.2859C0.702379 16.5362 0 18.2319 0 20H0Z" fill="#A259FF"/>
</g>
<g clip-path="url(#clip1_789_1586)">
<path d="M40.4658 8.33334V26.4257L42.7928 26.4346V17.8192H48.3864V15.5398H42.7838V10.6039H50.0779V8.33334H40.4658ZM54.2485 12.0128C54.652 12.0128 55.039 11.8521 55.3243 11.566C55.6096 11.2799 55.7699 10.8918 55.7699 10.4872C55.7699 10.0826 55.6096 9.69451 55.3243 9.4084C55.039 9.12229 54.652 8.96155 54.2485 8.96155C53.845 8.96155 53.458 9.12229 53.1726 9.4084C52.8873 9.69451 52.727 10.0826 52.727 10.4872C52.727 10.8918 52.8873 11.2799 53.1726 11.566C53.458 11.8521 53.845 12.0128 54.2485 12.0128ZM53.076 14.2833V26.4346H55.403V14.2833H53.076Z" fill="#191919"/>
<path fill-rule="evenodd" clip-rule="evenodd" d="M64.0035 13.9333C60.9248 13.9333 58.7769 16.5449 58.7769 19.65C58.7769 22.7551 60.9248 25.3667 64.0035 25.3667C65.4176 25.3667 66.5811 24.8282 67.4313 23.9308V25.5461C67.4372 26.0288 67.3476 26.5079 67.1678 26.9556C66.988 27.4034 66.7214 27.8109 66.3835 28.1548C66.0456 28.4986 65.6431 28.7718 65.1993 28.9587C64.7554 29.1456 64.2791 29.2424 63.7977 29.2436C63.0548 29.2436 62.321 28.9564 61.7392 28.5436L60.5758 30.5628C61.4754 31.1459 62.5153 31.4748 63.5858 31.5146C64.6563 31.5545 65.7177 31.3039 66.658 30.7892C67.5983 30.2746 68.3826 29.515 68.9283 28.5907C69.4739 27.6663 69.7607 26.6113 69.7582 25.5372V14.2923H67.4313V15.3782C66.5811 14.4808 65.4176 13.9423 64.0035 13.9423V13.9333ZM61.0948 19.65C61.0948 17.7205 62.5626 16.2038 64.2631 16.2038C65.9635 16.2038 67.4223 17.7295 67.4223 19.65C67.4223 21.5795 65.9546 23.0872 64.2631 23.0872C62.5626 23.0872 61.0948 21.5795 61.0948 19.65Z" fill="#191919"/>
<path d="M78.1172 16.2039C77.4517 16.2157 76.8176 16.4897 76.352 16.9666C75.8864 17.4436 75.6267 18.0852 75.6292 18.7526V26.4346H73.3022V14.2834H75.6292V15.3962C75.9773 14.9335 76.4296 14.5598 76.949 14.3056C77.4685 14.0514 78.0405 13.9239 78.6184 13.9334C80.2473 13.9334 81.5002 14.741 82.2162 15.9795C82.6157 15.3587 83.1624 14.8468 83.8074 14.4897C84.4524 14.1326 85.1757 13.9415 85.9125 13.9334C88.5527 13.9334 90.2084 16.0693 90.2084 18.7167V26.4346H87.8993V18.7436C87.9018 18.0762 87.6421 17.4346 87.1765 16.9576C86.7109 16.4807 86.0768 16.2067 85.4113 16.1949C84.7458 16.2067 84.1117 16.4807 83.6461 16.9576C83.1805 17.4346 82.9208 18.0762 82.9233 18.7436V26.4257H80.5963V18.7436C80.5988 18.0777 80.3404 17.4375 79.8767 16.9607C79.413 16.484 78.7812 16.209 78.1172 16.1949V16.2039Z" fill="#191919"/>
<path fill-rule="evenodd" clip-rule="evenodd" d="M102.586 15.6654C102.057 15.1129 101.422 14.6743 100.719 14.3765C100.016 14.0787 99.2591 13.9279 98.4957 13.9334C95.0411 13.9334 92.5889 16.859 92.5889 20.359C92.5889 23.859 95.0411 26.7846 98.4957 26.7846C99.2589 26.7885 100.015 26.637 100.718 26.3393C101.421 26.0416 102.056 25.6038 102.586 25.0526V26.4346H104.904V14.2834H102.577V15.6654H102.586ZM94.9069 20.359C94.9069 18.0436 96.6789 16.2039 98.7463 16.2039C100.805 16.2039 102.586 18.0436 102.586 20.359C102.586 22.6744 100.814 24.5052 98.7463 24.5052C96.6879 24.5052 94.9069 22.6744 94.9069 20.359Z" fill="#191919"/>
</g>
<defs>
<clipPath id="clip0_789_1586">
<rect width="26.6667" height="40" fill="white"/>
</clipPath>
<clipPath id="clip1_789_1586">
<rect width="65.3333" height="23.3333" fill="white" transform="translate(40 8.33333)"/>
</clipPath>
</defs>
</svg>
