<svg width="60" height="16" viewBox="0 0 60 16" fill="none" xmlns="http://www.w3.org/2000/svg">
<path d="M6.61037 0H0V16L6.61037 0Z" fill="#E73D1C"/>
<path d="M11.2613 0H17.8631V16L11.2613 0Z" fill="#E73D1C"/>
<path d="M13.1432 16L8.93584 5.89703L6.04622 12.7834H9.12532L10.3828 16H13.1432Z" fill="#E73D1C"/>
<path fill-rule="evenodd" clip-rule="evenodd" d="M35.1213 12.655C35.9266 12.655 36.7836 12.5068 37.6535 12.1276C37.7224 12.1014 37.7353 12.0709 37.7353 12.0056C37.7095 11.7615 37.6793 11.4084 37.6793 11.1382V2.94426C37.6793 2.89196 37.6793 2.86581 37.6148 2.86581H36.1549C36.0989 2.86581 36.073 2.89196 36.073 2.9617V5.73805C35.8448 5.7119 35.6855 5.69883 35.496 5.69883C33.1404 5.69883 31.6934 7.27224 31.6934 9.23792C31.6934 11.5174 33.1791 12.655 35.1213 12.655ZM36.073 11.1382C35.8319 11.2167 35.5649 11.2472 35.2936 11.2472C34.2256 11.2472 33.3514 10.637 33.3514 9.15511C33.3514 7.8432 34.2514 7.06739 35.4443 7.06739C35.6855 7.06739 35.8965 7.09354 36.073 7.16328V11.1382ZM28.6474 10.175L29.4269 12.437C29.4527 12.4937 29.4915 12.5198 29.5604 12.5198H31.059C31.1408 12.5198 31.1537 12.4806 31.1408 12.3978L28.0445 3.69391C28.0316 3.62417 28.0187 3.6111 27.9497 3.6111H26.0894C26.0377 3.6111 26.0076 3.65033 26.0076 3.70699C25.9817 4.16463 25.943 4.3041 25.887 4.43921L23.1265 12.3847C23.1136 12.4806 23.1438 12.5198 23.2213 12.5198H24.5606C24.6424 12.5198 24.6812 12.4937 24.7113 12.4109L25.4477 10.175H28.6474ZM25.8741 8.69745C25.9279 8.53278 25.9841 8.36193 26.0414 8.18733C26.4153 7.04955 26.8415 5.75255 27.0282 4.96659H27.0411C27.2292 5.63608 27.597 6.76864 27.8972 7.6934C28.0231 8.08108 28.1371 8.43224 28.2211 8.69745H25.8741ZM39.137 9.18561C39.137 7.25916 40.3816 5.69882 42.3927 5.69882C44.4555 5.69882 45.5794 7.28531 45.5794 9.14202C45.5794 11.2472 44.253 12.655 42.3625 12.655C40.1275 12.655 39.137 10.9072 39.137 9.18561ZM43.9301 9.18561C43.9301 8.05676 43.4477 7.06738 42.3109 7.06738C41.4108 7.06738 40.7691 7.86934 40.7691 9.1551C40.7691 10.406 41.372 11.2733 42.3927 11.2733C43.2195 11.2733 43.9301 10.5803 43.9301 9.18561ZM47.0887 2.86581C47.0328 2.86581 46.994 2.89196 46.994 2.9617V12.2366C46.994 12.2758 47.0328 12.3455 47.0887 12.3586C47.7304 12.5591 48.4022 12.655 49.0955 12.655C51.0808 12.655 53.0101 11.4084 53.0101 8.89796C53.0101 7.08047 51.7784 5.69883 49.8492 5.69883C49.4056 5.69883 48.9922 5.76856 48.6304 5.8906L48.6132 2.97477C48.6132 2.87889 48.5874 2.86581 48.4926 2.86581H47.0887ZM51.3607 9.06358C51.3607 10.5673 50.3444 11.2733 49.2463 11.2733C49.018 11.2733 48.8156 11.2603 48.6304 11.2036V7.24609C48.8414 7.16328 49.0955 7.09354 49.5649 7.09354C50.6243 7.09354 51.3607 7.77347 51.3607 9.06358ZM59.8364 9.49506C59.6512 9.53864 59.1129 9.55172 58.4583 9.55172H55.7367C55.7754 10.4975 56.3955 11.2602 57.7607 11.2602C58.3636 11.2602 58.9148 11.1513 59.423 10.9334C59.4617 10.9072 59.5005 10.9203 59.5005 10.9857V12.1145C59.5005 12.193 59.4746 12.2365 59.423 12.2627C58.9148 12.5068 58.3248 12.655 57.4119 12.655C54.9744 12.655 54.1045 10.9203 54.1045 9.25098C54.1045 7.36812 55.2285 5.69882 57.2525 5.69882C59.2335 5.69882 60 7.27223 60 8.56234C60 8.94153 59.9828 9.25098 59.944 9.39917C59.9311 9.45583 59.9053 9.48198 59.8364 9.49506ZM57.1836 7.00201C56.2577 7.00201 55.8443 7.72116 55.7366 8.38365H57.7348H57.7349C58.243 8.38365 58.4153 8.38365 58.4712 8.37057V8.26161C58.4712 7.86934 58.2042 7.00201 57.1836 7.00201Z" fill="#E73D1C"/>
</svg>
