<svg width="24" height="24" viewBox="0 0 24 24" fill="none" xmlns="http://www.w3.org/2000/svg">
<path d="M18.5833 4H5.41667C5.04094 4 4.68061 4.15223 4.41493 4.42319C4.14926 4.69416 4 5.06167 4 5.44487V9.62736C4.00035 9.90501 4.07914 10.1767 4.22692 10.4099C4.37471 10.643 4.58525 10.8279 4.83333 10.9422L10.05 13.3602C9.27758 13.8011 8.67035 14.4908 8.32341 15.3213C7.97647 16.1518 7.90942 17.0762 8.13277 17.9498C8.35612 18.8233 8.85724 19.5966 9.55765 20.1486C10.2581 20.7006 11.1182 21 12.0033 21C12.8885 21 13.7486 20.7006 14.449 20.1486C15.1494 19.5966 15.6505 18.8233 15.8739 17.9498C16.0972 17.0762 16.0302 16.1518 15.6833 15.3213C15.3363 14.4908 14.7291 13.8011 13.9567 13.3602L19.1667 10.9422C19.4148 10.8279 19.6253 10.643 19.7731 10.4099C19.9209 10.1767 19.9996 9.90501 20 9.62736V5.44487C20 5.06167 19.8507 4.69416 19.5851 4.42319C19.3194 4.15223 18.9591 4 18.5833 4ZM14.6667 5.35988V11.5363L12 12.7721L9.33333 11.5363V5.35988H14.6667ZM5.33333 9.62736V5.44487C5.33333 5.42233 5.34211 5.40071 5.35774 5.38477C5.37337 5.36884 5.39457 5.35988 5.41667 5.35988H8V10.9175L5.3825 9.7047C5.36788 9.698 5.35546 9.68713 5.34674 9.67342C5.33802 9.6597 5.33337 9.64371 5.33333 9.62736ZM12 19.6386C11.4726 19.6386 10.957 19.4791 10.5185 19.1803C10.0799 18.8814 9.73815 18.4566 9.53632 17.9597C9.33449 17.4627 9.28168 16.9158 9.38457 16.3883C9.48747 15.8607 9.74144 15.3761 10.1144 14.9957C10.4873 14.6153 10.9625 14.3563 11.4798 14.2514C11.997 14.1464 12.5332 14.2003 13.0205 14.4061C13.5078 14.612 13.9242 14.9606 14.2173 15.4078C14.5103 15.8551 14.6667 16.3809 14.6667 16.9189C14.6667 17.6402 14.3857 18.332 13.8856 18.842C13.3855 19.3521 12.7072 19.6386 12 19.6386ZM18.6667 9.62736C18.6666 9.64371 18.662 9.6597 18.6533 9.67342C18.6445 9.68713 18.6321 9.698 18.6175 9.7047L16 10.9175V5.35988H18.5833C18.6054 5.35988 18.6266 5.36884 18.6423 5.38477C18.6579 5.40071 18.6667 5.42233 18.6667 5.44487V9.62736Z" fill="#525256"/>
</svg>
