<svg width="45" height="16" viewBox="0 0 45 16" fill="none" xmlns="http://www.w3.org/2000/svg">
<g clip-path="url(#clip0_405_5544)">
<path d="M0.319123 0V12.4062L1.91474 12.4123V6.50462H5.75036V4.94154H1.9086V1.55692H6.91025V0H0.319123ZM9.77008 2.52308C10.0468 2.52308 10.3121 2.41286 10.5078 2.21667C10.7035 2.02047 10.8134 1.75438 10.8134 1.47692C10.8134 1.19947 10.7035 0.933372 10.5078 0.737181C10.3121 0.540989 10.0468 0.430769 9.77008 0.430769C9.49338 0.430769 9.22802 0.540989 9.03237 0.737181C8.83671 0.933372 8.72679 1.19947 8.72679 1.47692C8.72679 1.75438 8.83671 2.02047 9.03237 2.21667C9.22802 2.41286 9.49338 2.52308 9.77008 2.52308ZM8.96614 4.08V12.4123H10.5618V4.08H8.96614Z" fill="#666666"/>
<path fill-rule="evenodd" clip-rule="evenodd" d="M16.4594 3.84C14.3483 3.84 12.8754 5.63077 12.8754 7.76C12.8754 9.88923 14.3483 11.68 16.4594 11.68C17.429 11.68 18.2268 11.3108 18.8099 10.6954V11.8031C18.8139 12.134 18.7525 12.4625 18.6292 12.7696C18.5059 13.0766 18.3231 13.3561 18.0914 13.5918C17.8597 13.8276 17.5837 14.015 17.2793 14.1431C16.975 14.2713 16.6483 14.3377 16.3182 14.3385C15.8089 14.3385 15.3056 14.1415 14.9067 13.8585L14.1089 15.2431C14.7258 15.6429 15.4389 15.8684 16.173 15.8957C16.907 15.9231 17.6348 15.7512 18.2796 15.3983C18.9244 15.0455 19.4622 14.5246 19.8364 13.8907C20.2105 13.2569 20.4072 12.5335 20.4055 11.7969V4.08615H18.8099V4.83077C18.2268 4.21538 17.429 3.84615 16.4594 3.84615V3.84ZM14.4649 7.76C14.4649 6.43692 15.4713 5.39692 16.6374 5.39692C17.8034 5.39692 18.8037 6.44307 18.8037 7.76C18.8037 9.08307 17.7973 10.1169 16.6374 10.1169C15.4713 10.1169 14.4649 9.08307 14.4649 7.76Z" fill="#666666"/>
<path d="M26.1374 5.39692C25.6811 5.405 25.2462 5.59289 24.927 5.91995C24.6077 6.24701 24.4297 6.68695 24.4313 7.14461V12.4123H22.8357V4.08H24.4313V4.84308C24.6701 4.52581 24.9802 4.26958 25.3364 4.09527C25.6926 3.92096 26.0848 3.83349 26.4811 3.84C27.598 3.84 28.4572 4.39385 28.9482 5.24308C29.2221 4.81735 29.5969 4.46635 30.0393 4.2215C30.4816 3.97664 30.9775 3.84557 31.4827 3.84C33.2931 3.84 34.4285 5.30461 34.4285 7.12V12.4123H32.8452V7.13846C32.8468 6.68079 32.6688 6.24086 32.3495 5.9138C32.0302 5.58674 31.5954 5.39885 31.1391 5.39077C30.6827 5.39885 30.2479 5.58674 29.9286 5.9138C29.6094 6.24086 29.4313 6.68079 29.433 7.13846V12.4062H27.8374V7.13846C27.8391 6.68184 27.6619 6.24281 27.3439 5.91592C27.026 5.58904 26.5927 5.40045 26.1374 5.39077V5.39692Z" fill="#666666"/>
<path fill-rule="evenodd" clip-rule="evenodd" d="M42.9159 5.0277C42.5536 4.64884 42.118 4.3481 41.6358 4.14388C41.1535 3.93967 40.6348 3.83626 40.1113 3.84C37.7425 3.84 36.0609 5.84616 36.0609 8.24616C36.0609 10.6462 37.7425 12.6523 40.1113 12.6523C40.6347 12.655 41.1531 12.5511 41.6351 12.3469C42.1172 12.1428 42.553 11.8426 42.9159 11.4646V12.4123H44.5054V4.08H42.9098V5.0277H42.9159ZM37.6504 8.24616C37.6504 6.65846 38.8655 5.39693 40.2832 5.39693C41.6947 5.39693 42.9159 6.65846 42.9159 8.24616C42.9159 9.83385 41.7008 11.0892 40.2832 11.0892C38.8717 11.0892 37.6504 9.83385 37.6504 8.24616Z" fill="#666666"/>
</g>
<defs>
<clipPath id="clip0_405_5544">
<rect width="44.8" height="16" fill="white"/>
</clipPath>
</defs>
</svg>
