<svg width="276" height="32" viewBox="0 0 276 32" fill="none" xmlns="http://www.w3.org/2000/svg">
<path d="M2.73609 30H10.5761V18.96H18.8961V13H10.5761V8.04H21.8561V1.8H2.73609V30ZM28.358 30H36.198V1.8H28.358V30ZM62.1427 1.8V17.76L51.7027 1.8H43.8627V30H51.7027V14.24L62.1427 30H69.9827V1.8H62.1427ZM95.6886 1.8H77.6486V30H95.6886V23.72H85.4886V18.64H94.4886V12.68H85.4886V8.08H95.6886V1.8ZM108.083 11.24V0.4H103.523V30H108.083V26.8C109.523 28.72 112.123 30.36 115.763 30.36C121.563 30.36 126.123 25.68 126.123 18.88C126.123 12.08 121.603 7.6 115.763 7.6C112.283 7.6 109.523 9.24 108.083 11.24ZM121.483 18.88C121.483 23.64 118.203 26.4 114.763 26.4C111.363 26.4 108.083 23.72 108.083 18.96C108.083 14.24 111.363 11.56 114.763 11.56C118.203 11.56 121.483 14.12 121.483 18.88ZM132.312 18.88C132.312 25.68 136.912 30.36 142.632 30.36C146.312 30.36 148.952 28.6 150.352 26.72V30H154.952V7.96H150.352V11.16C148.992 9.36 146.432 7.6 142.712 7.6C136.912 7.6 132.312 12.08 132.312 18.88ZM150.352 18.96C150.352 23.72 147.112 26.4 143.672 26.4C140.272 26.4 136.992 23.64 136.992 18.88C136.992 14.12 140.272 11.56 143.672 11.56C147.112 11.56 150.352 14.24 150.352 18.96ZM179.781 30H184.301V17C184.301 10.84 180.421 7.6 175.261 7.6C172.621 7.6 170.181 8.68 168.701 10.48V7.96H164.141V30H168.701V17.68C168.701 13.64 170.901 11.56 174.261 11.56C177.581 11.56 179.781 13.64 179.781 17.68V30ZM193.318 30H197.878V20.52L206.038 30H212.198L202.038 19L212.198 7.96H205.878L197.878 17.6V0.4H193.318V30ZM223.386 27.36C223.386 25.72 222.106 24.44 220.506 24.44C218.866 24.44 217.586 25.72 217.586 27.36C217.586 29 218.866 30.28 220.506 30.28C222.106 30.28 223.386 29 223.386 27.36ZM230.755 30H238.595V1.8H230.755V30ZM274.22 15.8C274.22 7.32 267.82 1.36 259.78 1.36C251.78 1.36 245.3 7.32 245.3 15.8C245.3 24.28 251.78 30.28 259.78 30.28C267.78 30.28 274.22 24.28 274.22 15.8ZM253.3 15.8C253.3 11.36 255.7 8.56 259.78 8.56C263.82 8.56 266.26 11.36 266.26 15.8C266.26 20.16 263.82 23 259.78 23C255.7 23 253.3 20.16 253.3 15.8Z" fill="#299D91"/>
</svg>
